%TF.GenerationSoftware,KiCad,Pcbnew,10.0.0*%
%TF.CreationDate,2026-04-02T08:48:31+02:00*%
%TF.ProjectId,projet electronique PCBot,70726f6a-6574-4206-956c-656374726f6e,rev?*%
%TF.SameCoordinates,Original*%
%TF.FileFunction,Soldermask,Bot*%
%TF.FilePolarity,Negative*%
%FSLAX46Y46*%
G04 Gerber Fmt 4.6, Leading zero omitted, Abs format (unit mm)*
G04 Created by KiCad (PCBNEW 10.0.0) date 2026-04-02 08:48:31*
%MOMM*%
%LPD*%
G01*
G04 APERTURE LIST*
G04 Aperture macros list*
%AMRoundRect*
0 Rectangle with rounded corners*
0 $1 Rounding radius*
0 $2 $3 $4 $5 $6 $7 $8 $9 X,Y pos of 4 corners*
0 Add a 4 corners polygon primitive as box body*
4,1,4,$2,$3,$4,$5,$6,$7,$8,$9,$2,$3,0*
0 Add four circle primitives for the rounded corners*
1,1,$1+$1,$2,$3*
1,1,$1+$1,$4,$5*
1,1,$1+$1,$6,$7*
1,1,$1+$1,$8,$9*
0 Add four rect primitives between the rounded corners*
20,1,$1+$1,$2,$3,$4,$5,0*
20,1,$1+$1,$4,$5,$6,$7,0*
20,1,$1+$1,$6,$7,$8,$9,0*
20,1,$1+$1,$8,$9,$2,$3,0*%
%AMFreePoly0*
4,1,6,1.000000,0.000000,0.500000,-0.750000,-0.500000,-0.750000,-0.500000,0.750000,0.500000,0.750000,1.000000,0.000000,1.000000,0.000000,$1*%
%AMFreePoly1*
4,1,6,0.500000,-0.750000,-0.650000,-0.750000,-0.150000,0.000000,-0.650000,0.750000,0.500000,0.750000,0.500000,-0.750000,0.500000,-0.750000,$1*%
G04 Aperture macros list end*
%ADD10R,1.700000X1.700000*%
%ADD11C,1.700000*%
%ADD12RoundRect,0.250000X0.750000X-0.600000X0.750000X0.600000X-0.750000X0.600000X-0.750000X-0.600000X0*%
%ADD13O,2.000000X1.700000*%
%ADD14C,0.650000*%
%ADD15O,1.000000X2.100000*%
%ADD16O,1.000000X1.800000*%
%ADD17C,5.600000*%
%ADD18RoundRect,0.250000X-0.750000X0.600000X-0.750000X-0.600000X0.750000X-0.600000X0.750000X0.600000X0*%
%ADD19FreePoly0,270.000000*%
%ADD20FreePoly1,270.000000*%
%ADD21FreePoly0,90.000000*%
%ADD22FreePoly1,90.000000*%
G04 APERTURE END LIST*
%TO.C,JP2*%
G36*
X121250000Y-75575000D02*
G01*
X122750000Y-75575000D01*
X122750000Y-78025000D01*
X121250000Y-78025000D01*
X121250000Y-75575000D01*
G37*
%TO.C,JP1*%
G36*
X135550000Y-85475000D02*
G01*
X137050000Y-85475000D01*
X137050000Y-87925000D01*
X135550000Y-87925000D01*
X135550000Y-85475000D01*
G37*
%TD*%
D10*
%TO.C,J2*%
X112900000Y-48670000D03*
D11*
X115440000Y-48670000D03*
X112900000Y-46130000D03*
X115440000Y-46130000D03*
X112900000Y-43590000D03*
X115440000Y-43590000D03*
X112900000Y-41050000D03*
X115440000Y-41050000D03*
%TD*%
D10*
%TO.C,J6*%
X166025000Y-57675000D03*
D11*
X166025000Y-60215000D03*
X166025000Y-62755000D03*
X166025000Y-65295000D03*
X166025000Y-67835000D03*
X166025000Y-70375000D03*
%TD*%
D10*
%TO.C,J4*%
X146700000Y-33400000D03*
D11*
X144160000Y-33400000D03*
X141620000Y-33400000D03*
X139080000Y-33400000D03*
X136540000Y-33400000D03*
X134000000Y-33400000D03*
%TD*%
D10*
%TO.C,J7*%
X122025000Y-72000000D03*
D11*
X124565000Y-72000000D03*
%TD*%
D12*
%TO.C,J9*%
X163975000Y-78750000D03*
D13*
X163975000Y-76250000D03*
%TD*%
D14*
%TO.C,J5*%
X128860000Y-92575000D03*
X134640000Y-92575000D03*
D15*
X127430000Y-92075000D03*
D16*
X127430000Y-96255000D03*
D15*
X136070000Y-92075000D03*
D16*
X136070000Y-96255000D03*
%TD*%
D12*
%TO.C,J10*%
X163975000Y-88250000D03*
D13*
X163975000Y-85750000D03*
%TD*%
D17*
%TO.C,H1*%
X115000000Y-35000000D03*
%TD*%
D10*
%TO.C,J3*%
X113000000Y-69100000D03*
D11*
X113000000Y-66560000D03*
X113000000Y-64020000D03*
X113000000Y-61480000D03*
X113000000Y-58940000D03*
X113000000Y-56400000D03*
%TD*%
D17*
%TO.C,H3*%
X115000000Y-95000000D03*
%TD*%
%TO.C,H2*%
X165000000Y-35000000D03*
%TD*%
D18*
%TO.C,J8*%
X115000000Y-84500000D03*
D13*
X115000000Y-87000000D03*
%TD*%
D17*
%TO.C,H4*%
X165000000Y-95000000D03*
%TD*%
D19*
%TO.C,JP2*%
X122000000Y-76075000D03*
D20*
X122000000Y-77525000D03*
%TD*%
D21*
%TO.C,JP1*%
X136300000Y-87425000D03*
D22*
X136300000Y-85975000D03*
%TD*%
M02*
