M48
; DRILL file KiCad 10.0.0 date 2026-04-02T08:48:26
; FORMAT={-:-/ absolute / metric / decimal}
; #@! TF.CreationDate,2026-04-02T08:48:26+02:00
; #@! TF.GenerationSoftware,Kicad,Pcbnew,10.0.0
; #@! TF.FileFunction,Plated,1,4,PTH
FMAT,2
METRIC
; #@! TA.AperFunction,Plated,PTH,ViaDrill
T1C0.300
; #@! TA.AperFunction,Plated,PTH,ComponentDrill
T2C0.600
; #@! TA.AperFunction,Plated,PTH,ComponentDrill
T3C1.000
; #@! TA.AperFunction,Plated,PTH,ComponentDrill
T4C3.200
%
G90
G05
T1
X113.225Y-77.5
X116.245Y-51.29
X116.4Y-56.4
X116.57Y-52.56
X117.53Y-52.56
X117.795Y-51.29
X119.5Y-59.5
X121.6Y-75.9
X121.6Y-77.7
X122.4Y-75.9
X122.4Y-77.7
X122.5Y-50.7
X122.8Y-42.2
X123.0Y-45.1
X123.5Y-40.8
X123.9Y-43.6
X124.2Y-51.4
X124.2Y-77.475
X124.9Y-59.3
X125.8Y-77.475
X125.9Y-58.8
X125.9Y-62.1
X127.2Y-63.5
X127.6Y-51.5
X127.7Y-66.1
X128.0Y-52.5
X128.55Y-91.5
X128.6Y-58.6
X129.35Y-91.5
X129.7Y-71.09
X130.3Y-59.8
X130.5Y-88.79
X130.8Y-71.09
X131.9Y-71.09
X132.175Y-75.825
X132.4Y-73.0
X132.5Y-41.1
X132.5Y-48.1
X133.0Y-79.42
X133.0Y-80.38
X133.5Y-45.8
X133.5Y-71.09
X133.5Y-88.79
X133.7Y-44.8
X134.15Y-91.5
X134.5Y-81.275
X134.52Y-54.5
X134.54Y-55.5
X134.95Y-91.5
X135.48Y-54.5
X135.5Y-51.7
X135.5Y-55.5
X135.825Y-57.375
X135.9Y-85.8
X135.9Y-87.6
X136.3Y-52.4
X136.38Y-77.5
X136.7Y-85.8
X136.7Y-87.6
X137.2Y-56.0
X137.3Y-68.8
X137.7Y-60.6
X138.1Y-46.2
X138.34Y-48.9
X138.4Y-60.6
X138.4Y-72.2
X138.5Y-42.4
X139.0Y-69.5
X139.1Y-60.7
X139.3Y-48.9
X139.5Y-54.4
X139.6Y-53.1
X140.0Y-44.7
X140.0Y-48.5
X140.3Y-51.6
X140.5Y-45.4
X140.7Y-48.8
X141.0Y-67.0
X141.02Y-66.0
X141.2Y-53.8
X141.2Y-64.35
X141.31Y-71.4
X141.31Y-72.9
X141.5Y-40.1
X141.96Y-67.0
X141.98Y-66.0
X142.0Y-53.6
X142.0Y-64.35
X142.29Y-47.64
X142.29Y-48.6
X142.8Y-64.35
X144.175Y-62.975
X144.52Y-64.5
X144.7Y-51.6
X145.48Y-64.5
X146.3Y-60.5
X146.575Y-75.4
X146.588Y-78.8
X147.1Y-83.6
X147.1Y-85.5
X147.19Y-81.9
X147.19Y-87.8
X148.1Y-63.8
X148.6Y-67.8
X149.2Y-81.9
X149.5Y-64.9
X149.9Y-87.0
X150.2Y-84.68
X150.3Y-63.8
X150.3Y-68.4
X151.1Y-83.775
X151.1Y-87.4
X152.99Y-76.2
X153.1Y-72.4
X153.1Y-74.675
X153.52Y-70.5
X153.95Y-76.2
X154.0Y-82.3
X154.0Y-83.5
X154.0Y-84.7
X154.0Y-85.9
X154.05Y-74.675
X154.48Y-70.5
X155.0Y-74.675
X155.0Y-82.3
X155.0Y-83.5
X155.0Y-84.7
X155.0Y-85.9
X156.0Y-82.3
X156.0Y-83.5
X156.0Y-84.7
X156.0Y-85.9
X157.45Y-87.45
X157.862Y-83.125
X157.862Y-85.075
X157.862Y-86.375
X158.41Y-87.45
X158.6Y-41.3
X159.7Y-77.5
X166.1Y-42.47
X166.1Y-45.01
X166.1Y-46.28
X166.1Y-47.55
T3
X112.9Y-41.05
X112.9Y-43.59
X112.9Y-46.13
X112.9Y-48.67
X113.0Y-56.4
X113.0Y-58.94
X113.0Y-61.48
X113.0Y-64.02
X113.0Y-66.56
X113.0Y-69.1
X115.0Y-84.5
X115.0Y-87.0
X115.44Y-41.05
X115.44Y-43.59
X115.44Y-46.13
X115.44Y-48.67
X122.025Y-72.0
X124.565Y-72.0
X134.0Y-33.4
X136.54Y-33.4
X139.08Y-33.4
X141.62Y-33.4
X144.16Y-33.4
X146.7Y-33.4
X163.975Y-76.25
X163.975Y-78.75
X163.975Y-85.75
X163.975Y-88.25
X166.025Y-57.675
X166.025Y-60.215
X166.025Y-62.755
X166.025Y-65.295
X166.025Y-67.835
X166.025Y-70.375
T4
X115.0Y-35.0
X115.0Y-95.0
X165.0Y-35.0
X165.0Y-95.0
T2
G00X127.43Y-91.525
M15
G01X127.43Y-92.625
M16
G05
G00X127.43Y-95.855
M15
G01X127.43Y-96.655
M16
G05
G00X136.07Y-91.525
M15
G01X136.07Y-92.625
M16
G05
G00X136.07Y-95.855
M15
G01X136.07Y-96.655
M16
G05
M30
