%TF.GenerationSoftware,KiCad,Pcbnew,10.0.0*%
%TF.CreationDate,2026-04-02T08:48:31+02:00*%
%TF.ProjectId,projet electronique PCBot,70726f6a-6574-4206-956c-656374726f6e,rev?*%
%TF.SameCoordinates,Original*%
%TF.FileFunction,Soldermask,Top*%
%TF.FilePolarity,Negative*%
%FSLAX46Y46*%
G04 Gerber Fmt 4.6, Leading zero omitted, Abs format (unit mm)*
G04 Created by KiCad (PCBNEW 10.0.0) date 2026-04-02 08:48:31*
%MOMM*%
%LPD*%
G01*
G04 APERTURE LIST*
G04 Aperture macros list*
%AMRoundRect*
0 Rectangle with rounded corners*
0 $1 Rounding radius*
0 $2 $3 $4 $5 $6 $7 $8 $9 X,Y pos of 4 corners*
0 Add a 4 corners polygon primitive as box body*
4,1,4,$2,$3,$4,$5,$6,$7,$8,$9,$2,$3,0*
0 Add four circle primitives for the rounded corners*
1,1,$1+$1,$2,$3*
1,1,$1+$1,$4,$5*
1,1,$1+$1,$6,$7*
1,1,$1+$1,$8,$9*
0 Add four rect primitives between the rounded corners*
20,1,$1+$1,$2,$3,$4,$5,0*
20,1,$1+$1,$4,$5,$6,$7,0*
20,1,$1+$1,$6,$7,$8,$9,0*
20,1,$1+$1,$8,$9,$2,$3,0*%
G04 Aperture macros list end*
%ADD10R,1.700000X1.700000*%
%ADD11C,1.700000*%
%ADD12RoundRect,0.140000X-0.140000X-0.170000X0.140000X-0.170000X0.140000X0.170000X-0.140000X0.170000X0*%
%ADD13RoundRect,0.225000X-0.250000X0.225000X-0.250000X-0.225000X0.250000X-0.225000X0.250000X0.225000X0*%
%ADD14RoundRect,0.150000X0.150000X-0.512500X0.150000X0.512500X-0.150000X0.512500X-0.150000X-0.512500X0*%
%ADD15RoundRect,0.135000X-0.185000X0.135000X-0.185000X-0.135000X0.185000X-0.135000X0.185000X0.135000X0*%
%ADD16R,2.460000X2.310000*%
%ADD17RoundRect,0.100000X0.687500X0.100000X-0.687500X0.100000X-0.687500X-0.100000X0.687500X-0.100000X0*%
%ADD18R,2.400000X0.740000*%
%ADD19RoundRect,0.225000X0.250000X-0.225000X0.250000X0.225000X-0.250000X0.225000X-0.250000X-0.225000X0*%
%ADD20RoundRect,0.250000X0.750000X-0.600000X0.750000X0.600000X-0.750000X0.600000X-0.750000X-0.600000X0*%
%ADD21O,2.000000X1.700000*%
%ADD22RoundRect,0.218750X-0.218750X-0.256250X0.218750X-0.256250X0.218750X0.256250X-0.218750X0.256250X0*%
%ADD23RoundRect,0.140000X0.140000X0.170000X-0.140000X0.170000X-0.140000X-0.170000X0.140000X-0.170000X0*%
%ADD24RoundRect,0.135000X0.185000X-0.135000X0.185000X0.135000X-0.185000X0.135000X-0.185000X-0.135000X0*%
%ADD25RoundRect,0.140000X-0.170000X0.140000X-0.170000X-0.140000X0.170000X-0.140000X0.170000X0.140000X0*%
%ADD26RoundRect,0.225000X-0.225000X-0.250000X0.225000X-0.250000X0.225000X0.250000X-0.225000X0.250000X0*%
%ADD27C,0.650000*%
%ADD28RoundRect,0.150000X-0.150000X-0.425000X0.150000X-0.425000X0.150000X0.425000X-0.150000X0.425000X0*%
%ADD29RoundRect,0.075000X-0.075000X-0.500000X0.075000X-0.500000X0.075000X0.500000X-0.075000X0.500000X0*%
%ADD30RoundRect,0.125000X-0.125000X-0.450000X0.125000X-0.450000X0.125000X0.450000X-0.125000X0.450000X0*%
%ADD31O,1.000000X2.100000*%
%ADD32O,1.000000X1.800000*%
%ADD33RoundRect,0.135000X-0.135000X-0.185000X0.135000X-0.185000X0.135000X0.185000X-0.135000X0.185000X0*%
%ADD34RoundRect,0.125000X-0.625000X-0.125000X0.625000X-0.125000X0.625000X0.125000X-0.625000X0.125000X0*%
%ADD35RoundRect,0.125000X-0.125000X-0.625000X0.125000X-0.625000X0.125000X0.625000X-0.125000X0.625000X0*%
%ADD36RoundRect,0.225000X0.225000X0.250000X-0.225000X0.250000X-0.225000X-0.250000X0.225000X-0.250000X0*%
%ADD37RoundRect,0.135000X0.135000X0.185000X-0.135000X0.185000X-0.135000X-0.185000X0.135000X-0.185000X0*%
%ADD38RoundRect,0.087500X-0.225000X-0.087500X0.225000X-0.087500X0.225000X0.087500X-0.225000X0.087500X0*%
%ADD39RoundRect,0.087500X-0.087500X-0.225000X0.087500X-0.225000X0.087500X0.225000X-0.087500X0.225000X0*%
%ADD40RoundRect,0.062500X0.350000X0.062500X-0.350000X0.062500X-0.350000X-0.062500X0.350000X-0.062500X0*%
%ADD41RoundRect,0.062500X0.062500X0.350000X-0.062500X0.350000X-0.062500X-0.350000X0.062500X-0.350000X0*%
%ADD42R,2.700000X2.700000*%
%ADD43C,5.600000*%
%ADD44RoundRect,0.250000X-0.475000X0.250000X-0.475000X-0.250000X0.475000X-0.250000X0.475000X0.250000X0*%
%ADD45RoundRect,0.250000X-0.750000X0.600000X-0.750000X-0.600000X0.750000X-0.600000X0.750000X0.600000X0*%
%ADD46RoundRect,0.250000X0.850000X-0.375000X0.850000X0.375000X-0.850000X0.375000X-0.850000X-0.375000X0*%
G04 APERTURE END LIST*
D10*
%TO.C,J2*%
X112900000Y-48670000D03*
D11*
X115440000Y-48670000D03*
X112900000Y-46130000D03*
X115440000Y-46130000D03*
X112900000Y-43590000D03*
X115440000Y-43590000D03*
X112900000Y-41050000D03*
X115440000Y-41050000D03*
%TD*%
D12*
%TO.C,C10*%
X131020000Y-79500000D03*
X131980000Y-79500000D03*
%TD*%
D13*
%TO.C,C13*%
X125800000Y-75925000D03*
X125800000Y-77475000D03*
%TD*%
D10*
%TO.C,J6*%
X166025000Y-57675000D03*
D11*
X166025000Y-60215000D03*
X166025000Y-62755000D03*
X166025000Y-65295000D03*
X166025000Y-67835000D03*
X166025000Y-70375000D03*
%TD*%
D10*
%TO.C,J4*%
X146700000Y-33400000D03*
D11*
X144160000Y-33400000D03*
X141620000Y-33400000D03*
X139080000Y-33400000D03*
X136540000Y-33400000D03*
X134000000Y-33400000D03*
%TD*%
D14*
%TO.C,U3*%
X153100000Y-74675000D03*
X154050000Y-74675000D03*
X155000000Y-74675000D03*
X155000000Y-72400000D03*
X153100000Y-72400000D03*
%TD*%
D10*
%TO.C,J7*%
X122025000Y-72000000D03*
D11*
X124565000Y-72000000D03*
%TD*%
D15*
%TO.C,R13*%
X157800000Y-79290000D03*
X157800000Y-80310000D03*
%TD*%
D13*
%TO.C,C12*%
X124200000Y-75925000D03*
X124200000Y-77475000D03*
%TD*%
D16*
%TO.C,U4*%
X155000000Y-84100000D03*
D17*
X157862500Y-86375000D03*
X157862500Y-85725000D03*
X157862500Y-85075000D03*
X157862500Y-84425000D03*
X157862500Y-83775000D03*
X157862500Y-83125000D03*
X157862500Y-82475000D03*
X157862500Y-81825000D03*
X152137500Y-81825000D03*
X152137500Y-82475000D03*
X152137500Y-83125000D03*
X152137500Y-83775000D03*
X152137500Y-84425000D03*
X152137500Y-85075000D03*
X152137500Y-85725000D03*
X152137500Y-86375000D03*
%TD*%
D18*
%TO.C,J1*%
X166100000Y-48820000D03*
X162200000Y-48820000D03*
X166100000Y-47550000D03*
X162200000Y-47550000D03*
X166100000Y-46280000D03*
X162200000Y-46280000D03*
X166100000Y-45010000D03*
X162200000Y-45010000D03*
X166100000Y-43740000D03*
X162200000Y-43740000D03*
X166100000Y-42470000D03*
X162200000Y-42470000D03*
X166100000Y-41200000D03*
X162200000Y-41200000D03*
%TD*%
D19*
%TO.C,C11*%
X134500000Y-81275000D03*
X134500000Y-79725000D03*
%TD*%
D20*
%TO.C,J9*%
X163975000Y-78750000D03*
D21*
X163975000Y-76250000D03*
%TD*%
D22*
%TO.C,D1*%
X145012500Y-78800000D03*
X146587500Y-78800000D03*
%TD*%
D23*
%TO.C,C3*%
X141980000Y-66000000D03*
X141020000Y-66000000D03*
%TD*%
D24*
%TO.C,R1*%
X133500000Y-89810000D03*
X133500000Y-88790000D03*
%TD*%
D25*
%TO.C,C6*%
X142290000Y-47640000D03*
X142290000Y-48600000D03*
%TD*%
D22*
%TO.C,D2*%
X145000000Y-75400000D03*
X146575000Y-75400000D03*
%TD*%
D12*
%TO.C,C18*%
X157450000Y-87450000D03*
X158410000Y-87450000D03*
%TD*%
D26*
%TO.C,C7*%
X116245000Y-51290000D03*
X117795000Y-51290000D03*
%TD*%
D27*
%TO.C,J5*%
X128860000Y-92575000D03*
X134640000Y-92575000D03*
D28*
X128550000Y-91500000D03*
X129350000Y-91500000D03*
D29*
X130500000Y-91500000D03*
X131500000Y-91500000D03*
X132000000Y-91500000D03*
X133000000Y-91500000D03*
D28*
X134150000Y-91500000D03*
D30*
X134900000Y-91500000D03*
D28*
X134950000Y-91500000D03*
X134150000Y-91500000D03*
D29*
X133500000Y-91500000D03*
X132500000Y-91500000D03*
X131000000Y-91500000D03*
X130000000Y-91500000D03*
D28*
X129350000Y-91500000D03*
X128550000Y-91500000D03*
D31*
X127430000Y-92075000D03*
D32*
X127430000Y-96255000D03*
D31*
X136070000Y-92075000D03*
D32*
X136070000Y-96255000D03*
%TD*%
D33*
%TO.C,R12*%
X147190000Y-87800000D03*
X148210000Y-87800000D03*
%TD*%
D34*
%TO.C,U1*%
X135825000Y-57375000D03*
X135825000Y-58175000D03*
X135825000Y-58975000D03*
X135825000Y-59775000D03*
X135825000Y-60575000D03*
X135825000Y-61375000D03*
X135825000Y-62175000D03*
X135825000Y-62975000D03*
D35*
X137200000Y-64350000D03*
X138000000Y-64350000D03*
X138800000Y-64350000D03*
X139600000Y-64350000D03*
X140400000Y-64350000D03*
X141200000Y-64350000D03*
X142000000Y-64350000D03*
X142800000Y-64350000D03*
D34*
X144175000Y-62975000D03*
X144175000Y-62175000D03*
X144175000Y-61375000D03*
X144175000Y-60575000D03*
X144175000Y-59775000D03*
X144175000Y-58975000D03*
X144175000Y-58175000D03*
X144175000Y-57375000D03*
D35*
X142800000Y-56000000D03*
X142000000Y-56000000D03*
X141200000Y-56000000D03*
X140400000Y-56000000D03*
X139600000Y-56000000D03*
X138800000Y-56000000D03*
X138000000Y-56000000D03*
X137200000Y-56000000D03*
%TD*%
D24*
%TO.C,R10*%
X129700000Y-72110000D03*
X129700000Y-71090000D03*
%TD*%
D36*
%TO.C,C15*%
X114775000Y-77500000D03*
X113225000Y-77500000D03*
%TD*%
D15*
%TO.C,R9*%
X130800000Y-71090000D03*
X130800000Y-72110000D03*
%TD*%
D37*
%TO.C,R5*%
X141310000Y-71400000D03*
X140290000Y-71400000D03*
%TD*%
D38*
%TO.C,U5*%
X138837500Y-46162500D03*
X138837500Y-46662500D03*
X138837500Y-47162500D03*
X138837500Y-47662500D03*
D39*
X139500000Y-47825000D03*
X140000000Y-47825000D03*
X140500000Y-47825000D03*
D38*
X141162500Y-47662500D03*
X141162500Y-47162500D03*
X141162500Y-46662500D03*
X141162500Y-46162500D03*
D39*
X140500000Y-46000000D03*
X140000000Y-46000000D03*
X139500000Y-46000000D03*
%TD*%
D25*
%TO.C,C19*%
X150200000Y-83720000D03*
X150200000Y-84680000D03*
%TD*%
D12*
%TO.C,C1*%
X134520000Y-54500000D03*
X135480000Y-54500000D03*
%TD*%
D24*
%TO.C,R2*%
X130500000Y-89810000D03*
X130500000Y-88790000D03*
%TD*%
D12*
%TO.C,C2*%
X134540000Y-55500000D03*
X135500000Y-55500000D03*
%TD*%
D20*
%TO.C,J10*%
X163975000Y-88250000D03*
D21*
X163975000Y-85750000D03*
%TD*%
D33*
%TO.C,R4*%
X136905000Y-74862500D03*
X137925000Y-74862500D03*
%TD*%
D40*
%TO.C,U2*%
X134137500Y-77075000D03*
X134137500Y-76575000D03*
X134137500Y-76075000D03*
X134137500Y-75575000D03*
X134137500Y-75075000D03*
X134137500Y-74575000D03*
D41*
X133425000Y-73862500D03*
X132925000Y-73862500D03*
X132425000Y-73862500D03*
X131925000Y-73862500D03*
X131425000Y-73862500D03*
X130925000Y-73862500D03*
D40*
X130212500Y-74575000D03*
X130212500Y-75075000D03*
X130212500Y-75575000D03*
X130212500Y-76075000D03*
X130212500Y-76575000D03*
X130212500Y-77075000D03*
D41*
X130925000Y-77787500D03*
X131425000Y-77787500D03*
X131925000Y-77787500D03*
X132425000Y-77787500D03*
X132925000Y-77787500D03*
X133425000Y-77787500D03*
D42*
X132175000Y-75825000D03*
%TD*%
D12*
%TO.C,C8*%
X116570000Y-52560000D03*
X117530000Y-52560000D03*
%TD*%
%TO.C,C16*%
X152990000Y-76200000D03*
X153950000Y-76200000D03*
%TD*%
D23*
%TO.C,C21*%
X145480000Y-64500000D03*
X144520000Y-64500000D03*
%TD*%
D25*
%TO.C,C14*%
X133000000Y-79420000D03*
X133000000Y-80380000D03*
%TD*%
D43*
%TO.C,H1*%
X115000000Y-35000000D03*
%TD*%
D10*
%TO.C,J3*%
X113000000Y-69100000D03*
D11*
X113000000Y-66560000D03*
X113000000Y-64020000D03*
X113000000Y-61480000D03*
X113000000Y-58940000D03*
X113000000Y-56400000D03*
%TD*%
D37*
%TO.C,R3*%
X138435000Y-79862500D03*
X137415000Y-79862500D03*
%TD*%
D43*
%TO.C,H3*%
X115000000Y-95000000D03*
%TD*%
D12*
%TO.C,C5*%
X138340000Y-48900000D03*
X139300000Y-48900000D03*
%TD*%
D44*
%TO.C,C20*%
X147100000Y-83600000D03*
X147100000Y-85500000D03*
%TD*%
D15*
%TO.C,R8*%
X133500000Y-71090000D03*
X133500000Y-72110000D03*
%TD*%
D33*
%TO.C,R11*%
X147190000Y-81900000D03*
X148210000Y-81900000D03*
%TD*%
D43*
%TO.C,H2*%
X165000000Y-35000000D03*
%TD*%
D45*
%TO.C,J8*%
X115000000Y-84500000D03*
D21*
X115000000Y-87000000D03*
%TD*%
D37*
%TO.C,R6*%
X141310000Y-72900000D03*
X140290000Y-72900000D03*
%TD*%
D46*
%TO.C,L1*%
X128000000Y-78075000D03*
X128000000Y-75925000D03*
%TD*%
D15*
%TO.C,R7*%
X131900000Y-71090000D03*
X131900000Y-72110000D03*
%TD*%
D12*
%TO.C,C17*%
X153520000Y-70500000D03*
X154480000Y-70500000D03*
%TD*%
D43*
%TO.C,H4*%
X165000000Y-95000000D03*
%TD*%
D12*
%TO.C,C9*%
X135420000Y-77500000D03*
X136380000Y-77500000D03*
%TD*%
D23*
%TO.C,C4*%
X141960000Y-67000000D03*
X141000000Y-67000000D03*
%TD*%
M02*
