%TF.GenerationSoftware,KiCad,Pcbnew,10.0.0*%
%TF.CreationDate,2026-04-02T08:48:31+02:00*%
%TF.ProjectId,projet electronique PCBot,70726f6a-6574-4206-956c-656374726f6e,rev?*%
%TF.SameCoordinates,Original*%
%TF.FileFunction,Copper,L2,Inr*%
%TF.FilePolarity,Positive*%
%FSLAX46Y46*%
G04 Gerber Fmt 4.6, Leading zero omitted, Abs format (unit mm)*
G04 Created by KiCad (PCBNEW 10.0.0) date 2026-04-02 08:48:31*
%MOMM*%
%LPD*%
G01*
G04 APERTURE LIST*
G04 Aperture macros list*
%AMRoundRect*
0 Rectangle with rounded corners*
0 $1 Rounding radius*
0 $2 $3 $4 $5 $6 $7 $8 $9 X,Y pos of 4 corners*
0 Add a 4 corners polygon primitive as box body*
4,1,4,$2,$3,$4,$5,$6,$7,$8,$9,$2,$3,0*
0 Add four circle primitives for the rounded corners*
1,1,$1+$1,$2,$3*
1,1,$1+$1,$4,$5*
1,1,$1+$1,$6,$7*
1,1,$1+$1,$8,$9*
0 Add four rect primitives between the rounded corners*
20,1,$1+$1,$2,$3,$4,$5,0*
20,1,$1+$1,$4,$5,$6,$7,0*
20,1,$1+$1,$6,$7,$8,$9,0*
20,1,$1+$1,$8,$9,$2,$3,0*%
G04 Aperture macros list end*
%TA.AperFunction,ComponentPad*%
%ADD10R,1.700000X1.700000*%
%TD*%
%TA.AperFunction,ComponentPad*%
%ADD11C,1.700000*%
%TD*%
%TA.AperFunction,ComponentPad*%
%ADD12RoundRect,0.250000X0.750000X-0.600000X0.750000X0.600000X-0.750000X0.600000X-0.750000X-0.600000X0*%
%TD*%
%TA.AperFunction,ComponentPad*%
%ADD13O,2.000000X1.700000*%
%TD*%
%TA.AperFunction,HeatsinkPad*%
%ADD14O,1.000000X2.100000*%
%TD*%
%TA.AperFunction,HeatsinkPad*%
%ADD15O,1.000000X1.800000*%
%TD*%
%TA.AperFunction,ComponentPad*%
%ADD16C,5.600000*%
%TD*%
%TA.AperFunction,ComponentPad*%
%ADD17RoundRect,0.250000X-0.750000X0.600000X-0.750000X-0.600000X0.750000X-0.600000X0.750000X0.600000X0*%
%TD*%
%TA.AperFunction,ViaPad*%
%ADD18C,0.450000*%
%TD*%
G04 APERTURE END LIST*
D10*
%TO.N,GND*%
%TO.C,J2*%
X112900000Y-48670000D03*
D11*
%TO.N,+3.3V*%
X115440000Y-48670000D03*
%TO.N,/Capteur/CE*%
X112900000Y-46130000D03*
%TO.N,/Capteur/CSN*%
X115440000Y-46130000D03*
%TO.N,/Capteur/SCK*%
X112900000Y-43590000D03*
%TO.N,/Capteur/MOSI*%
X115440000Y-43590000D03*
%TO.N,/Capteur/MISO*%
X112900000Y-41050000D03*
%TO.N,/Capteur/IRQ*%
X115440000Y-41050000D03*
%TD*%
D10*
%TO.N,+3.3V*%
%TO.C,J6*%
X166025000Y-57675000D03*
D11*
%TO.N,GND*%
X166025000Y-60215000D03*
%TO.N,/Capteur/SCL*%
X166025000Y-62755000D03*
%TO.N,/Capteur/SDA*%
X166025000Y-65295000D03*
%TO.N,unconnected-(J6-GPIO1-Pad5)*%
X166025000Y-67835000D03*
%TO.N,/Capteur/TOF2_XSHUT*%
X166025000Y-70375000D03*
%TD*%
D10*
%TO.N,+3.3V*%
%TO.C,J4*%
X146700000Y-33400000D03*
D11*
%TO.N,GND*%
X144160000Y-33400000D03*
%TO.N,/Capteur/SCL*%
X141620000Y-33400000D03*
%TO.N,/Capteur/SDA*%
X139080000Y-33400000D03*
%TO.N,unconnected-(J4-GPIO1-Pad5)*%
X136540000Y-33400000D03*
%TO.N,/Capteur/TOF3_XSHUT*%
X134000000Y-33400000D03*
%TD*%
D10*
%TO.N,GND*%
%TO.C,J7*%
X122025000Y-72000000D03*
D11*
%TO.N,Net-(J7-Pin_2)*%
X124565000Y-72000000D03*
%TD*%
D12*
%TO.N,/Driver/BOUT2*%
%TO.C,J9*%
X163975000Y-78750000D03*
D13*
%TO.N,/Driver/BOUT1*%
X163975000Y-76250000D03*
%TD*%
D14*
%TO.N,GND*%
%TO.C,J5*%
X127430000Y-92075000D03*
D15*
X127430000Y-96255000D03*
D14*
X136070000Y-92075000D03*
D15*
X136070000Y-96255000D03*
%TD*%
D12*
%TO.N,/Driver/AOUT1*%
%TO.C,J10*%
X163975000Y-88250000D03*
D13*
%TO.N,/Driver/AOUT2*%
X163975000Y-85750000D03*
%TD*%
D16*
%TO.N,GND*%
%TO.C,H1*%
X115000000Y-35000000D03*
%TD*%
D10*
%TO.N,+3.3V*%
%TO.C,J3*%
X113000000Y-69100000D03*
D11*
%TO.N,GND*%
X113000000Y-66560000D03*
%TO.N,/Capteur/SCL*%
X113000000Y-64020000D03*
%TO.N,/Capteur/SDA*%
X113000000Y-61480000D03*
%TO.N,unconnected-(J3-GPIO1-Pad5)*%
X113000000Y-58940000D03*
%TO.N,/Capteur/TOF1_XSHUT*%
X113000000Y-56400000D03*
%TD*%
D16*
%TO.N,GND*%
%TO.C,H3*%
X115000000Y-95000000D03*
%TD*%
%TO.N,GND*%
%TO.C,H2*%
X165000000Y-35000000D03*
%TD*%
D17*
%TO.N,Net-(J8-Pin_1)*%
%TO.C,J8*%
X115000000Y-84500000D03*
D13*
%TO.N,GND*%
X115000000Y-87000000D03*
%TD*%
D16*
%TO.N,GND*%
%TO.C,H4*%
X165000000Y-95000000D03*
%TD*%
D18*
%TO.N,+3.3V*%
X140500000Y-45400000D03*
X153100000Y-72400000D03*
X134540000Y-55500000D03*
X144175000Y-62975000D03*
X116570000Y-52560000D03*
X157862500Y-86375000D03*
X133500000Y-71090000D03*
X145480000Y-64500000D03*
X166100000Y-47550000D03*
X141310000Y-71400000D03*
X116245000Y-51290000D03*
X142000000Y-64350000D03*
X134520000Y-54500000D03*
X141310000Y-72900000D03*
X135825000Y-57375000D03*
X139300000Y-48900000D03*
X159700000Y-77500000D03*
X141960000Y-67000000D03*
X141980000Y-66000000D03*
X158410000Y-87450000D03*
X142290000Y-47640000D03*
X153520000Y-70500000D03*
%TO.N,GND*%
X131900000Y-71090000D03*
X141000000Y-67000000D03*
X154000000Y-84700000D03*
X155000000Y-82300000D03*
X133000000Y-80380000D03*
X141200000Y-64350000D03*
X135500000Y-55500000D03*
X117795000Y-51290000D03*
X136380000Y-77500000D03*
X154480000Y-70500000D03*
X166100000Y-42470000D03*
X135480000Y-54500000D03*
X130500000Y-88790000D03*
X144520000Y-64500000D03*
X157450000Y-87450000D03*
X157862500Y-83125000D03*
X157862500Y-85075000D03*
X156000000Y-83500000D03*
X154000000Y-83500000D03*
X128550000Y-91500000D03*
X138340000Y-48900000D03*
X150200000Y-84680000D03*
X140700000Y-48800000D03*
X140000000Y-48500000D03*
X124200000Y-77475000D03*
X133500000Y-88790000D03*
X156000000Y-82300000D03*
X141020000Y-66000000D03*
X125800000Y-77475000D03*
X138100000Y-46200000D03*
X155000000Y-83500000D03*
X156000000Y-85900000D03*
X147190000Y-87800000D03*
X134500000Y-81275000D03*
X154050000Y-74675000D03*
X166100000Y-45010000D03*
X156000000Y-84700000D03*
X147190000Y-81900000D03*
X155000000Y-84700000D03*
X147100000Y-85500000D03*
X155000000Y-85900000D03*
X166100000Y-46280000D03*
X137200000Y-56000000D03*
X142290000Y-48600000D03*
X117530000Y-52560000D03*
X154000000Y-82300000D03*
X153950000Y-76200000D03*
X134950000Y-91500000D03*
X132175000Y-75825000D03*
X142800000Y-64350000D03*
X113225000Y-77500000D03*
X154000000Y-85900000D03*
X129700000Y-71090000D03*
%TO.N,/Gestion d'energie/VBUS_TO_BQ*%
X135900000Y-85800000D03*
X136700000Y-85800000D03*
%TO.N,Net-(JP2-A)*%
X121600000Y-75900000D03*
X122400000Y-75900000D03*
%TO.N,Net-(U2-REGN)*%
X130800000Y-71090000D03*
X133000000Y-79420000D03*
%TO.N,/Gestion d'energie/SYS*%
X155000000Y-74675000D03*
X122400000Y-77700000D03*
X151100000Y-83775000D03*
X121600000Y-77700000D03*
X153100000Y-74675000D03*
X146587500Y-78800000D03*
X146575000Y-75400000D03*
X147100000Y-83600000D03*
X152990000Y-76200000D03*
%TO.N,/STM32/USART2_TX*%
X158600000Y-41300000D03*
X142000000Y-53600000D03*
%TO.N,/STM32/NRST*%
X133700000Y-44800000D03*
X130300000Y-59800000D03*
X141500000Y-40100000D03*
X124200000Y-51400000D03*
%TO.N,/Capteur/MOSI*%
X138400000Y-60600000D03*
X123900000Y-43600000D03*
%TO.N,/Capteur/SCK*%
X123000000Y-45100000D03*
X137700000Y-60600000D03*
%TO.N,/Capteur/CE*%
X140300000Y-51600000D03*
X127600000Y-51500000D03*
X135500000Y-51700000D03*
X144700000Y-51600000D03*
X146300000Y-60500000D03*
X122500000Y-50700000D03*
%TO.N,/Capteur/CSN*%
X138500000Y-42400000D03*
X141200000Y-53800000D03*
%TO.N,/Capteur/IRQ*%
X123500000Y-40800000D03*
X139500000Y-54400000D03*
%TO.N,/Capteur/MISO*%
X122800000Y-42200000D03*
X139100000Y-60700000D03*
%TO.N,/Capteur/TOF1_XSHUT*%
X119500000Y-59500000D03*
X116400000Y-56400000D03*
%TO.N,/Capteur/TOF3_XSHUT*%
X132500000Y-41100000D03*
X132500000Y-48100000D03*
%TO.N,/Capteur/TOF2_XSHUT*%
X149500000Y-64900000D03*
X148600000Y-67800000D03*
%TO.N,/Gestion d'energie/VBUS*%
X136700000Y-87600000D03*
X135900000Y-87600000D03*
X134150000Y-91500000D03*
X129350000Y-91500000D03*
%TO.N,/Capteur/SDA*%
X128600000Y-58600000D03*
X124900000Y-59300000D03*
X139000000Y-69500000D03*
X137300000Y-68800000D03*
%TO.N,/Capteur/SCL*%
X138400000Y-72200000D03*
X140000000Y-44700000D03*
X133500000Y-45800000D03*
%TO.N,/Gestion d'energie/~{CE}*%
X128000000Y-52500000D03*
X136300000Y-52400000D03*
X127200000Y-63500000D03*
X139600000Y-53100000D03*
X125900000Y-62100000D03*
X127700000Y-66100000D03*
X125900000Y-58800000D03*
X132400000Y-73000000D03*
%TO.N,/Driver/TIM1_CH1*%
X149200000Y-81900000D03*
X151100000Y-87400000D03*
%TO.N,/Driver/TIM1_CH1N*%
X149900000Y-87000000D03*
X148100000Y-63800000D03*
%TO.N,/Driver/TIM1_CH2N*%
X150300000Y-68400000D03*
X150300000Y-63800000D03*
%TD*%
%TA.AperFunction,Conductor*%
%TO.N,GND*%
G36*
X165002562Y-30000605D02*
G01*
X165370277Y-30015814D01*
X165375906Y-30016177D01*
X165459930Y-30023528D01*
X165468767Y-30026985D01*
X165786065Y-30064100D01*
X165793172Y-30065141D01*
X165871766Y-30078999D01*
X165875594Y-30079737D01*
X166199008Y-30147549D01*
X166205622Y-30149128D01*
X166274576Y-30167604D01*
X166277787Y-30168512D01*
X166603169Y-30265383D01*
X166610157Y-30267692D01*
X166664056Y-30287310D01*
X166666678Y-30288299D01*
X166996425Y-30416967D01*
X167003729Y-30420089D01*
X167034837Y-30434595D01*
X167036641Y-30435458D01*
X167374902Y-30600823D01*
X167383883Y-30605683D01*
X167712999Y-30801794D01*
X167730070Y-30811966D01*
X167738649Y-30817572D01*
X168066587Y-31051714D01*
X168074669Y-31058005D01*
X168382155Y-31318433D01*
X168389695Y-31325374D01*
X168674625Y-31610304D01*
X168681566Y-31617844D01*
X168920540Y-31900000D01*
X168941994Y-31925330D01*
X168948289Y-31933418D01*
X169182427Y-32261350D01*
X169188033Y-32269929D01*
X169394309Y-32616105D01*
X169399186Y-32625119D01*
X169564467Y-32963206D01*
X169565450Y-32965262D01*
X169579902Y-32996255D01*
X169583036Y-33003584D01*
X169711691Y-33333300D01*
X169712696Y-33335964D01*
X169732299Y-33389822D01*
X169734622Y-33396851D01*
X169831475Y-33722173D01*
X169832405Y-33725462D01*
X169850867Y-33794364D01*
X169852453Y-33801010D01*
X169920250Y-34124350D01*
X169921005Y-34128265D01*
X169934854Y-34206807D01*
X169935786Y-34213001D01*
X169975990Y-34535538D01*
X169976470Y-34540069D01*
X169983819Y-34624067D01*
X169984185Y-34629749D01*
X169999394Y-34997437D01*
X169999500Y-35002562D01*
X169999500Y-94997437D01*
X169999394Y-95002562D01*
X169984185Y-95370249D01*
X169983819Y-95375931D01*
X169976470Y-95459929D01*
X169975990Y-95464460D01*
X169935786Y-95786997D01*
X169934854Y-95793191D01*
X169921005Y-95871733D01*
X169920250Y-95875648D01*
X169852453Y-96198988D01*
X169850867Y-96205634D01*
X169832405Y-96274536D01*
X169831475Y-96277825D01*
X169734622Y-96603147D01*
X169732299Y-96610176D01*
X169712696Y-96664034D01*
X169711691Y-96666698D01*
X169583036Y-96996414D01*
X169579902Y-97003743D01*
X169565471Y-97034691D01*
X169564489Y-97036747D01*
X169399182Y-97374889D01*
X169394304Y-97383903D01*
X169188033Y-97730070D01*
X169182427Y-97738649D01*
X168948289Y-98066581D01*
X168941994Y-98074669D01*
X168681566Y-98382155D01*
X168674625Y-98389695D01*
X168389695Y-98674625D01*
X168382155Y-98681566D01*
X168074669Y-98941994D01*
X168066581Y-98948289D01*
X167738649Y-99182427D01*
X167730070Y-99188033D01*
X167383903Y-99394304D01*
X167374889Y-99399182D01*
X167036747Y-99564489D01*
X167034691Y-99565471D01*
X167003743Y-99579902D01*
X166996414Y-99583036D01*
X166666698Y-99711691D01*
X166664034Y-99712696D01*
X166610176Y-99732299D01*
X166603147Y-99734622D01*
X166277825Y-99831475D01*
X166274536Y-99832405D01*
X166205634Y-99850867D01*
X166198988Y-99852453D01*
X165875648Y-99920250D01*
X165871733Y-99921005D01*
X165793191Y-99934854D01*
X165786997Y-99935786D01*
X165464460Y-99975990D01*
X165459929Y-99976470D01*
X165375931Y-99983819D01*
X165370249Y-99984185D01*
X165002563Y-99999394D01*
X164997438Y-99999500D01*
X115002562Y-99999500D01*
X114997437Y-99999394D01*
X114629749Y-99984185D01*
X114624067Y-99983819D01*
X114540069Y-99976470D01*
X114535538Y-99975990D01*
X114213001Y-99935786D01*
X114206807Y-99934854D01*
X114128265Y-99921005D01*
X114124350Y-99920250D01*
X113801010Y-99852453D01*
X113794364Y-99850867D01*
X113725462Y-99832405D01*
X113722173Y-99831475D01*
X113396851Y-99734622D01*
X113389822Y-99732299D01*
X113335964Y-99712696D01*
X113333300Y-99711691D01*
X113003584Y-99583036D01*
X112996255Y-99579902D01*
X112965262Y-99565450D01*
X112963206Y-99564467D01*
X112625119Y-99399186D01*
X112616105Y-99394309D01*
X112269929Y-99188033D01*
X112261350Y-99182427D01*
X111933418Y-98948289D01*
X111925330Y-98941994D01*
X111617844Y-98681566D01*
X111610304Y-98674625D01*
X111325374Y-98389695D01*
X111318433Y-98382155D01*
X111193445Y-98234582D01*
X111058001Y-98074664D01*
X111051710Y-98066581D01*
X111047738Y-98061018D01*
X110817572Y-97738649D01*
X110811966Y-97730070D01*
X110801794Y-97712999D01*
X110605683Y-97383883D01*
X110600817Y-97374889D01*
X110435458Y-97036641D01*
X110434595Y-97034837D01*
X110420089Y-97003729D01*
X110416962Y-96996414D01*
X110400802Y-96955000D01*
X110288299Y-96666679D01*
X110287302Y-96664034D01*
X110267692Y-96610157D01*
X110265383Y-96603169D01*
X110168512Y-96277787D01*
X110167604Y-96274576D01*
X110149128Y-96205622D01*
X110147549Y-96199008D01*
X110079737Y-95875594D01*
X110078999Y-95871766D01*
X110065140Y-95793169D01*
X110064216Y-95787028D01*
X110024004Y-95464429D01*
X110023530Y-95459956D01*
X110016177Y-95375906D01*
X110015814Y-95370277D01*
X110000606Y-95002562D01*
X110000500Y-94997438D01*
X110000500Y-94825901D01*
X111900000Y-94825901D01*
X111900000Y-95174098D01*
X111938981Y-95520073D01*
X111938984Y-95520091D01*
X112016461Y-95859541D01*
X112016465Y-95859553D01*
X112131461Y-96188191D01*
X112282530Y-96501889D01*
X112467776Y-96796706D01*
X112684866Y-97068928D01*
X112701903Y-97085965D01*
X113765259Y-96022608D01*
X113779588Y-96042330D01*
X113957670Y-96220412D01*
X113977391Y-96234740D01*
X112914035Y-97298097D01*
X112931071Y-97315133D01*
X113203293Y-97532223D01*
X113498110Y-97717469D01*
X113811808Y-97868538D01*
X114140446Y-97983534D01*
X114140458Y-97983538D01*
X114479908Y-98061015D01*
X114479926Y-98061018D01*
X114825901Y-98099999D01*
X114825905Y-98100000D01*
X115174095Y-98100000D01*
X115174098Y-98099999D01*
X115520073Y-98061018D01*
X115520091Y-98061015D01*
X115859541Y-97983538D01*
X115859553Y-97983534D01*
X116188191Y-97868538D01*
X116501889Y-97717469D01*
X116796706Y-97532223D01*
X117068928Y-97315133D01*
X117085965Y-97298097D01*
X116022608Y-96234740D01*
X116042330Y-96220412D01*
X116220412Y-96042330D01*
X116234740Y-96022608D01*
X117298097Y-97085965D01*
X117315133Y-97068928D01*
X117532223Y-96796706D01*
X117717471Y-96501886D01*
X117814773Y-96299837D01*
X117814773Y-96299836D01*
X117868538Y-96188191D01*
X117983534Y-95859553D01*
X117983537Y-95859545D01*
X118002560Y-95776202D01*
X126630000Y-95776202D01*
X126630000Y-96105000D01*
X127130000Y-96105000D01*
X127130000Y-96405000D01*
X126630000Y-96405000D01*
X126630000Y-96733797D01*
X126660741Y-96888343D01*
X126660743Y-96888351D01*
X126721047Y-97033939D01*
X126721052Y-97033948D01*
X126808598Y-97164969D01*
X126808601Y-97164973D01*
X126920026Y-97276398D01*
X126920030Y-97276401D01*
X127051051Y-97363947D01*
X127051060Y-97363952D01*
X127196646Y-97424255D01*
X127196656Y-97424258D01*
X127279999Y-97440836D01*
X127280000Y-97440836D01*
X127280000Y-96914808D01*
X127314204Y-96934556D01*
X127390504Y-96955000D01*
X127469496Y-96955000D01*
X127545796Y-96934556D01*
X127580000Y-96914808D01*
X127580000Y-97440836D01*
X127663343Y-97424258D01*
X127663353Y-97424255D01*
X127808939Y-97363952D01*
X127808948Y-97363947D01*
X127939969Y-97276401D01*
X127939973Y-97276398D01*
X128051398Y-97164973D01*
X128051401Y-97164969D01*
X128138947Y-97033948D01*
X128138952Y-97033939D01*
X128199256Y-96888351D01*
X128199258Y-96888343D01*
X128229999Y-96733797D01*
X128230000Y-96733794D01*
X128230000Y-96405000D01*
X127730000Y-96405000D01*
X127730000Y-96105000D01*
X128230000Y-96105000D01*
X128230000Y-95776206D01*
X128229999Y-95776202D01*
X135270000Y-95776202D01*
X135270000Y-96105000D01*
X135770000Y-96105000D01*
X135770000Y-96405000D01*
X135270000Y-96405000D01*
X135270000Y-96733797D01*
X135300741Y-96888343D01*
X135300743Y-96888351D01*
X135361047Y-97033939D01*
X135361052Y-97033948D01*
X135448598Y-97164969D01*
X135448601Y-97164973D01*
X135560026Y-97276398D01*
X135560030Y-97276401D01*
X135691051Y-97363947D01*
X135691060Y-97363952D01*
X135836646Y-97424255D01*
X135836656Y-97424258D01*
X135919999Y-97440836D01*
X135920000Y-97440836D01*
X135920000Y-96914808D01*
X135954204Y-96934556D01*
X136030504Y-96955000D01*
X136109496Y-96955000D01*
X136185796Y-96934556D01*
X136220000Y-96914808D01*
X136220000Y-97440836D01*
X136303343Y-97424258D01*
X136303353Y-97424255D01*
X136448939Y-97363952D01*
X136448948Y-97363947D01*
X136579969Y-97276401D01*
X136579973Y-97276398D01*
X136691400Y-97164971D01*
X136778947Y-97033948D01*
X136778952Y-97033939D01*
X136839256Y-96888351D01*
X136839258Y-96888343D01*
X136869999Y-96733797D01*
X136870000Y-96733794D01*
X136870000Y-96405000D01*
X136370000Y-96405000D01*
X136370000Y-96105000D01*
X136870000Y-96105000D01*
X136870000Y-95776206D01*
X136869999Y-95776202D01*
X136839258Y-95621656D01*
X136839256Y-95621648D01*
X136778952Y-95476060D01*
X136778947Y-95476051D01*
X136691401Y-95345030D01*
X136691398Y-95345026D01*
X136579973Y-95233601D01*
X136579969Y-95233598D01*
X136448948Y-95146052D01*
X136448939Y-95146047D01*
X136303351Y-95085743D01*
X136303345Y-95085741D01*
X136220000Y-95069162D01*
X136220000Y-95595191D01*
X136185796Y-95575444D01*
X136109496Y-95555000D01*
X136030504Y-95555000D01*
X135954204Y-95575444D01*
X135920000Y-95595191D01*
X135920000Y-95069163D01*
X135919999Y-95069162D01*
X135836654Y-95085741D01*
X135836648Y-95085743D01*
X135691060Y-95146047D01*
X135691051Y-95146052D01*
X135560030Y-95233598D01*
X135560026Y-95233601D01*
X135448601Y-95345026D01*
X135448598Y-95345030D01*
X135361052Y-95476051D01*
X135361047Y-95476060D01*
X135300743Y-95621648D01*
X135300741Y-95621656D01*
X135270000Y-95776202D01*
X128229999Y-95776202D01*
X128199258Y-95621656D01*
X128199256Y-95621648D01*
X128138952Y-95476060D01*
X128138947Y-95476051D01*
X128051401Y-95345030D01*
X128051398Y-95345026D01*
X127939973Y-95233601D01*
X127939969Y-95233598D01*
X127808948Y-95146052D01*
X127808939Y-95146047D01*
X127663351Y-95085743D01*
X127663345Y-95085741D01*
X127580000Y-95069162D01*
X127580000Y-95595191D01*
X127545796Y-95575444D01*
X127469496Y-95555000D01*
X127390504Y-95555000D01*
X127314204Y-95575444D01*
X127280000Y-95595191D01*
X127280000Y-95069163D01*
X127279999Y-95069162D01*
X127196654Y-95085741D01*
X127196648Y-95085743D01*
X127051060Y-95146047D01*
X127051051Y-95146052D01*
X126920030Y-95233598D01*
X126920026Y-95233601D01*
X126808601Y-95345026D01*
X126808598Y-95345030D01*
X126721052Y-95476051D01*
X126721047Y-95476060D01*
X126660743Y-95621648D01*
X126660741Y-95621656D01*
X126630000Y-95776202D01*
X118002560Y-95776202D01*
X118010247Y-95742522D01*
X118010247Y-95742521D01*
X118061015Y-95520091D01*
X118061018Y-95520073D01*
X118099999Y-95174098D01*
X118100000Y-95174094D01*
X118100000Y-94825905D01*
X118099999Y-94825901D01*
X161900000Y-94825901D01*
X161900000Y-95174098D01*
X161938981Y-95520073D01*
X161938984Y-95520091D01*
X162016461Y-95859541D01*
X162016465Y-95859553D01*
X162131461Y-96188191D01*
X162282530Y-96501889D01*
X162467776Y-96796706D01*
X162684866Y-97068928D01*
X162701903Y-97085965D01*
X163765259Y-96022608D01*
X163779588Y-96042330D01*
X163957670Y-96220412D01*
X163977391Y-96234740D01*
X162914035Y-97298097D01*
X162931071Y-97315133D01*
X163203293Y-97532223D01*
X163498110Y-97717469D01*
X163811808Y-97868538D01*
X164140446Y-97983534D01*
X164140458Y-97983538D01*
X164479908Y-98061015D01*
X164479926Y-98061018D01*
X164825901Y-98099999D01*
X164825905Y-98100000D01*
X165174095Y-98100000D01*
X165174098Y-98099999D01*
X165520073Y-98061018D01*
X165520091Y-98061015D01*
X165859541Y-97983538D01*
X165859553Y-97983534D01*
X166188191Y-97868538D01*
X166501889Y-97717469D01*
X166796706Y-97532223D01*
X167068928Y-97315133D01*
X167085965Y-97298097D01*
X166022608Y-96234740D01*
X166042330Y-96220412D01*
X166220412Y-96042330D01*
X166234740Y-96022608D01*
X167298097Y-97085965D01*
X167315133Y-97068928D01*
X167532223Y-96796706D01*
X167717469Y-96501889D01*
X167868538Y-96188191D01*
X167983534Y-95859553D01*
X167983538Y-95859541D01*
X168061015Y-95520091D01*
X168061018Y-95520073D01*
X168099999Y-95174098D01*
X168100000Y-95174094D01*
X168100000Y-94825905D01*
X168099999Y-94825901D01*
X168061018Y-94479926D01*
X168061015Y-94479908D01*
X167983538Y-94140458D01*
X167983534Y-94140446D01*
X167868538Y-93811808D01*
X167717469Y-93498110D01*
X167532223Y-93203293D01*
X167315133Y-92931071D01*
X167298097Y-92914035D01*
X166234740Y-93977391D01*
X166220412Y-93957670D01*
X166042330Y-93779588D01*
X166022608Y-93765259D01*
X167085965Y-92701903D01*
X167068928Y-92684866D01*
X166796706Y-92467776D01*
X166501889Y-92282530D01*
X166188191Y-92131461D01*
X165859553Y-92016465D01*
X165859541Y-92016461D01*
X165520091Y-91938984D01*
X165520073Y-91938981D01*
X165174098Y-91900000D01*
X164825901Y-91900000D01*
X164479926Y-91938981D01*
X164479908Y-91938984D01*
X164140458Y-92016461D01*
X164140446Y-92016465D01*
X163811808Y-92131461D01*
X163498110Y-92282530D01*
X163203293Y-92467776D01*
X162931071Y-92684866D01*
X162914035Y-92701903D01*
X163977391Y-93765259D01*
X163957670Y-93779588D01*
X163779588Y-93957670D01*
X163765259Y-93977391D01*
X162701903Y-92914035D01*
X162684866Y-92931071D01*
X162467776Y-93203293D01*
X162282530Y-93498110D01*
X162131461Y-93811808D01*
X162016465Y-94140446D01*
X162016461Y-94140458D01*
X161938984Y-94479908D01*
X161938981Y-94479926D01*
X161900000Y-94825901D01*
X118099999Y-94825901D01*
X118061018Y-94479926D01*
X118061015Y-94479908D01*
X117983538Y-94140458D01*
X117983534Y-94140446D01*
X117868538Y-93811808D01*
X117717469Y-93498110D01*
X117532223Y-93203293D01*
X117315133Y-92931071D01*
X117298097Y-92914035D01*
X116234740Y-93977391D01*
X116220412Y-93957670D01*
X116042330Y-93779588D01*
X116022608Y-93765259D01*
X117085965Y-92701903D01*
X117068928Y-92684866D01*
X116796706Y-92467776D01*
X116501889Y-92282530D01*
X116188191Y-92131461D01*
X115859553Y-92016465D01*
X115859541Y-92016461D01*
X115520091Y-91938984D01*
X115520073Y-91938981D01*
X115174098Y-91900000D01*
X114825901Y-91900000D01*
X114479926Y-91938981D01*
X114479908Y-91938984D01*
X114140458Y-92016461D01*
X114140446Y-92016465D01*
X113811808Y-92131461D01*
X113498110Y-92282530D01*
X113203293Y-92467776D01*
X112931071Y-92684866D01*
X112914035Y-92701903D01*
X113977391Y-93765259D01*
X113957670Y-93779588D01*
X113779588Y-93957670D01*
X113765259Y-93977391D01*
X112701903Y-92914035D01*
X112684866Y-92931071D01*
X112467776Y-93203293D01*
X112282530Y-93498110D01*
X112131461Y-93811808D01*
X112016465Y-94140446D01*
X112016461Y-94140458D01*
X111938984Y-94479908D01*
X111938981Y-94479926D01*
X111900000Y-94825901D01*
X110000500Y-94825901D01*
X110000500Y-91446202D01*
X126630000Y-91446202D01*
X126630000Y-91925000D01*
X127130000Y-91925000D01*
X127130000Y-92225000D01*
X126630000Y-92225000D01*
X126630000Y-92703797D01*
X126660741Y-92858343D01*
X126660743Y-92858351D01*
X126721047Y-93003939D01*
X126721052Y-93003948D01*
X126808598Y-93134969D01*
X126808601Y-93134973D01*
X126920026Y-93246398D01*
X126920030Y-93246401D01*
X127051051Y-93333947D01*
X127051060Y-93333952D01*
X127196646Y-93394255D01*
X127196656Y-93394258D01*
X127279999Y-93410836D01*
X127280000Y-93410836D01*
X127280000Y-92884808D01*
X127314204Y-92904556D01*
X127390504Y-92925000D01*
X127469496Y-92925000D01*
X127545796Y-92904556D01*
X127580000Y-92884808D01*
X127580000Y-93410836D01*
X127663343Y-93394258D01*
X127663353Y-93394255D01*
X127808939Y-93333952D01*
X127808948Y-93333947D01*
X127939969Y-93246401D01*
X127939973Y-93246398D01*
X128051398Y-93134973D01*
X128051401Y-93134969D01*
X128138947Y-93003948D01*
X128138952Y-93003939D01*
X128199256Y-92858351D01*
X128199256Y-92858350D01*
X128205519Y-92826865D01*
X128237903Y-92764954D01*
X128298618Y-92730378D01*
X128368387Y-92734116D01*
X128425060Y-92774981D01*
X128434524Y-92789053D01*
X128479505Y-92866964D01*
X128568036Y-92955495D01*
X128676464Y-93018095D01*
X128797399Y-93050500D01*
X128797401Y-93050500D01*
X128922599Y-93050500D01*
X128922601Y-93050500D01*
X129043536Y-93018095D01*
X129151964Y-92955495D01*
X129240495Y-92866964D01*
X129303095Y-92758536D01*
X129335500Y-92637601D01*
X129335500Y-92512399D01*
X134164500Y-92512399D01*
X134164500Y-92637601D01*
X134196905Y-92758536D01*
X134259505Y-92866964D01*
X134348036Y-92955495D01*
X134456464Y-93018095D01*
X134577399Y-93050500D01*
X134577401Y-93050500D01*
X134702599Y-93050500D01*
X134702601Y-93050500D01*
X134823536Y-93018095D01*
X134931964Y-92955495D01*
X135020495Y-92866964D01*
X135065475Y-92789054D01*
X135116040Y-92740839D01*
X135184647Y-92727615D01*
X135249512Y-92753582D01*
X135290041Y-92810496D01*
X135294479Y-92826862D01*
X135300741Y-92858345D01*
X135300743Y-92858351D01*
X135361047Y-93003939D01*
X135361052Y-93003948D01*
X135448598Y-93134969D01*
X135448601Y-93134973D01*
X135560026Y-93246398D01*
X135560030Y-93246401D01*
X135691051Y-93333947D01*
X135691060Y-93333952D01*
X135836646Y-93394255D01*
X135836656Y-93394258D01*
X135919999Y-93410836D01*
X135920000Y-93410836D01*
X135920000Y-92884808D01*
X135954204Y-92904556D01*
X136030504Y-92925000D01*
X136109496Y-92925000D01*
X136185796Y-92904556D01*
X136220000Y-92884808D01*
X136220000Y-93410836D01*
X136303343Y-93394258D01*
X136303353Y-93394255D01*
X136448939Y-93333952D01*
X136448948Y-93333947D01*
X136579969Y-93246401D01*
X136579973Y-93246398D01*
X136691398Y-93134973D01*
X136691401Y-93134969D01*
X136778947Y-93003948D01*
X136778952Y-93003939D01*
X136839256Y-92858351D01*
X136839258Y-92858343D01*
X136869999Y-92703797D01*
X136870000Y-92703794D01*
X136870000Y-92225000D01*
X136370000Y-92225000D01*
X136370000Y-91925000D01*
X136870000Y-91925000D01*
X136870000Y-91446206D01*
X136869999Y-91446202D01*
X136839258Y-91291656D01*
X136839256Y-91291648D01*
X136778952Y-91146060D01*
X136778947Y-91146051D01*
X136691401Y-91015030D01*
X136691398Y-91015026D01*
X136579973Y-90903601D01*
X136579969Y-90903598D01*
X136448948Y-90816052D01*
X136448939Y-90816047D01*
X136303351Y-90755743D01*
X136303345Y-90755741D01*
X136220000Y-90739162D01*
X136220000Y-91265191D01*
X136185796Y-91245444D01*
X136109496Y-91225000D01*
X136030504Y-91225000D01*
X135954204Y-91245444D01*
X135920000Y-91265191D01*
X135920000Y-90739163D01*
X135919999Y-90739162D01*
X135836654Y-90755741D01*
X135836648Y-90755743D01*
X135691060Y-90816047D01*
X135691051Y-90816052D01*
X135560030Y-90903598D01*
X135560026Y-90903601D01*
X135448601Y-91015026D01*
X135448598Y-91015030D01*
X135361052Y-91146051D01*
X135361047Y-91146060D01*
X135300743Y-91291648D01*
X135300741Y-91291656D01*
X135270000Y-91446202D01*
X135270000Y-91925000D01*
X135770000Y-91925000D01*
X135770000Y-92225000D01*
X135270000Y-92225000D01*
X135270000Y-92252417D01*
X135250315Y-92319456D01*
X135197511Y-92365211D01*
X135128353Y-92375155D01*
X135064797Y-92346130D01*
X135038613Y-92314417D01*
X135020497Y-92283039D01*
X135020496Y-92283037D01*
X135020495Y-92283036D01*
X134931964Y-92194505D01*
X134823536Y-92131905D01*
X134823537Y-92131905D01*
X134783224Y-92121103D01*
X134702601Y-92099500D01*
X134577399Y-92099500D01*
X134496775Y-92121103D01*
X134456463Y-92131905D01*
X134348037Y-92194504D01*
X134348034Y-92194506D01*
X134259506Y-92283034D01*
X134259504Y-92283037D01*
X134196905Y-92391463D01*
X134196905Y-92391464D01*
X134164500Y-92512399D01*
X129335500Y-92512399D01*
X129303095Y-92391464D01*
X129240495Y-92283036D01*
X129151964Y-92194505D01*
X129043536Y-92131905D01*
X129043537Y-92131905D01*
X129003224Y-92121103D01*
X128922601Y-92099500D01*
X128797399Y-92099500D01*
X128716775Y-92121103D01*
X128676463Y-92131905D01*
X128568037Y-92194504D01*
X128568034Y-92194506D01*
X128479506Y-92283034D01*
X128479502Y-92283039D01*
X128461387Y-92314417D01*
X128410821Y-92362632D01*
X128342214Y-92375856D01*
X128277349Y-92349888D01*
X128236820Y-92292974D01*
X128230000Y-92252417D01*
X128230000Y-92225000D01*
X127730000Y-92225000D01*
X127730000Y-91925000D01*
X128230000Y-91925000D01*
X128230000Y-91446212D01*
X128229998Y-91446196D01*
X128229558Y-91443982D01*
X128924500Y-91443982D01*
X128924500Y-91556018D01*
X128953497Y-91664237D01*
X129009515Y-91761263D01*
X129088737Y-91840485D01*
X129185763Y-91896503D01*
X129293982Y-91925500D01*
X129293984Y-91925500D01*
X129406016Y-91925500D01*
X129406018Y-91925500D01*
X129514237Y-91896503D01*
X129611263Y-91840485D01*
X129690485Y-91761263D01*
X129746503Y-91664237D01*
X129775500Y-91556018D01*
X129775500Y-91443982D01*
X133724500Y-91443982D01*
X133724500Y-91556018D01*
X133753497Y-91664237D01*
X133809515Y-91761263D01*
X133888737Y-91840485D01*
X133985763Y-91896503D01*
X134093982Y-91925500D01*
X134093984Y-91925500D01*
X134206016Y-91925500D01*
X134206018Y-91925500D01*
X134314237Y-91896503D01*
X134411263Y-91840485D01*
X134490485Y-91761263D01*
X134546503Y-91664237D01*
X134575500Y-91556018D01*
X134575500Y-91443982D01*
X134546503Y-91335763D01*
X134490485Y-91238737D01*
X134411263Y-91159515D01*
X134314237Y-91103497D01*
X134206018Y-91074500D01*
X134093982Y-91074500D01*
X133985763Y-91103497D01*
X133985760Y-91103498D01*
X133888740Y-91159513D01*
X133888734Y-91159517D01*
X133809517Y-91238734D01*
X133809513Y-91238740D01*
X133753498Y-91335760D01*
X133753497Y-91335763D01*
X133724500Y-91443982D01*
X129775500Y-91443982D01*
X129746503Y-91335763D01*
X129690485Y-91238737D01*
X129611263Y-91159515D01*
X129514237Y-91103497D01*
X129406018Y-91074500D01*
X129293982Y-91074500D01*
X129185763Y-91103497D01*
X129185760Y-91103498D01*
X129088740Y-91159513D01*
X129088734Y-91159517D01*
X129009517Y-91238734D01*
X129009513Y-91238740D01*
X128953498Y-91335760D01*
X128953497Y-91335763D01*
X128924500Y-91443982D01*
X128229558Y-91443982D01*
X128199258Y-91291656D01*
X128199256Y-91291648D01*
X128138952Y-91146060D01*
X128138947Y-91146051D01*
X128051401Y-91015030D01*
X128051398Y-91015026D01*
X127939973Y-90903601D01*
X127939969Y-90903598D01*
X127808948Y-90816052D01*
X127808939Y-90816047D01*
X127663351Y-90755743D01*
X127663345Y-90755741D01*
X127580000Y-90739162D01*
X127580000Y-91265191D01*
X127545796Y-91245444D01*
X127469496Y-91225000D01*
X127390504Y-91225000D01*
X127314204Y-91245444D01*
X127280000Y-91265191D01*
X127280000Y-90739163D01*
X127279999Y-90739162D01*
X127196654Y-90755741D01*
X127196648Y-90755743D01*
X127051060Y-90816047D01*
X127051051Y-90816052D01*
X126920030Y-90903598D01*
X126920026Y-90903601D01*
X126808601Y-91015026D01*
X126808598Y-91015030D01*
X126721052Y-91146051D01*
X126721047Y-91146060D01*
X126660743Y-91291648D01*
X126660741Y-91291656D01*
X126630000Y-91446202D01*
X110000500Y-91446202D01*
X110000500Y-86850000D01*
X113709423Y-86850000D01*
X114522555Y-86850000D01*
X114500000Y-86934174D01*
X114500000Y-87065826D01*
X114522555Y-87150000D01*
X113709423Y-87150000D01*
X113728317Y-87269293D01*
X113784251Y-87441444D01*
X113784252Y-87441447D01*
X113866434Y-87602734D01*
X113972823Y-87749169D01*
X114100830Y-87877176D01*
X114247265Y-87983565D01*
X114408552Y-88065747D01*
X114408555Y-88065748D01*
X114580706Y-88121682D01*
X114759494Y-88150000D01*
X114850000Y-88150000D01*
X114850000Y-87477445D01*
X114934174Y-87500000D01*
X115065826Y-87500000D01*
X115150000Y-87477445D01*
X115150000Y-88150000D01*
X115240506Y-88150000D01*
X115419293Y-88121682D01*
X115591444Y-88065748D01*
X115591447Y-88065747D01*
X115752734Y-87983565D01*
X115899169Y-87877176D01*
X116027176Y-87749169D01*
X116133565Y-87602734D01*
X116163501Y-87543982D01*
X135474500Y-87543982D01*
X135474500Y-87656018D01*
X135503497Y-87764237D01*
X135559515Y-87861263D01*
X135638737Y-87940485D01*
X135735763Y-87996503D01*
X135843982Y-88025500D01*
X135843984Y-88025500D01*
X135956016Y-88025500D01*
X135956018Y-88025500D01*
X136064237Y-87996503D01*
X136161263Y-87940485D01*
X136212319Y-87889429D01*
X136273642Y-87855944D01*
X136343334Y-87860928D01*
X136387681Y-87889429D01*
X136438737Y-87940485D01*
X136535763Y-87996503D01*
X136643982Y-88025500D01*
X136643984Y-88025500D01*
X136756016Y-88025500D01*
X136756018Y-88025500D01*
X136864237Y-87996503D01*
X136961263Y-87940485D01*
X137040485Y-87861263D01*
X137096503Y-87764237D01*
X137125500Y-87656018D01*
X137125500Y-87543982D01*
X137096503Y-87435763D01*
X137040485Y-87338737D01*
X136961263Y-87259515D01*
X136864237Y-87203497D01*
X136756018Y-87174500D01*
X136643982Y-87174500D01*
X136535763Y-87203497D01*
X136535760Y-87203498D01*
X136438740Y-87259513D01*
X136438734Y-87259517D01*
X136387681Y-87310571D01*
X136326358Y-87344056D01*
X136256666Y-87339072D01*
X136212319Y-87310571D01*
X136161265Y-87259517D01*
X136161263Y-87259515D01*
X136064237Y-87203497D01*
X135956018Y-87174500D01*
X135843982Y-87174500D01*
X135735763Y-87203497D01*
X135735760Y-87203498D01*
X135638740Y-87259513D01*
X135638734Y-87259517D01*
X135559517Y-87338734D01*
X135559513Y-87338740D01*
X135503498Y-87435760D01*
X135503497Y-87435763D01*
X135474500Y-87543982D01*
X116163501Y-87543982D01*
X116196327Y-87479560D01*
X116196328Y-87479558D01*
X116215745Y-87441451D01*
X116215748Y-87441444D01*
X116271682Y-87269293D01*
X116290577Y-87150000D01*
X115477445Y-87150000D01*
X115500000Y-87065826D01*
X115500000Y-86943982D01*
X149474500Y-86943982D01*
X149474500Y-87056018D01*
X149503497Y-87164237D01*
X149559515Y-87261263D01*
X149638737Y-87340485D01*
X149735763Y-87396503D01*
X149843982Y-87425500D01*
X149843984Y-87425500D01*
X149956016Y-87425500D01*
X149956018Y-87425500D01*
X150064237Y-87396503D01*
X150155206Y-87343982D01*
X150674500Y-87343982D01*
X150674500Y-87456018D01*
X150702561Y-87560741D01*
X150703497Y-87564236D01*
X150703498Y-87564239D01*
X150704111Y-87565300D01*
X150759515Y-87661263D01*
X150838737Y-87740485D01*
X150935763Y-87796503D01*
X151043982Y-87825500D01*
X151043984Y-87825500D01*
X151156016Y-87825500D01*
X151156018Y-87825500D01*
X151264237Y-87796503D01*
X151361263Y-87740485D01*
X151440485Y-87661263D01*
X151496503Y-87564237D01*
X151525500Y-87456018D01*
X151525500Y-87393982D01*
X157984500Y-87393982D01*
X157984500Y-87506018D01*
X158013497Y-87614237D01*
X158069515Y-87711263D01*
X158148737Y-87790485D01*
X158245763Y-87846503D01*
X158353982Y-87875500D01*
X158353984Y-87875500D01*
X158466016Y-87875500D01*
X158466018Y-87875500D01*
X158574237Y-87846503D01*
X158671263Y-87790485D01*
X158750485Y-87711263D01*
X158806503Y-87614237D01*
X158811462Y-87595730D01*
X162774500Y-87595730D01*
X162774500Y-88904269D01*
X162777353Y-88934699D01*
X162777353Y-88934701D01*
X162822206Y-89062880D01*
X162822207Y-89062882D01*
X162902850Y-89172150D01*
X163012118Y-89252793D01*
X163054845Y-89267744D01*
X163140299Y-89297646D01*
X163170730Y-89300500D01*
X163170734Y-89300500D01*
X164779270Y-89300500D01*
X164809699Y-89297646D01*
X164809701Y-89297646D01*
X164873790Y-89275219D01*
X164937882Y-89252793D01*
X165047150Y-89172150D01*
X165127793Y-89062882D01*
X165150219Y-88998790D01*
X165172646Y-88934701D01*
X165172646Y-88934699D01*
X165175500Y-88904269D01*
X165175500Y-87595730D01*
X165172646Y-87565300D01*
X165172646Y-87565298D01*
X165134406Y-87456016D01*
X165127793Y-87437118D01*
X165047150Y-87327850D01*
X164937882Y-87247207D01*
X164937880Y-87247206D01*
X164809700Y-87202353D01*
X164779270Y-87199500D01*
X164779266Y-87199500D01*
X163170734Y-87199500D01*
X163170730Y-87199500D01*
X163140300Y-87202353D01*
X163140298Y-87202353D01*
X163012119Y-87247206D01*
X163012117Y-87247207D01*
X162902850Y-87327850D01*
X162822207Y-87437117D01*
X162822206Y-87437119D01*
X162777353Y-87565298D01*
X162777353Y-87565300D01*
X162774500Y-87595730D01*
X158811462Y-87595730D01*
X158835500Y-87506018D01*
X158835500Y-87393982D01*
X158806503Y-87285763D01*
X158750485Y-87188737D01*
X158671263Y-87109515D01*
X158606579Y-87072169D01*
X158574239Y-87053498D01*
X158574238Y-87053497D01*
X158574237Y-87053497D01*
X158466018Y-87024500D01*
X158353982Y-87024500D01*
X158245763Y-87053497D01*
X158245760Y-87053498D01*
X158148740Y-87109513D01*
X158148734Y-87109517D01*
X158069517Y-87188734D01*
X158069513Y-87188740D01*
X158013498Y-87285760D01*
X158013497Y-87285763D01*
X157984500Y-87393982D01*
X151525500Y-87393982D01*
X151525500Y-87343982D01*
X151496503Y-87235763D01*
X151440485Y-87138737D01*
X151361263Y-87059515D01*
X151264237Y-87003497D01*
X151156018Y-86974500D01*
X151043982Y-86974500D01*
X150935763Y-87003497D01*
X150935760Y-87003498D01*
X150838740Y-87059513D01*
X150838734Y-87059517D01*
X150759517Y-87138734D01*
X150759513Y-87138740D01*
X150703498Y-87235760D01*
X150703497Y-87235763D01*
X150674500Y-87343982D01*
X150155206Y-87343982D01*
X150161263Y-87340485D01*
X150240485Y-87261263D01*
X150296503Y-87164237D01*
X150325500Y-87056018D01*
X150325500Y-86943982D01*
X150296503Y-86835763D01*
X150240485Y-86738737D01*
X150161263Y-86659515D01*
X150064237Y-86603497D01*
X149956018Y-86574500D01*
X149843982Y-86574500D01*
X149735763Y-86603497D01*
X149735760Y-86603498D01*
X149638740Y-86659513D01*
X149638734Y-86659517D01*
X149559517Y-86738734D01*
X149559513Y-86738740D01*
X149503498Y-86835760D01*
X149503497Y-86835763D01*
X149474500Y-86943982D01*
X115500000Y-86943982D01*
X115500000Y-86934174D01*
X115477445Y-86850000D01*
X116290577Y-86850000D01*
X116290577Y-86849999D01*
X116271682Y-86730706D01*
X116215748Y-86558555D01*
X116215747Y-86558552D01*
X116133565Y-86397265D01*
X116076690Y-86318982D01*
X157437000Y-86318982D01*
X157437000Y-86431017D01*
X157465997Y-86539236D01*
X157465998Y-86539239D01*
X157477150Y-86558555D01*
X157522015Y-86636263D01*
X157601237Y-86715485D01*
X157698263Y-86771503D01*
X157806482Y-86800500D01*
X157806484Y-86800500D01*
X157918516Y-86800500D01*
X157918518Y-86800500D01*
X158026737Y-86771503D01*
X158123763Y-86715485D01*
X158202985Y-86636263D01*
X158259003Y-86539237D01*
X158288000Y-86431018D01*
X158288000Y-86318982D01*
X158259003Y-86210763D01*
X158202985Y-86113737D01*
X158123763Y-86034515D01*
X158026737Y-85978497D01*
X157918518Y-85949500D01*
X157806482Y-85949500D01*
X157698263Y-85978497D01*
X157698260Y-85978498D01*
X157601240Y-86034513D01*
X157601234Y-86034517D01*
X157522017Y-86113734D01*
X157522013Y-86113740D01*
X157465998Y-86210760D01*
X157465997Y-86210763D01*
X157437000Y-86318982D01*
X116076690Y-86318982D01*
X116027176Y-86250830D01*
X115899169Y-86122823D01*
X115752734Y-86016434D01*
X115591447Y-85934252D01*
X115591444Y-85934251D01*
X115419293Y-85878317D01*
X115293087Y-85858328D01*
X115240506Y-85850000D01*
X115150000Y-85850000D01*
X115150000Y-86522554D01*
X115065826Y-86500000D01*
X114934174Y-86500000D01*
X114850000Y-86522554D01*
X114850000Y-85850000D01*
X114759494Y-85850000D01*
X114580706Y-85878317D01*
X114408555Y-85934251D01*
X114408552Y-85934252D01*
X114247265Y-86016434D01*
X114100830Y-86122823D01*
X113972823Y-86250830D01*
X113866434Y-86397265D01*
X113784252Y-86558552D01*
X113784251Y-86558555D01*
X113728317Y-86730706D01*
X113709423Y-86850000D01*
X110000500Y-86850000D01*
X110000500Y-85743982D01*
X135474500Y-85743982D01*
X135474500Y-85856018D01*
X135503497Y-85964237D01*
X135559515Y-86061263D01*
X135638737Y-86140485D01*
X135735763Y-86196503D01*
X135843982Y-86225500D01*
X135843984Y-86225500D01*
X135956016Y-86225500D01*
X135956018Y-86225500D01*
X136064237Y-86196503D01*
X136161263Y-86140485D01*
X136212319Y-86089429D01*
X136273642Y-86055944D01*
X136343334Y-86060928D01*
X136387681Y-86089429D01*
X136438737Y-86140485D01*
X136535763Y-86196503D01*
X136643982Y-86225500D01*
X136643984Y-86225500D01*
X136756016Y-86225500D01*
X136756018Y-86225500D01*
X136864237Y-86196503D01*
X136961263Y-86140485D01*
X137040485Y-86061263D01*
X137096503Y-85964237D01*
X137125500Y-85856018D01*
X137125500Y-85743982D01*
X137099388Y-85646530D01*
X162774500Y-85646530D01*
X162774500Y-85853469D01*
X162814868Y-86056412D01*
X162814870Y-86056420D01*
X162894058Y-86247596D01*
X163009024Y-86419657D01*
X163155342Y-86565975D01*
X163155345Y-86565977D01*
X163327402Y-86680941D01*
X163518580Y-86760130D01*
X163721530Y-86800499D01*
X163721534Y-86800500D01*
X163721535Y-86800500D01*
X164228466Y-86800500D01*
X164228467Y-86800499D01*
X164431420Y-86760130D01*
X164622598Y-86680941D01*
X164794655Y-86565977D01*
X164940977Y-86419655D01*
X165055941Y-86247598D01*
X165135130Y-86056420D01*
X165175500Y-85853465D01*
X165175500Y-85646535D01*
X165135130Y-85443580D01*
X165055941Y-85252402D01*
X164940977Y-85080345D01*
X164940975Y-85080342D01*
X164794657Y-84934024D01*
X164708626Y-84876541D01*
X164622598Y-84819059D01*
X164431420Y-84739870D01*
X164431412Y-84739868D01*
X164228469Y-84699500D01*
X164228465Y-84699500D01*
X163721535Y-84699500D01*
X163721530Y-84699500D01*
X163518587Y-84739868D01*
X163518579Y-84739870D01*
X163327403Y-84819058D01*
X163155342Y-84934024D01*
X163009024Y-85080342D01*
X162894058Y-85252403D01*
X162814870Y-85443579D01*
X162814868Y-85443587D01*
X162774500Y-85646530D01*
X137099388Y-85646530D01*
X137096503Y-85635763D01*
X137040485Y-85538737D01*
X136961263Y-85459515D01*
X136864237Y-85403497D01*
X136756018Y-85374500D01*
X136643982Y-85374500D01*
X136535763Y-85403497D01*
X136535760Y-85403498D01*
X136438740Y-85459513D01*
X136438734Y-85459517D01*
X136387681Y-85510571D01*
X136326358Y-85544056D01*
X136256666Y-85539072D01*
X136212319Y-85510571D01*
X136161265Y-85459517D01*
X136161263Y-85459515D01*
X136064237Y-85403497D01*
X135956018Y-85374500D01*
X135843982Y-85374500D01*
X135735763Y-85403497D01*
X135735760Y-85403498D01*
X135638740Y-85459513D01*
X135638734Y-85459517D01*
X135559517Y-85538734D01*
X135559513Y-85538740D01*
X135503498Y-85635760D01*
X135503498Y-85635761D01*
X135503497Y-85635763D01*
X135474500Y-85743982D01*
X110000500Y-85743982D01*
X110000500Y-83845730D01*
X113799500Y-83845730D01*
X113799500Y-85154269D01*
X113802353Y-85184699D01*
X113802353Y-85184701D01*
X113847206Y-85312880D01*
X113847207Y-85312882D01*
X113927850Y-85422150D01*
X114037118Y-85502793D01*
X114079845Y-85517744D01*
X114165299Y-85547646D01*
X114195730Y-85550500D01*
X114195734Y-85550500D01*
X115804270Y-85550500D01*
X115834699Y-85547646D01*
X115834701Y-85547646D01*
X115898790Y-85525219D01*
X115962882Y-85502793D01*
X116072150Y-85422150D01*
X116152793Y-85312882D01*
X116175219Y-85248790D01*
X116197646Y-85184701D01*
X116197646Y-85184699D01*
X116200500Y-85154269D01*
X116200500Y-83845730D01*
X116197646Y-83815300D01*
X116197646Y-83815298D01*
X116152793Y-83687119D01*
X116152792Y-83687117D01*
X116146626Y-83678762D01*
X116072150Y-83577850D01*
X116026260Y-83543982D01*
X146674500Y-83543982D01*
X146674500Y-83656018D01*
X146703497Y-83764237D01*
X146759515Y-83861263D01*
X146838737Y-83940485D01*
X146935763Y-83996503D01*
X147043982Y-84025500D01*
X147043984Y-84025500D01*
X147156016Y-84025500D01*
X147156018Y-84025500D01*
X147264237Y-83996503D01*
X147361263Y-83940485D01*
X147440485Y-83861263D01*
X147496503Y-83764237D01*
X147508629Y-83718982D01*
X150674500Y-83718982D01*
X150674500Y-83831017D01*
X150703497Y-83939236D01*
X150703498Y-83939239D01*
X150704218Y-83940486D01*
X150759515Y-84036263D01*
X150838737Y-84115485D01*
X150935763Y-84171503D01*
X151043982Y-84200500D01*
X151043984Y-84200500D01*
X151156016Y-84200500D01*
X151156018Y-84200500D01*
X151264237Y-84171503D01*
X151361263Y-84115485D01*
X151440485Y-84036263D01*
X151496503Y-83939237D01*
X151525500Y-83831018D01*
X151525500Y-83718982D01*
X151496503Y-83610763D01*
X151440485Y-83513737D01*
X151361263Y-83434515D01*
X151264237Y-83378497D01*
X151156018Y-83349500D01*
X151043982Y-83349500D01*
X150935763Y-83378497D01*
X150935760Y-83378498D01*
X150838740Y-83434513D01*
X150838734Y-83434517D01*
X150759517Y-83513734D01*
X150759513Y-83513740D01*
X150703498Y-83610760D01*
X150703497Y-83610763D01*
X150674500Y-83718982D01*
X147508629Y-83718982D01*
X147525500Y-83656018D01*
X147525500Y-83543982D01*
X147496503Y-83435763D01*
X147440485Y-83338737D01*
X147361263Y-83259515D01*
X147264237Y-83203497D01*
X147156018Y-83174500D01*
X147043982Y-83174500D01*
X146935763Y-83203497D01*
X146935760Y-83203498D01*
X146838740Y-83259513D01*
X146838734Y-83259517D01*
X146759517Y-83338734D01*
X146759513Y-83338740D01*
X146703498Y-83435760D01*
X146703497Y-83435763D01*
X146674500Y-83543982D01*
X116026260Y-83543982D01*
X115962882Y-83497207D01*
X115962880Y-83497206D01*
X115834700Y-83452353D01*
X115804270Y-83449500D01*
X115804266Y-83449500D01*
X114195734Y-83449500D01*
X114195730Y-83449500D01*
X114165300Y-83452353D01*
X114165298Y-83452353D01*
X114037119Y-83497206D01*
X114037117Y-83497207D01*
X113927850Y-83577850D01*
X113847207Y-83687117D01*
X113847206Y-83687119D01*
X113802353Y-83815298D01*
X113802353Y-83815300D01*
X113799500Y-83845730D01*
X110000500Y-83845730D01*
X110000500Y-81843982D01*
X148774500Y-81843982D01*
X148774500Y-81956018D01*
X148803497Y-82064237D01*
X148859515Y-82161263D01*
X148938737Y-82240485D01*
X149035763Y-82296503D01*
X149143982Y-82325500D01*
X149143984Y-82325500D01*
X149256016Y-82325500D01*
X149256018Y-82325500D01*
X149364237Y-82296503D01*
X149461263Y-82240485D01*
X149540485Y-82161263D01*
X149596503Y-82064237D01*
X149625500Y-81956018D01*
X149625500Y-81843982D01*
X149596503Y-81735763D01*
X149540485Y-81638737D01*
X149461263Y-81559515D01*
X149364237Y-81503497D01*
X149256018Y-81474500D01*
X149143982Y-81474500D01*
X149035763Y-81503497D01*
X149035760Y-81503498D01*
X148938740Y-81559513D01*
X148938734Y-81559517D01*
X148859517Y-81638734D01*
X148859513Y-81638740D01*
X148803498Y-81735760D01*
X148803497Y-81735763D01*
X148774500Y-81843982D01*
X110000500Y-81843982D01*
X110000500Y-79363982D01*
X132574500Y-79363982D01*
X132574500Y-79476018D01*
X132603497Y-79584237D01*
X132659515Y-79681263D01*
X132738737Y-79760485D01*
X132835763Y-79816503D01*
X132943982Y-79845500D01*
X132943984Y-79845500D01*
X133056016Y-79845500D01*
X133056018Y-79845500D01*
X133164237Y-79816503D01*
X133261263Y-79760485D01*
X133340485Y-79681263D01*
X133396503Y-79584237D01*
X133425500Y-79476018D01*
X133425500Y-79363982D01*
X133396503Y-79255763D01*
X133340485Y-79158737D01*
X133261263Y-79079515D01*
X133164237Y-79023497D01*
X133056018Y-78994500D01*
X132943982Y-78994500D01*
X132835763Y-79023497D01*
X132835760Y-79023498D01*
X132738740Y-79079513D01*
X132738734Y-79079517D01*
X132659517Y-79158734D01*
X132659513Y-79158740D01*
X132603498Y-79255760D01*
X132603497Y-79255763D01*
X132574500Y-79363982D01*
X110000500Y-79363982D01*
X110000500Y-78743982D01*
X146162000Y-78743982D01*
X146162000Y-78856018D01*
X146190997Y-78964237D01*
X146247015Y-79061263D01*
X146326237Y-79140485D01*
X146423263Y-79196503D01*
X146531482Y-79225500D01*
X146531484Y-79225500D01*
X146643516Y-79225500D01*
X146643518Y-79225500D01*
X146751737Y-79196503D01*
X146848763Y-79140485D01*
X146927985Y-79061263D01*
X146984003Y-78964237D01*
X147013000Y-78856018D01*
X147013000Y-78743982D01*
X146984003Y-78635763D01*
X146927985Y-78538737D01*
X146848763Y-78459515D01*
X146751737Y-78403497D01*
X146643518Y-78374500D01*
X146531482Y-78374500D01*
X146423263Y-78403497D01*
X146423260Y-78403498D01*
X146326240Y-78459513D01*
X146326234Y-78459517D01*
X146247017Y-78538734D01*
X146247013Y-78538740D01*
X146190998Y-78635760D01*
X146190997Y-78635763D01*
X146162000Y-78743982D01*
X110000500Y-78743982D01*
X110000500Y-77643982D01*
X121174500Y-77643982D01*
X121174500Y-77756018D01*
X121203497Y-77864237D01*
X121259515Y-77961263D01*
X121338737Y-78040485D01*
X121435763Y-78096503D01*
X121543982Y-78125500D01*
X121543984Y-78125500D01*
X121656016Y-78125500D01*
X121656018Y-78125500D01*
X121764237Y-78096503D01*
X121861263Y-78040485D01*
X121912319Y-77989429D01*
X121973642Y-77955944D01*
X122043334Y-77960928D01*
X122087681Y-77989429D01*
X122138737Y-78040485D01*
X122235763Y-78096503D01*
X122343982Y-78125500D01*
X122343984Y-78125500D01*
X122456016Y-78125500D01*
X122456018Y-78125500D01*
X122564237Y-78096503D01*
X122565576Y-78095730D01*
X162774500Y-78095730D01*
X162774500Y-79404269D01*
X162777353Y-79434699D01*
X162777353Y-79434701D01*
X162822206Y-79562880D01*
X162822207Y-79562882D01*
X162902850Y-79672150D01*
X163012118Y-79752793D01*
X163054845Y-79767744D01*
X163140299Y-79797646D01*
X163170730Y-79800500D01*
X163170734Y-79800500D01*
X164779270Y-79800500D01*
X164809699Y-79797646D01*
X164809701Y-79797646D01*
X164873790Y-79775219D01*
X164937882Y-79752793D01*
X165047150Y-79672150D01*
X165127793Y-79562882D01*
X165158188Y-79476018D01*
X165172646Y-79434701D01*
X165172646Y-79434699D01*
X165175500Y-79404269D01*
X165175500Y-78095730D01*
X165172646Y-78065300D01*
X165172646Y-78065298D01*
X165127793Y-77937119D01*
X165127792Y-77937117D01*
X165047150Y-77827850D01*
X164937882Y-77747207D01*
X164937880Y-77747206D01*
X164809700Y-77702353D01*
X164779270Y-77699500D01*
X164779266Y-77699500D01*
X163170734Y-77699500D01*
X163170730Y-77699500D01*
X163140300Y-77702353D01*
X163140298Y-77702353D01*
X163012119Y-77747206D01*
X163012117Y-77747207D01*
X162902850Y-77827850D01*
X162822207Y-77937117D01*
X162822206Y-77937119D01*
X162777353Y-78065298D01*
X162777353Y-78065300D01*
X162774500Y-78095730D01*
X122565576Y-78095730D01*
X122661263Y-78040485D01*
X122740485Y-77961263D01*
X122796503Y-77864237D01*
X122825500Y-77756018D01*
X122825500Y-77643982D01*
X122796503Y-77535763D01*
X122743513Y-77443982D01*
X159274500Y-77443982D01*
X159274500Y-77556018D01*
X159303497Y-77664237D01*
X159359515Y-77761263D01*
X159438737Y-77840485D01*
X159535763Y-77896503D01*
X159643982Y-77925500D01*
X159643984Y-77925500D01*
X159756016Y-77925500D01*
X159756018Y-77925500D01*
X159864237Y-77896503D01*
X159961263Y-77840485D01*
X160040485Y-77761263D01*
X160096503Y-77664237D01*
X160125500Y-77556018D01*
X160125500Y-77443982D01*
X160096503Y-77335763D01*
X160040485Y-77238737D01*
X159961263Y-77159515D01*
X159864237Y-77103497D01*
X159756018Y-77074500D01*
X159643982Y-77074500D01*
X159535763Y-77103497D01*
X159535760Y-77103498D01*
X159438740Y-77159513D01*
X159438734Y-77159517D01*
X159359517Y-77238734D01*
X159359513Y-77238740D01*
X159303498Y-77335760D01*
X159303497Y-77335763D01*
X159274500Y-77443982D01*
X122743513Y-77443982D01*
X122740485Y-77438737D01*
X122661263Y-77359515D01*
X122564237Y-77303497D01*
X122456018Y-77274500D01*
X122343982Y-77274500D01*
X122235763Y-77303497D01*
X122235760Y-77303498D01*
X122138740Y-77359513D01*
X122138734Y-77359517D01*
X122087681Y-77410571D01*
X122026358Y-77444056D01*
X121956666Y-77439072D01*
X121912319Y-77410571D01*
X121861265Y-77359517D01*
X121861263Y-77359515D01*
X121764237Y-77303497D01*
X121656018Y-77274500D01*
X121543982Y-77274500D01*
X121435763Y-77303497D01*
X121435760Y-77303498D01*
X121338740Y-77359513D01*
X121338734Y-77359517D01*
X121259517Y-77438734D01*
X121259513Y-77438740D01*
X121203498Y-77535760D01*
X121203497Y-77535763D01*
X121174500Y-77643982D01*
X110000500Y-77643982D01*
X110000500Y-75843982D01*
X121174500Y-75843982D01*
X121174500Y-75956018D01*
X121203497Y-76064237D01*
X121259515Y-76161263D01*
X121338737Y-76240485D01*
X121435763Y-76296503D01*
X121543982Y-76325500D01*
X121543984Y-76325500D01*
X121656016Y-76325500D01*
X121656018Y-76325500D01*
X121764237Y-76296503D01*
X121861263Y-76240485D01*
X121912319Y-76189429D01*
X121973642Y-76155944D01*
X122043334Y-76160928D01*
X122087681Y-76189429D01*
X122138737Y-76240485D01*
X122235763Y-76296503D01*
X122343982Y-76325500D01*
X122343984Y-76325500D01*
X122456016Y-76325500D01*
X122456018Y-76325500D01*
X122564237Y-76296503D01*
X122661263Y-76240485D01*
X122740485Y-76161263D01*
X122750462Y-76143982D01*
X152564500Y-76143982D01*
X152564500Y-76256018D01*
X152593497Y-76364237D01*
X152649515Y-76461263D01*
X152728737Y-76540485D01*
X152825763Y-76596503D01*
X152933982Y-76625500D01*
X152933984Y-76625500D01*
X153046016Y-76625500D01*
X153046018Y-76625500D01*
X153154237Y-76596503D01*
X153251263Y-76540485D01*
X153330485Y-76461263D01*
X153386503Y-76364237D01*
X153415500Y-76256018D01*
X153415500Y-76146530D01*
X162774500Y-76146530D01*
X162774500Y-76353469D01*
X162814868Y-76556412D01*
X162814870Y-76556420D01*
X162894058Y-76747596D01*
X163009024Y-76919657D01*
X163155342Y-77065975D01*
X163155345Y-77065977D01*
X163327402Y-77180941D01*
X163518580Y-77260130D01*
X163721530Y-77300499D01*
X163721534Y-77300500D01*
X163721535Y-77300500D01*
X164228466Y-77300500D01*
X164228467Y-77300499D01*
X164431420Y-77260130D01*
X164622598Y-77180941D01*
X164794655Y-77065977D01*
X164940977Y-76919655D01*
X165055941Y-76747598D01*
X165135130Y-76556420D01*
X165175500Y-76353465D01*
X165175500Y-76146535D01*
X165135130Y-75943580D01*
X165055941Y-75752402D01*
X164940977Y-75580345D01*
X164940975Y-75580342D01*
X164794657Y-75434024D01*
X164659898Y-75343982D01*
X164622598Y-75319059D01*
X164431420Y-75239870D01*
X164431412Y-75239868D01*
X164228469Y-75199500D01*
X164228465Y-75199500D01*
X163721535Y-75199500D01*
X163721530Y-75199500D01*
X163518587Y-75239868D01*
X163518579Y-75239870D01*
X163327403Y-75319058D01*
X163155342Y-75434024D01*
X163009024Y-75580342D01*
X162894058Y-75752403D01*
X162814870Y-75943579D01*
X162814868Y-75943587D01*
X162774500Y-76146530D01*
X153415500Y-76146530D01*
X153415500Y-76143982D01*
X153386503Y-76035763D01*
X153330485Y-75938737D01*
X153251263Y-75859515D01*
X153154237Y-75803497D01*
X153046018Y-75774500D01*
X152933982Y-75774500D01*
X152825763Y-75803497D01*
X152825760Y-75803498D01*
X152728740Y-75859513D01*
X152728734Y-75859517D01*
X152649517Y-75938734D01*
X152649513Y-75938740D01*
X152593498Y-76035760D01*
X152593497Y-76035763D01*
X152564500Y-76143982D01*
X122750462Y-76143982D01*
X122796503Y-76064237D01*
X122825500Y-75956018D01*
X122825500Y-75843982D01*
X122796503Y-75735763D01*
X122740485Y-75638737D01*
X122661263Y-75559515D01*
X122564237Y-75503497D01*
X122456018Y-75474500D01*
X122343982Y-75474500D01*
X122235763Y-75503497D01*
X122235760Y-75503498D01*
X122138740Y-75559513D01*
X122138734Y-75559517D01*
X122087681Y-75610571D01*
X122026358Y-75644056D01*
X121956666Y-75639072D01*
X121912319Y-75610571D01*
X121861265Y-75559517D01*
X121861263Y-75559515D01*
X121764237Y-75503497D01*
X121656018Y-75474500D01*
X121543982Y-75474500D01*
X121435763Y-75503497D01*
X121435760Y-75503498D01*
X121338740Y-75559513D01*
X121338734Y-75559517D01*
X121259517Y-75638734D01*
X121259513Y-75638740D01*
X121203498Y-75735760D01*
X121203497Y-75735763D01*
X121174500Y-75843982D01*
X110000500Y-75843982D01*
X110000500Y-75343982D01*
X146149500Y-75343982D01*
X146149500Y-75456018D01*
X146178497Y-75564237D01*
X146234515Y-75661263D01*
X146313737Y-75740485D01*
X146410763Y-75796503D01*
X146518982Y-75825500D01*
X146518984Y-75825500D01*
X146631016Y-75825500D01*
X146631018Y-75825500D01*
X146739237Y-75796503D01*
X146836263Y-75740485D01*
X146915485Y-75661263D01*
X146971503Y-75564237D01*
X147000500Y-75456018D01*
X147000500Y-75343982D01*
X146971503Y-75235763D01*
X146915485Y-75138737D01*
X146836263Y-75059515D01*
X146739237Y-75003497D01*
X146631018Y-74974500D01*
X146518982Y-74974500D01*
X146410763Y-75003497D01*
X146410760Y-75003498D01*
X146313740Y-75059513D01*
X146313734Y-75059517D01*
X146234517Y-75138734D01*
X146234513Y-75138740D01*
X146178498Y-75235760D01*
X146178497Y-75235763D01*
X146149500Y-75343982D01*
X110000500Y-75343982D01*
X110000500Y-74618982D01*
X152674500Y-74618982D01*
X152674500Y-74731018D01*
X152703497Y-74839237D01*
X152759515Y-74936263D01*
X152838737Y-75015485D01*
X152935763Y-75071503D01*
X153043982Y-75100500D01*
X153043984Y-75100500D01*
X153156016Y-75100500D01*
X153156018Y-75100500D01*
X153264237Y-75071503D01*
X153361263Y-75015485D01*
X153440485Y-74936263D01*
X153496503Y-74839237D01*
X153525500Y-74731018D01*
X153525500Y-74618982D01*
X154574500Y-74618982D01*
X154574500Y-74731018D01*
X154603497Y-74839237D01*
X154659515Y-74936263D01*
X154738737Y-75015485D01*
X154835763Y-75071503D01*
X154943982Y-75100500D01*
X154943984Y-75100500D01*
X155056016Y-75100500D01*
X155056018Y-75100500D01*
X155164237Y-75071503D01*
X155261263Y-75015485D01*
X155340485Y-74936263D01*
X155396503Y-74839237D01*
X155425500Y-74731018D01*
X155425500Y-74618982D01*
X155396503Y-74510763D01*
X155340485Y-74413737D01*
X155261263Y-74334515D01*
X155164237Y-74278497D01*
X155056018Y-74249500D01*
X154943982Y-74249500D01*
X154835763Y-74278497D01*
X154835760Y-74278498D01*
X154738740Y-74334513D01*
X154738734Y-74334517D01*
X154659517Y-74413734D01*
X154659513Y-74413740D01*
X154603498Y-74510760D01*
X154603497Y-74510763D01*
X154574500Y-74618982D01*
X153525500Y-74618982D01*
X153496503Y-74510763D01*
X153440485Y-74413737D01*
X153361263Y-74334515D01*
X153264237Y-74278497D01*
X153156018Y-74249500D01*
X153043982Y-74249500D01*
X152935763Y-74278497D01*
X152935760Y-74278498D01*
X152838740Y-74334513D01*
X152838734Y-74334517D01*
X152759517Y-74413734D01*
X152759513Y-74413740D01*
X152703498Y-74510760D01*
X152703497Y-74510763D01*
X152674500Y-74618982D01*
X110000500Y-74618982D01*
X110000500Y-71105205D01*
X120875000Y-71105205D01*
X120875000Y-71850000D01*
X121547555Y-71850000D01*
X121525000Y-71934174D01*
X121525000Y-72065826D01*
X121547555Y-72150000D01*
X120875001Y-72150000D01*
X120875001Y-72894785D01*
X120875002Y-72894808D01*
X120877908Y-72919869D01*
X120877909Y-72919873D01*
X120923211Y-73022474D01*
X120923214Y-73022479D01*
X121002520Y-73101785D01*
X121002525Y-73101788D01*
X121105123Y-73147089D01*
X121130206Y-73149999D01*
X121874999Y-73149999D01*
X121875000Y-73149998D01*
X121875000Y-72477445D01*
X121959174Y-72500000D01*
X122090826Y-72500000D01*
X122175000Y-72477445D01*
X122175000Y-73149999D01*
X122919786Y-73149999D01*
X122919808Y-73149997D01*
X122944869Y-73147091D01*
X122944873Y-73147090D01*
X123047474Y-73101788D01*
X123047479Y-73101785D01*
X123126785Y-73022479D01*
X123126788Y-73022474D01*
X123172089Y-72919877D01*
X123172089Y-72919875D01*
X123174999Y-72894794D01*
X123175000Y-72894791D01*
X123175000Y-72150000D01*
X122502445Y-72150000D01*
X122525000Y-72065826D01*
X122525000Y-71934174D01*
X122514913Y-71896530D01*
X123514500Y-71896530D01*
X123514500Y-72103469D01*
X123554868Y-72306412D01*
X123554870Y-72306420D01*
X123620939Y-72465925D01*
X123634059Y-72497598D01*
X123678587Y-72564239D01*
X123749024Y-72669657D01*
X123895342Y-72815975D01*
X123895345Y-72815977D01*
X124067402Y-72930941D01*
X124258580Y-73010130D01*
X124461530Y-73050499D01*
X124461534Y-73050500D01*
X124461535Y-73050500D01*
X124668466Y-73050500D01*
X124668467Y-73050499D01*
X124871420Y-73010130D01*
X125031114Y-72943982D01*
X131974500Y-72943982D01*
X131974500Y-73056018D01*
X132003497Y-73164237D01*
X132059515Y-73261263D01*
X132138737Y-73340485D01*
X132235763Y-73396503D01*
X132343982Y-73425500D01*
X132343984Y-73425500D01*
X132456016Y-73425500D01*
X132456018Y-73425500D01*
X132564237Y-73396503D01*
X132661263Y-73340485D01*
X132740485Y-73261263D01*
X132796503Y-73164237D01*
X132825500Y-73056018D01*
X132825500Y-72943982D01*
X132798705Y-72843982D01*
X140884500Y-72843982D01*
X140884500Y-72956018D01*
X140913497Y-73064237D01*
X140969515Y-73161263D01*
X141048737Y-73240485D01*
X141145763Y-73296503D01*
X141253982Y-73325500D01*
X141253984Y-73325500D01*
X141366016Y-73325500D01*
X141366018Y-73325500D01*
X141474237Y-73296503D01*
X141571263Y-73240485D01*
X141650485Y-73161263D01*
X141706503Y-73064237D01*
X141735500Y-72956018D01*
X141735500Y-72843982D01*
X141706503Y-72735763D01*
X141650485Y-72638737D01*
X141571263Y-72559515D01*
X141474237Y-72503497D01*
X141366018Y-72474500D01*
X141253982Y-72474500D01*
X141145763Y-72503497D01*
X141145760Y-72503498D01*
X141048740Y-72559513D01*
X141048734Y-72559517D01*
X140969517Y-72638734D01*
X140969513Y-72638740D01*
X140913498Y-72735760D01*
X140913497Y-72735763D01*
X140884500Y-72843982D01*
X132798705Y-72843982D01*
X132796503Y-72835763D01*
X132740485Y-72738737D01*
X132661263Y-72659515D01*
X132564237Y-72603497D01*
X132456018Y-72574500D01*
X132343982Y-72574500D01*
X132235763Y-72603497D01*
X132235760Y-72603498D01*
X132138740Y-72659513D01*
X132138734Y-72659517D01*
X132059517Y-72738734D01*
X132059513Y-72738740D01*
X132003498Y-72835760D01*
X132003497Y-72835763D01*
X131974500Y-72943982D01*
X125031114Y-72943982D01*
X125062598Y-72930941D01*
X125062599Y-72930940D01*
X125062600Y-72930940D01*
X125209544Y-72832756D01*
X125209549Y-72832752D01*
X125234655Y-72815977D01*
X125380977Y-72669655D01*
X125495941Y-72497598D01*
X125575130Y-72306420D01*
X125606244Y-72150000D01*
X125607441Y-72143982D01*
X137974500Y-72143982D01*
X137974500Y-72256018D01*
X138003497Y-72364237D01*
X138059515Y-72461263D01*
X138138737Y-72540485D01*
X138235763Y-72596503D01*
X138343982Y-72625500D01*
X138343984Y-72625500D01*
X138456016Y-72625500D01*
X138456018Y-72625500D01*
X138564237Y-72596503D01*
X138661263Y-72540485D01*
X138740485Y-72461263D01*
X138796503Y-72364237D01*
X138801930Y-72343982D01*
X152674500Y-72343982D01*
X152674500Y-72456018D01*
X152703497Y-72564237D01*
X152759515Y-72661263D01*
X152838737Y-72740485D01*
X152935763Y-72796503D01*
X153043982Y-72825500D01*
X153043984Y-72825500D01*
X153156016Y-72825500D01*
X153156018Y-72825500D01*
X153264237Y-72796503D01*
X153361263Y-72740485D01*
X153440485Y-72661263D01*
X153496503Y-72564237D01*
X153525500Y-72456018D01*
X153525500Y-72343982D01*
X153496503Y-72235763D01*
X153440485Y-72138737D01*
X153361263Y-72059515D01*
X153264237Y-72003497D01*
X153156018Y-71974500D01*
X153043982Y-71974500D01*
X152935763Y-72003497D01*
X152935760Y-72003498D01*
X152838740Y-72059513D01*
X152838734Y-72059517D01*
X152759517Y-72138734D01*
X152759513Y-72138740D01*
X152703498Y-72235760D01*
X152703497Y-72235763D01*
X152674500Y-72343982D01*
X138801930Y-72343982D01*
X138825500Y-72256018D01*
X138825500Y-72143982D01*
X138796503Y-72035763D01*
X138740485Y-71938737D01*
X138661263Y-71859515D01*
X138596579Y-71822169D01*
X138564239Y-71803498D01*
X138564238Y-71803497D01*
X138564237Y-71803497D01*
X138456018Y-71774500D01*
X138343982Y-71774500D01*
X138235763Y-71803497D01*
X138235760Y-71803498D01*
X138138740Y-71859513D01*
X138138734Y-71859517D01*
X138059517Y-71938734D01*
X138059513Y-71938740D01*
X138003498Y-72035760D01*
X138003497Y-72035763D01*
X137974500Y-72143982D01*
X125607441Y-72143982D01*
X125613870Y-72111664D01*
X125614719Y-72107391D01*
X125615500Y-72103465D01*
X125615500Y-71896535D01*
X125575130Y-71693580D01*
X125495941Y-71502402D01*
X125380977Y-71330345D01*
X125380975Y-71330342D01*
X125234658Y-71184025D01*
X125234650Y-71184019D01*
X125152318Y-71129006D01*
X125152244Y-71128958D01*
X125079155Y-71080122D01*
X125062598Y-71069059D01*
X124977915Y-71033982D01*
X130374500Y-71033982D01*
X130374500Y-71146018D01*
X130403497Y-71254237D01*
X130459515Y-71351263D01*
X130538737Y-71430485D01*
X130635763Y-71486503D01*
X130743982Y-71515500D01*
X130743984Y-71515500D01*
X130856016Y-71515500D01*
X130856018Y-71515500D01*
X130964237Y-71486503D01*
X131061263Y-71430485D01*
X131140485Y-71351263D01*
X131196503Y-71254237D01*
X131225500Y-71146018D01*
X131225500Y-71033982D01*
X133074500Y-71033982D01*
X133074500Y-71146018D01*
X133103497Y-71254237D01*
X133159515Y-71351263D01*
X133238737Y-71430485D01*
X133335763Y-71486503D01*
X133443982Y-71515500D01*
X133443984Y-71515500D01*
X133556016Y-71515500D01*
X133556018Y-71515500D01*
X133664237Y-71486503D01*
X133761263Y-71430485D01*
X133840485Y-71351263D01*
X133844689Y-71343982D01*
X140884500Y-71343982D01*
X140884500Y-71456018D01*
X140913497Y-71564237D01*
X140969515Y-71661263D01*
X141048737Y-71740485D01*
X141145763Y-71796503D01*
X141253982Y-71825500D01*
X141253984Y-71825500D01*
X141366016Y-71825500D01*
X141366018Y-71825500D01*
X141474237Y-71796503D01*
X141571263Y-71740485D01*
X141650485Y-71661263D01*
X141706503Y-71564237D01*
X141735500Y-71456018D01*
X141735500Y-71343982D01*
X141706503Y-71235763D01*
X141650485Y-71138737D01*
X141571263Y-71059515D01*
X141474237Y-71003497D01*
X141366018Y-70974500D01*
X141253982Y-70974500D01*
X141145763Y-71003497D01*
X141145760Y-71003498D01*
X141048740Y-71059513D01*
X141048734Y-71059517D01*
X140969517Y-71138734D01*
X140969513Y-71138740D01*
X140913498Y-71235760D01*
X140913497Y-71235763D01*
X140884500Y-71343982D01*
X133844689Y-71343982D01*
X133896503Y-71254237D01*
X133925500Y-71146018D01*
X133925500Y-71033982D01*
X133896503Y-70925763D01*
X133840485Y-70828737D01*
X133761263Y-70749515D01*
X133664237Y-70693497D01*
X133556018Y-70664500D01*
X133443982Y-70664500D01*
X133335763Y-70693497D01*
X133335760Y-70693498D01*
X133238740Y-70749513D01*
X133238734Y-70749517D01*
X133159517Y-70828734D01*
X133159513Y-70828740D01*
X133103498Y-70925760D01*
X133103497Y-70925763D01*
X133074500Y-71033982D01*
X131225500Y-71033982D01*
X131196503Y-70925763D01*
X131140485Y-70828737D01*
X131061263Y-70749515D01*
X130964237Y-70693497D01*
X130856018Y-70664500D01*
X130743982Y-70664500D01*
X130635763Y-70693497D01*
X130635760Y-70693498D01*
X130538740Y-70749513D01*
X130538734Y-70749517D01*
X130459517Y-70828734D01*
X130459513Y-70828740D01*
X130403498Y-70925760D01*
X130403497Y-70925763D01*
X130374500Y-71033982D01*
X124977915Y-71033982D01*
X124871420Y-70989870D01*
X124871412Y-70989868D01*
X124668469Y-70949500D01*
X124668465Y-70949500D01*
X124461535Y-70949500D01*
X124461530Y-70949500D01*
X124258587Y-70989868D01*
X124258579Y-70989870D01*
X124067403Y-71069058D01*
X123895342Y-71184024D01*
X123749024Y-71330342D01*
X123634058Y-71502403D01*
X123554870Y-71693579D01*
X123554868Y-71693587D01*
X123514500Y-71896530D01*
X122514913Y-71896530D01*
X122502445Y-71850000D01*
X123174999Y-71850000D01*
X123174999Y-71105214D01*
X123174997Y-71105191D01*
X123172091Y-71080130D01*
X123172090Y-71080126D01*
X123126788Y-70977525D01*
X123126785Y-70977520D01*
X123047479Y-70898214D01*
X123047474Y-70898211D01*
X122944876Y-70852910D01*
X122919794Y-70850000D01*
X122175000Y-70850000D01*
X122175000Y-71522554D01*
X122090826Y-71500000D01*
X121959174Y-71500000D01*
X121875000Y-71522554D01*
X121875000Y-70850000D01*
X121130214Y-70850000D01*
X121130191Y-70850002D01*
X121105130Y-70852908D01*
X121105126Y-70852909D01*
X121002525Y-70898211D01*
X121002520Y-70898214D01*
X120923214Y-70977520D01*
X120923211Y-70977525D01*
X120877910Y-71080122D01*
X120877910Y-71080124D01*
X120875000Y-71105205D01*
X110000500Y-71105205D01*
X110000500Y-70443982D01*
X153094500Y-70443982D01*
X153094500Y-70556018D01*
X153123497Y-70664237D01*
X153179515Y-70761263D01*
X153258737Y-70840485D01*
X153355763Y-70896503D01*
X153463982Y-70925500D01*
X153463984Y-70925500D01*
X153576016Y-70925500D01*
X153576018Y-70925500D01*
X153684237Y-70896503D01*
X153781263Y-70840485D01*
X153860485Y-70761263D01*
X153916503Y-70664237D01*
X153945500Y-70556018D01*
X153945500Y-70443982D01*
X153916503Y-70335763D01*
X153879418Y-70271530D01*
X164974500Y-70271530D01*
X164974500Y-70478469D01*
X165014868Y-70681412D01*
X165014870Y-70681420D01*
X165084698Y-70850000D01*
X165094059Y-70872598D01*
X165145443Y-70949500D01*
X165209024Y-71044657D01*
X165355342Y-71190975D01*
X165355345Y-71190977D01*
X165527402Y-71305941D01*
X165718580Y-71385130D01*
X165921530Y-71425499D01*
X165921534Y-71425500D01*
X165921535Y-71425500D01*
X166128466Y-71425500D01*
X166128467Y-71425499D01*
X166331420Y-71385130D01*
X166522598Y-71305941D01*
X166694655Y-71190977D01*
X166840977Y-71044655D01*
X166955941Y-70872598D01*
X167035130Y-70681420D01*
X167075500Y-70478465D01*
X167075500Y-70271535D01*
X167035130Y-70068580D01*
X166955941Y-69877402D01*
X166840977Y-69705345D01*
X166840975Y-69705342D01*
X166694657Y-69559024D01*
X166608626Y-69501541D01*
X166522598Y-69444059D01*
X166522412Y-69443982D01*
X166331420Y-69364870D01*
X166331412Y-69364868D01*
X166128469Y-69324500D01*
X166128465Y-69324500D01*
X165921535Y-69324500D01*
X165921530Y-69324500D01*
X165718587Y-69364868D01*
X165718579Y-69364870D01*
X165527403Y-69444058D01*
X165355342Y-69559024D01*
X165209024Y-69705342D01*
X165094058Y-69877403D01*
X165014870Y-70068579D01*
X165014868Y-70068587D01*
X164974500Y-70271530D01*
X153879418Y-70271530D01*
X153860485Y-70238737D01*
X153781263Y-70159515D01*
X153684237Y-70103497D01*
X153576018Y-70074500D01*
X153463982Y-70074500D01*
X153355763Y-70103497D01*
X153355760Y-70103498D01*
X153258740Y-70159513D01*
X153258734Y-70159517D01*
X153179517Y-70238734D01*
X153179513Y-70238740D01*
X153123498Y-70335760D01*
X153123497Y-70335763D01*
X153094500Y-70443982D01*
X110000500Y-70443982D01*
X110000500Y-68230247D01*
X111949500Y-68230247D01*
X111949500Y-69969752D01*
X111961131Y-70028229D01*
X111961132Y-70028230D01*
X112005447Y-70094552D01*
X112071769Y-70138867D01*
X112071770Y-70138868D01*
X112130247Y-70150499D01*
X112130250Y-70150500D01*
X112130252Y-70150500D01*
X113869750Y-70150500D01*
X113869751Y-70150499D01*
X113884568Y-70147552D01*
X113928229Y-70138868D01*
X113928229Y-70138867D01*
X113928231Y-70138867D01*
X113994552Y-70094552D01*
X114038867Y-70028231D01*
X114038867Y-70028229D01*
X114038868Y-70028229D01*
X114050499Y-69969752D01*
X114050500Y-69969750D01*
X114050500Y-69443982D01*
X138574500Y-69443982D01*
X138574500Y-69556018D01*
X138603497Y-69664237D01*
X138659515Y-69761263D01*
X138738737Y-69840485D01*
X138835763Y-69896503D01*
X138943982Y-69925500D01*
X138943984Y-69925500D01*
X139056016Y-69925500D01*
X139056018Y-69925500D01*
X139164237Y-69896503D01*
X139261263Y-69840485D01*
X139340485Y-69761263D01*
X139396503Y-69664237D01*
X139425500Y-69556018D01*
X139425500Y-69443982D01*
X139396503Y-69335763D01*
X139340485Y-69238737D01*
X139261263Y-69159515D01*
X139164237Y-69103497D01*
X139056018Y-69074500D01*
X138943982Y-69074500D01*
X138835763Y-69103497D01*
X138835760Y-69103498D01*
X138738740Y-69159513D01*
X138738734Y-69159517D01*
X138659517Y-69238734D01*
X138659513Y-69238740D01*
X138603498Y-69335760D01*
X138603497Y-69335763D01*
X138574500Y-69443982D01*
X114050500Y-69443982D01*
X114050500Y-68743982D01*
X136874500Y-68743982D01*
X136874500Y-68856018D01*
X136903497Y-68964237D01*
X136959515Y-69061263D01*
X137038737Y-69140485D01*
X137135763Y-69196503D01*
X137243982Y-69225500D01*
X137243984Y-69225500D01*
X137356016Y-69225500D01*
X137356018Y-69225500D01*
X137464237Y-69196503D01*
X137561263Y-69140485D01*
X137640485Y-69061263D01*
X137696503Y-68964237D01*
X137725500Y-68856018D01*
X137725500Y-68743982D01*
X137696503Y-68635763D01*
X137640485Y-68538737D01*
X137561263Y-68459515D01*
X137464237Y-68403497D01*
X137356018Y-68374500D01*
X137243982Y-68374500D01*
X137135763Y-68403497D01*
X137135760Y-68403498D01*
X137038740Y-68459513D01*
X137038734Y-68459517D01*
X136959517Y-68538734D01*
X136959513Y-68538740D01*
X136903498Y-68635760D01*
X136903497Y-68635763D01*
X136874500Y-68743982D01*
X114050500Y-68743982D01*
X114050500Y-68343982D01*
X149874500Y-68343982D01*
X149874500Y-68456018D01*
X149903497Y-68564237D01*
X149959515Y-68661263D01*
X150038737Y-68740485D01*
X150135763Y-68796503D01*
X150243982Y-68825500D01*
X150243984Y-68825500D01*
X150356016Y-68825500D01*
X150356018Y-68825500D01*
X150464237Y-68796503D01*
X150561263Y-68740485D01*
X150640485Y-68661263D01*
X150696503Y-68564237D01*
X150725500Y-68456018D01*
X150725500Y-68343982D01*
X150696503Y-68235763D01*
X150640485Y-68138737D01*
X150561263Y-68059515D01*
X150464237Y-68003497D01*
X150356018Y-67974500D01*
X150243982Y-67974500D01*
X150135763Y-68003497D01*
X150135760Y-68003498D01*
X150038740Y-68059513D01*
X150038734Y-68059517D01*
X149959517Y-68138734D01*
X149959513Y-68138740D01*
X149903498Y-68235760D01*
X149903497Y-68235763D01*
X149874500Y-68343982D01*
X114050500Y-68343982D01*
X114050500Y-68230249D01*
X114050499Y-68230247D01*
X114038868Y-68171770D01*
X114038867Y-68171769D01*
X113994552Y-68105447D01*
X113928230Y-68061132D01*
X113928229Y-68061131D01*
X113869752Y-68049500D01*
X113869748Y-68049500D01*
X112130252Y-68049500D01*
X112130247Y-68049500D01*
X112071770Y-68061131D01*
X112071769Y-68061132D01*
X112005447Y-68105447D01*
X111961132Y-68171769D01*
X111961131Y-68171770D01*
X111949500Y-68230247D01*
X110000500Y-68230247D01*
X110000500Y-67743982D01*
X148174500Y-67743982D01*
X148174500Y-67856018D01*
X148203497Y-67964237D01*
X148259515Y-68061263D01*
X148338737Y-68140485D01*
X148435763Y-68196503D01*
X148543982Y-68225500D01*
X148543984Y-68225500D01*
X148656016Y-68225500D01*
X148656018Y-68225500D01*
X148764237Y-68196503D01*
X148861263Y-68140485D01*
X148940485Y-68061263D01*
X148996503Y-67964237D01*
X149025500Y-67856018D01*
X149025500Y-67743982D01*
X149022164Y-67731530D01*
X164974500Y-67731530D01*
X164974500Y-67938469D01*
X165014868Y-68141412D01*
X165014870Y-68141420D01*
X165051663Y-68230247D01*
X165094059Y-68332598D01*
X165101667Y-68343984D01*
X165209024Y-68504657D01*
X165355342Y-68650975D01*
X165355345Y-68650977D01*
X165527402Y-68765941D01*
X165718580Y-68845130D01*
X165921530Y-68885499D01*
X165921534Y-68885500D01*
X165921535Y-68885500D01*
X166128466Y-68885500D01*
X166128467Y-68885499D01*
X166331420Y-68845130D01*
X166522598Y-68765941D01*
X166694655Y-68650977D01*
X166840977Y-68504655D01*
X166955941Y-68332598D01*
X167035130Y-68141420D01*
X167075500Y-67938465D01*
X167075500Y-67731535D01*
X167035130Y-67528580D01*
X166955941Y-67337402D01*
X166840977Y-67165345D01*
X166840975Y-67165342D01*
X166694657Y-67019024D01*
X166582347Y-66943982D01*
X166522598Y-66904059D01*
X166331420Y-66824870D01*
X166331412Y-66824868D01*
X166128469Y-66784500D01*
X166128465Y-66784500D01*
X165921535Y-66784500D01*
X165921530Y-66784500D01*
X165718587Y-66824868D01*
X165718579Y-66824870D01*
X165527403Y-66904058D01*
X165355342Y-67019024D01*
X165209024Y-67165342D01*
X165094058Y-67337403D01*
X165014870Y-67528579D01*
X165014868Y-67528587D01*
X164974500Y-67731530D01*
X149022164Y-67731530D01*
X148996503Y-67635763D01*
X148940485Y-67538737D01*
X148861263Y-67459515D01*
X148764237Y-67403497D01*
X148656018Y-67374500D01*
X148543982Y-67374500D01*
X148435763Y-67403497D01*
X148435760Y-67403498D01*
X148338740Y-67459513D01*
X148338734Y-67459517D01*
X148259517Y-67538734D01*
X148259513Y-67538740D01*
X148203498Y-67635760D01*
X148203497Y-67635763D01*
X148174500Y-67743982D01*
X110000500Y-67743982D01*
X110000500Y-66469493D01*
X111850000Y-66469493D01*
X111850000Y-66650506D01*
X111878317Y-66829293D01*
X111934251Y-67001444D01*
X111934252Y-67001447D01*
X112016432Y-67162731D01*
X112087424Y-67260442D01*
X112087425Y-67260443D01*
X112556329Y-66791538D01*
X112599901Y-66867007D01*
X112692993Y-66960099D01*
X112768460Y-67003670D01*
X112299555Y-67472574D01*
X112397268Y-67543567D01*
X112558552Y-67625747D01*
X112558555Y-67625748D01*
X112730706Y-67681682D01*
X112909494Y-67710000D01*
X113090506Y-67710000D01*
X113269293Y-67681682D01*
X113441444Y-67625748D01*
X113441446Y-67625747D01*
X113442185Y-67625371D01*
X113442186Y-67625370D01*
X113442187Y-67625370D01*
X113602730Y-67543568D01*
X113700442Y-67472574D01*
X113700443Y-67472574D01*
X113231539Y-67003670D01*
X113307007Y-66960099D01*
X113400099Y-66867007D01*
X113443670Y-66791539D01*
X113912574Y-67260443D01*
X113912574Y-67260442D01*
X113983568Y-67162730D01*
X114065747Y-67001447D01*
X114065749Y-67001441D01*
X114084418Y-66943982D01*
X141534500Y-66943982D01*
X141534500Y-67056018D01*
X141563497Y-67164237D01*
X141619515Y-67261263D01*
X141698737Y-67340485D01*
X141795763Y-67396503D01*
X141903982Y-67425500D01*
X141903984Y-67425500D01*
X142016016Y-67425500D01*
X142016018Y-67425500D01*
X142124237Y-67396503D01*
X142221263Y-67340485D01*
X142300485Y-67261263D01*
X142356503Y-67164237D01*
X142385500Y-67056018D01*
X142385500Y-66943982D01*
X142356503Y-66835763D01*
X142300485Y-66738737D01*
X142221263Y-66659515D01*
X142140974Y-66613160D01*
X142092758Y-66562593D01*
X142079535Y-66493986D01*
X142105504Y-66429121D01*
X142140975Y-66398385D01*
X142144232Y-66396504D01*
X142144237Y-66396503D01*
X142241263Y-66340485D01*
X142320485Y-66261263D01*
X142376503Y-66164237D01*
X142405500Y-66056018D01*
X142405500Y-65943982D01*
X142376503Y-65835763D01*
X142320485Y-65738737D01*
X142241263Y-65659515D01*
X142144237Y-65603497D01*
X142036018Y-65574500D01*
X141923982Y-65574500D01*
X141815763Y-65603497D01*
X141815760Y-65603498D01*
X141718740Y-65659513D01*
X141718734Y-65659517D01*
X141639517Y-65738734D01*
X141639513Y-65738740D01*
X141583498Y-65835760D01*
X141583497Y-65835763D01*
X141554500Y-65943982D01*
X141554500Y-66056018D01*
X141583497Y-66164237D01*
X141639515Y-66261263D01*
X141718737Y-66340485D01*
X141799025Y-66386839D01*
X141847240Y-66437406D01*
X141860464Y-66506013D01*
X141834496Y-66570877D01*
X141799026Y-66601613D01*
X141698737Y-66659515D01*
X141698734Y-66659517D01*
X141619517Y-66738734D01*
X141619513Y-66738740D01*
X141563498Y-66835760D01*
X141563497Y-66835763D01*
X141534500Y-66943982D01*
X114084418Y-66943982D01*
X114099509Y-66897538D01*
X114099509Y-66897537D01*
X114121682Y-66829292D01*
X114150000Y-66650506D01*
X114150000Y-66469493D01*
X114121682Y-66290706D01*
X114065748Y-66118555D01*
X114065747Y-66118552D01*
X114052294Y-66092150D01*
X114027751Y-66043982D01*
X127274500Y-66043982D01*
X127274500Y-66156018D01*
X127303497Y-66264237D01*
X127359515Y-66361263D01*
X127438737Y-66440485D01*
X127535763Y-66496503D01*
X127643982Y-66525500D01*
X127643984Y-66525500D01*
X127756016Y-66525500D01*
X127756018Y-66525500D01*
X127864237Y-66496503D01*
X127961263Y-66440485D01*
X128040485Y-66361263D01*
X128096503Y-66264237D01*
X128125500Y-66156018D01*
X128125500Y-66043982D01*
X128096503Y-65935763D01*
X128040485Y-65838737D01*
X127961263Y-65759515D01*
X127864237Y-65703497D01*
X127756018Y-65674500D01*
X127643982Y-65674500D01*
X127535763Y-65703497D01*
X127535760Y-65703498D01*
X127438740Y-65759513D01*
X127438734Y-65759517D01*
X127359517Y-65838734D01*
X127359513Y-65838740D01*
X127303498Y-65935760D01*
X127303497Y-65935763D01*
X127274500Y-66043982D01*
X114027751Y-66043982D01*
X113983567Y-65957268D01*
X113912574Y-65859556D01*
X113912574Y-65859555D01*
X113443670Y-66328460D01*
X113400099Y-66252993D01*
X113307007Y-66159901D01*
X113231539Y-66116329D01*
X113700443Y-65647425D01*
X113700442Y-65647424D01*
X113602731Y-65576432D01*
X113441447Y-65494252D01*
X113441444Y-65494251D01*
X113269293Y-65438317D01*
X113090506Y-65410000D01*
X112909494Y-65410000D01*
X112730706Y-65438317D01*
X112558555Y-65494251D01*
X112558552Y-65494252D01*
X112397265Y-65576434D01*
X112299556Y-65647423D01*
X112299556Y-65647425D01*
X112768461Y-66116329D01*
X112692993Y-66159901D01*
X112599901Y-66252993D01*
X112556329Y-66328460D01*
X112087425Y-65859556D01*
X112087423Y-65859556D01*
X112016434Y-65957265D01*
X111934252Y-66118552D01*
X111934251Y-66118555D01*
X111878317Y-66290706D01*
X111850000Y-66469493D01*
X110000500Y-66469493D01*
X110000500Y-63916530D01*
X111949500Y-63916530D01*
X111949500Y-64123469D01*
X111989868Y-64326412D01*
X111989870Y-64326420D01*
X112069058Y-64517596D01*
X112184024Y-64689657D01*
X112330342Y-64835975D01*
X112330345Y-64835977D01*
X112502402Y-64950941D01*
X112693580Y-65030130D01*
X112865044Y-65064236D01*
X112896530Y-65070499D01*
X112896534Y-65070500D01*
X112896535Y-65070500D01*
X113103466Y-65070500D01*
X113103467Y-65070499D01*
X113306420Y-65030130D01*
X113497598Y-64950941D01*
X113669655Y-64835977D01*
X113815977Y-64689655D01*
X113930941Y-64517598D01*
X114010130Y-64326420D01*
X114016582Y-64293982D01*
X141574500Y-64293982D01*
X141574500Y-64406018D01*
X141603497Y-64514237D01*
X141659515Y-64611263D01*
X141738737Y-64690485D01*
X141835763Y-64746503D01*
X141943982Y-64775500D01*
X141943984Y-64775500D01*
X142056016Y-64775500D01*
X142056018Y-64775500D01*
X142164237Y-64746503D01*
X142261263Y-64690485D01*
X142340485Y-64611263D01*
X142396503Y-64514237D01*
X142415328Y-64443982D01*
X145054500Y-64443982D01*
X145054500Y-64556018D01*
X145083497Y-64664237D01*
X145139515Y-64761263D01*
X145218737Y-64840485D01*
X145315763Y-64896503D01*
X145423982Y-64925500D01*
X145423984Y-64925500D01*
X145536016Y-64925500D01*
X145536018Y-64925500D01*
X145644237Y-64896503D01*
X145735206Y-64843982D01*
X149074500Y-64843982D01*
X149074500Y-64956018D01*
X149103497Y-65064237D01*
X149159515Y-65161263D01*
X149238737Y-65240485D01*
X149335763Y-65296503D01*
X149443982Y-65325500D01*
X149443984Y-65325500D01*
X149556016Y-65325500D01*
X149556018Y-65325500D01*
X149664237Y-65296503D01*
X149761263Y-65240485D01*
X149810218Y-65191530D01*
X164974500Y-65191530D01*
X164974500Y-65398469D01*
X165014868Y-65601412D01*
X165014870Y-65601420D01*
X165094058Y-65792596D01*
X165209024Y-65964657D01*
X165355342Y-66110975D01*
X165355345Y-66110977D01*
X165527402Y-66225941D01*
X165718580Y-66305130D01*
X165896308Y-66340482D01*
X165921530Y-66345499D01*
X165921534Y-66345500D01*
X165921535Y-66345500D01*
X166128466Y-66345500D01*
X166128467Y-66345499D01*
X166331420Y-66305130D01*
X166522598Y-66225941D01*
X166694655Y-66110977D01*
X166840977Y-65964655D01*
X166955941Y-65792598D01*
X167035130Y-65601420D01*
X167075500Y-65398465D01*
X167075500Y-65191535D01*
X167035130Y-64988580D01*
X166955941Y-64797402D01*
X166840977Y-64625345D01*
X166840975Y-64625342D01*
X166694657Y-64479024D01*
X166608626Y-64421541D01*
X166522598Y-64364059D01*
X166331420Y-64284870D01*
X166331412Y-64284868D01*
X166128469Y-64244500D01*
X166128465Y-64244500D01*
X165921535Y-64244500D01*
X165921530Y-64244500D01*
X165718587Y-64284868D01*
X165718579Y-64284870D01*
X165527403Y-64364058D01*
X165355342Y-64479024D01*
X165209024Y-64625342D01*
X165094058Y-64797403D01*
X165014870Y-64988579D01*
X165014868Y-64988587D01*
X164974500Y-65191530D01*
X149810218Y-65191530D01*
X149840485Y-65161263D01*
X149896503Y-65064237D01*
X149925500Y-64956018D01*
X149925500Y-64843982D01*
X149896503Y-64735763D01*
X149840485Y-64638737D01*
X149761263Y-64559515D01*
X149682839Y-64514237D01*
X149664239Y-64503498D01*
X149664238Y-64503497D01*
X149664237Y-64503497D01*
X149556018Y-64474500D01*
X149443982Y-64474500D01*
X149335763Y-64503497D01*
X149335760Y-64503498D01*
X149238740Y-64559513D01*
X149238734Y-64559517D01*
X149159517Y-64638734D01*
X149159513Y-64638740D01*
X149103498Y-64735760D01*
X149103497Y-64735763D01*
X149074500Y-64843982D01*
X145735206Y-64843982D01*
X145741263Y-64840485D01*
X145820485Y-64761263D01*
X145876503Y-64664237D01*
X145905500Y-64556018D01*
X145905500Y-64443982D01*
X145876503Y-64335763D01*
X145820485Y-64238737D01*
X145741263Y-64159515D01*
X145644237Y-64103497D01*
X145536018Y-64074500D01*
X145423982Y-64074500D01*
X145315763Y-64103497D01*
X145315760Y-64103498D01*
X145218740Y-64159513D01*
X145218734Y-64159517D01*
X145139517Y-64238734D01*
X145139513Y-64238740D01*
X145083498Y-64335760D01*
X145083497Y-64335763D01*
X145054500Y-64443982D01*
X142415328Y-64443982D01*
X142425500Y-64406018D01*
X142425500Y-64293982D01*
X142396503Y-64185763D01*
X142340485Y-64088737D01*
X142261263Y-64009515D01*
X142182839Y-63964237D01*
X142164239Y-63953498D01*
X142164238Y-63953497D01*
X142164237Y-63953497D01*
X142056018Y-63924500D01*
X141943982Y-63924500D01*
X141835763Y-63953497D01*
X141835760Y-63953498D01*
X141738740Y-64009513D01*
X141738734Y-64009517D01*
X141659517Y-64088734D01*
X141659513Y-64088740D01*
X141603498Y-64185760D01*
X141603497Y-64185763D01*
X141574500Y-64293982D01*
X114016582Y-64293982D01*
X114050500Y-64123465D01*
X114050500Y-63916535D01*
X114010130Y-63713580D01*
X113930941Y-63522402D01*
X113919142Y-63504744D01*
X113919142Y-63504742D01*
X113878544Y-63443982D01*
X126774500Y-63443982D01*
X126774500Y-63556018D01*
X126803497Y-63664237D01*
X126859515Y-63761263D01*
X126938737Y-63840485D01*
X127035763Y-63896503D01*
X127143982Y-63925500D01*
X127143984Y-63925500D01*
X127256016Y-63925500D01*
X127256018Y-63925500D01*
X127364237Y-63896503D01*
X127461263Y-63840485D01*
X127540485Y-63761263D01*
X127550462Y-63743982D01*
X147674500Y-63743982D01*
X147674500Y-63856018D01*
X147703497Y-63964237D01*
X147759515Y-64061263D01*
X147838737Y-64140485D01*
X147935763Y-64196503D01*
X148043982Y-64225500D01*
X148043984Y-64225500D01*
X148156016Y-64225500D01*
X148156018Y-64225500D01*
X148264237Y-64196503D01*
X148361263Y-64140485D01*
X148440485Y-64061263D01*
X148496503Y-63964237D01*
X148525500Y-63856018D01*
X148525500Y-63743982D01*
X149874500Y-63743982D01*
X149874500Y-63856018D01*
X149903497Y-63964237D01*
X149959515Y-64061263D01*
X150038737Y-64140485D01*
X150135763Y-64196503D01*
X150243982Y-64225500D01*
X150243984Y-64225500D01*
X150356016Y-64225500D01*
X150356018Y-64225500D01*
X150464237Y-64196503D01*
X150561263Y-64140485D01*
X150640485Y-64061263D01*
X150696503Y-63964237D01*
X150725500Y-63856018D01*
X150725500Y-63743982D01*
X150696503Y-63635763D01*
X150640485Y-63538737D01*
X150561263Y-63459515D01*
X150464237Y-63403497D01*
X150356018Y-63374500D01*
X150243982Y-63374500D01*
X150135763Y-63403497D01*
X150135760Y-63403498D01*
X150038740Y-63459513D01*
X150038734Y-63459517D01*
X149959517Y-63538734D01*
X149959513Y-63538740D01*
X149903498Y-63635760D01*
X149903497Y-63635763D01*
X149874500Y-63743982D01*
X148525500Y-63743982D01*
X148496503Y-63635763D01*
X148440485Y-63538737D01*
X148361263Y-63459515D01*
X148264237Y-63403497D01*
X148156018Y-63374500D01*
X148043982Y-63374500D01*
X147935763Y-63403497D01*
X147935760Y-63403498D01*
X147838740Y-63459513D01*
X147838734Y-63459517D01*
X147759517Y-63538734D01*
X147759513Y-63538740D01*
X147703498Y-63635760D01*
X147703497Y-63635763D01*
X147674500Y-63743982D01*
X127550462Y-63743982D01*
X127596503Y-63664237D01*
X127625500Y-63556018D01*
X127625500Y-63443982D01*
X127596503Y-63335763D01*
X127540485Y-63238737D01*
X127461263Y-63159515D01*
X127364237Y-63103497D01*
X127256018Y-63074500D01*
X127143982Y-63074500D01*
X127035763Y-63103497D01*
X127035760Y-63103498D01*
X126938740Y-63159513D01*
X126938734Y-63159517D01*
X126859517Y-63238734D01*
X126859513Y-63238740D01*
X126803498Y-63335760D01*
X126803497Y-63335763D01*
X126774500Y-63443982D01*
X113878544Y-63443982D01*
X113815980Y-63350349D01*
X113815974Y-63350341D01*
X113669657Y-63204024D01*
X113497596Y-63089057D01*
X113343951Y-63025416D01*
X113306420Y-63009870D01*
X113306412Y-63009868D01*
X113103469Y-62969500D01*
X113103465Y-62969500D01*
X112896535Y-62969500D01*
X112896530Y-62969500D01*
X112693587Y-63009868D01*
X112693579Y-63009870D01*
X112502403Y-63089058D01*
X112330342Y-63204024D01*
X112184024Y-63350342D01*
X112069058Y-63522403D01*
X111989870Y-63713579D01*
X111989868Y-63713587D01*
X111949500Y-63916530D01*
X110000500Y-63916530D01*
X110000500Y-62918982D01*
X143749500Y-62918982D01*
X143749500Y-63031018D01*
X143765052Y-63089057D01*
X143778497Y-63139236D01*
X143778498Y-63139239D01*
X143790206Y-63159517D01*
X143834515Y-63236263D01*
X143913737Y-63315485D01*
X144010763Y-63371503D01*
X144118982Y-63400500D01*
X144118984Y-63400500D01*
X144231016Y-63400500D01*
X144231018Y-63400500D01*
X144339237Y-63371503D01*
X144436263Y-63315485D01*
X144515485Y-63236263D01*
X144571503Y-63139237D01*
X144600500Y-63031018D01*
X144600500Y-62918982D01*
X144571503Y-62810763D01*
X144515485Y-62713737D01*
X144453278Y-62651530D01*
X164974500Y-62651530D01*
X164974500Y-62858469D01*
X165014868Y-63061412D01*
X165014870Y-63061420D01*
X165088317Y-63238737D01*
X165094059Y-63252598D01*
X165136079Y-63315486D01*
X165209024Y-63424657D01*
X165355342Y-63570975D01*
X165355345Y-63570977D01*
X165527402Y-63685941D01*
X165718580Y-63765130D01*
X165921530Y-63805499D01*
X165921534Y-63805500D01*
X165921535Y-63805500D01*
X166128466Y-63805500D01*
X166128467Y-63805499D01*
X166331420Y-63765130D01*
X166522598Y-63685941D01*
X166694655Y-63570977D01*
X166840977Y-63424655D01*
X166955941Y-63252598D01*
X167035130Y-63061420D01*
X167075500Y-62858465D01*
X167075500Y-62651535D01*
X167035130Y-62448580D01*
X166955941Y-62257402D01*
X166840977Y-62085345D01*
X166840975Y-62085342D01*
X166694657Y-61939024D01*
X166608626Y-61881541D01*
X166522598Y-61824059D01*
X166331420Y-61744870D01*
X166331412Y-61744868D01*
X166128469Y-61704500D01*
X166128465Y-61704500D01*
X165921535Y-61704500D01*
X165921530Y-61704500D01*
X165718587Y-61744868D01*
X165718579Y-61744870D01*
X165527403Y-61824058D01*
X165355342Y-61939024D01*
X165209024Y-62085342D01*
X165094058Y-62257403D01*
X165014870Y-62448579D01*
X165014868Y-62448587D01*
X164974500Y-62651530D01*
X144453278Y-62651530D01*
X144436263Y-62634515D01*
X144339237Y-62578497D01*
X144231018Y-62549500D01*
X144118982Y-62549500D01*
X144010763Y-62578497D01*
X144010760Y-62578498D01*
X143913740Y-62634513D01*
X143913734Y-62634517D01*
X143834517Y-62713734D01*
X143834513Y-62713740D01*
X143778498Y-62810760D01*
X143778497Y-62810763D01*
X143749500Y-62918982D01*
X110000500Y-62918982D01*
X110000500Y-61376530D01*
X111949500Y-61376530D01*
X111949500Y-61583469D01*
X111989868Y-61786412D01*
X111989870Y-61786420D01*
X112053080Y-61939023D01*
X112069059Y-61977598D01*
X112113415Y-62043982D01*
X112184024Y-62149657D01*
X112330342Y-62295975D01*
X112330345Y-62295977D01*
X112502402Y-62410941D01*
X112693580Y-62490130D01*
X112871393Y-62525499D01*
X112896530Y-62530499D01*
X112896534Y-62530500D01*
X112896535Y-62530500D01*
X113103466Y-62530500D01*
X113103467Y-62530499D01*
X113306420Y-62490130D01*
X113497598Y-62410941D01*
X113669655Y-62295977D01*
X113815977Y-62149655D01*
X113886585Y-62043982D01*
X125474500Y-62043982D01*
X125474500Y-62156018D01*
X125503497Y-62264237D01*
X125559515Y-62361263D01*
X125638737Y-62440485D01*
X125735763Y-62496503D01*
X125843982Y-62525500D01*
X125843984Y-62525500D01*
X125956016Y-62525500D01*
X125956018Y-62525500D01*
X126064237Y-62496503D01*
X126161263Y-62440485D01*
X126240485Y-62361263D01*
X126296503Y-62264237D01*
X126325500Y-62156018D01*
X126325500Y-62043982D01*
X126296503Y-61935763D01*
X126240485Y-61838737D01*
X126161263Y-61759515D01*
X126096579Y-61722169D01*
X126064239Y-61703498D01*
X126064238Y-61703497D01*
X126064237Y-61703497D01*
X125956018Y-61674500D01*
X125843982Y-61674500D01*
X125735763Y-61703497D01*
X125735760Y-61703498D01*
X125638740Y-61759513D01*
X125638734Y-61759517D01*
X125559517Y-61838734D01*
X125559513Y-61838740D01*
X125503498Y-61935760D01*
X125503497Y-61935763D01*
X125474500Y-62043982D01*
X113886585Y-62043982D01*
X113930941Y-61977598D01*
X114010130Y-61786420D01*
X114050500Y-61583465D01*
X114050500Y-61376535D01*
X114010130Y-61173580D01*
X113930941Y-60982402D01*
X113815977Y-60810345D01*
X113815975Y-60810342D01*
X113669657Y-60664024D01*
X113632142Y-60638958D01*
X113632140Y-60638955D01*
X113497599Y-60549059D01*
X113485342Y-60543982D01*
X137274500Y-60543982D01*
X137274500Y-60656018D01*
X137303497Y-60764237D01*
X137359515Y-60861263D01*
X137438737Y-60940485D01*
X137535763Y-60996503D01*
X137643982Y-61025500D01*
X137643984Y-61025500D01*
X137756016Y-61025500D01*
X137756018Y-61025500D01*
X137864237Y-60996503D01*
X137961263Y-60940485D01*
X137962319Y-60939429D01*
X137963426Y-60938824D01*
X137967709Y-60935538D01*
X137968221Y-60936205D01*
X138023642Y-60905944D01*
X138093334Y-60910928D01*
X138132071Y-60935823D01*
X138132291Y-60935538D01*
X138135715Y-60938165D01*
X138137681Y-60939429D01*
X138138737Y-60940485D01*
X138235763Y-60996503D01*
X138343982Y-61025500D01*
X138343984Y-61025500D01*
X138456016Y-61025500D01*
X138456018Y-61025500D01*
X138564237Y-60996503D01*
X138627979Y-60959701D01*
X138695877Y-60943228D01*
X138761904Y-60966080D01*
X138777659Y-60979407D01*
X138838737Y-61040485D01*
X138935763Y-61096503D01*
X139043982Y-61125500D01*
X139043984Y-61125500D01*
X139156016Y-61125500D01*
X139156018Y-61125500D01*
X139264237Y-61096503D01*
X139361263Y-61040485D01*
X139440485Y-60961263D01*
X139496503Y-60864237D01*
X139525500Y-60756018D01*
X139525500Y-60643982D01*
X139496503Y-60535763D01*
X139443513Y-60443982D01*
X145874500Y-60443982D01*
X145874500Y-60556018D01*
X145903497Y-60664237D01*
X145959515Y-60761263D01*
X146038737Y-60840485D01*
X146135763Y-60896503D01*
X146243982Y-60925500D01*
X146243984Y-60925500D01*
X146356016Y-60925500D01*
X146356018Y-60925500D01*
X146464237Y-60896503D01*
X146561263Y-60840485D01*
X146640485Y-60761263D01*
X146696503Y-60664237D01*
X146725500Y-60556018D01*
X146725500Y-60443982D01*
X146696503Y-60335763D01*
X146640485Y-60238737D01*
X146561263Y-60159515D01*
X146500603Y-60124493D01*
X164875000Y-60124493D01*
X164875000Y-60305506D01*
X164903317Y-60484293D01*
X164959251Y-60656444D01*
X164959252Y-60656447D01*
X165041432Y-60817731D01*
X165112424Y-60915442D01*
X165112425Y-60915443D01*
X165581329Y-60446538D01*
X165624901Y-60522007D01*
X165717993Y-60615099D01*
X165793460Y-60658670D01*
X165324555Y-61127574D01*
X165422268Y-61198567D01*
X165583552Y-61280747D01*
X165583555Y-61280748D01*
X165755706Y-61336682D01*
X165934494Y-61365000D01*
X166115506Y-61365000D01*
X166294293Y-61336682D01*
X166466444Y-61280748D01*
X166466447Y-61280747D01*
X166627730Y-61198568D01*
X166725442Y-61127574D01*
X166725443Y-61127574D01*
X166256539Y-60658670D01*
X166332007Y-60615099D01*
X166425099Y-60522007D01*
X166468670Y-60446538D01*
X166937574Y-60915443D01*
X166937574Y-60915442D01*
X167008568Y-60817730D01*
X167090747Y-60656447D01*
X167090748Y-60656444D01*
X167146682Y-60484293D01*
X167175000Y-60305506D01*
X167175000Y-60124493D01*
X167146682Y-59945706D01*
X167090748Y-59773555D01*
X167090747Y-59773552D01*
X167008567Y-59612268D01*
X166937574Y-59514556D01*
X166937574Y-59514555D01*
X166468670Y-59983460D01*
X166425099Y-59907993D01*
X166332007Y-59814901D01*
X166256539Y-59771329D01*
X166725443Y-59302425D01*
X166725442Y-59302424D01*
X166627731Y-59231432D01*
X166466447Y-59149252D01*
X166466444Y-59149251D01*
X166294293Y-59093317D01*
X166115506Y-59065000D01*
X165934494Y-59065000D01*
X165755706Y-59093317D01*
X165583555Y-59149251D01*
X165583552Y-59149252D01*
X165422265Y-59231434D01*
X165324556Y-59302423D01*
X165324556Y-59302425D01*
X165793461Y-59771329D01*
X165717993Y-59814901D01*
X165624901Y-59907993D01*
X165581329Y-59983460D01*
X165112425Y-59514556D01*
X165112423Y-59514556D01*
X165041434Y-59612265D01*
X164959252Y-59773552D01*
X164959251Y-59773555D01*
X164903317Y-59945706D01*
X164875000Y-60124493D01*
X146500603Y-60124493D01*
X146464237Y-60103497D01*
X146356018Y-60074500D01*
X146243982Y-60074500D01*
X146135763Y-60103497D01*
X146135760Y-60103498D01*
X146038740Y-60159513D01*
X146038734Y-60159517D01*
X145959517Y-60238734D01*
X145959513Y-60238740D01*
X145903498Y-60335760D01*
X145903497Y-60335763D01*
X145874500Y-60443982D01*
X139443513Y-60443982D01*
X139440485Y-60438737D01*
X139361263Y-60359515D01*
X139264237Y-60303497D01*
X139156018Y-60274500D01*
X139043982Y-60274500D01*
X138935763Y-60303497D01*
X138935760Y-60303498D01*
X138872021Y-60340298D01*
X138804120Y-60356771D01*
X138738093Y-60333918D01*
X138722340Y-60320592D01*
X138661265Y-60259517D01*
X138661263Y-60259515D01*
X138564237Y-60203497D01*
X138456018Y-60174500D01*
X138343982Y-60174500D01*
X138235763Y-60203497D01*
X138235760Y-60203498D01*
X138138740Y-60259513D01*
X138138734Y-60259517D01*
X138137675Y-60260577D01*
X138136562Y-60261184D01*
X138132291Y-60264462D01*
X138131779Y-60263795D01*
X138076349Y-60294057D01*
X138006658Y-60289068D01*
X137967927Y-60264177D01*
X137967709Y-60264462D01*
X137964301Y-60261847D01*
X137962325Y-60260577D01*
X137961265Y-60259517D01*
X137961263Y-60259515D01*
X137864237Y-60203497D01*
X137756018Y-60174500D01*
X137643982Y-60174500D01*
X137535763Y-60203497D01*
X137535760Y-60203498D01*
X137438740Y-60259513D01*
X137438734Y-60259517D01*
X137359517Y-60338734D01*
X137359513Y-60338740D01*
X137303498Y-60435760D01*
X137303497Y-60435763D01*
X137274500Y-60543982D01*
X113485342Y-60543982D01*
X113306420Y-60469870D01*
X113306412Y-60469868D01*
X113103469Y-60429500D01*
X113103465Y-60429500D01*
X112896535Y-60429500D01*
X112896530Y-60429500D01*
X112693587Y-60469868D01*
X112693579Y-60469870D01*
X112502403Y-60549058D01*
X112330342Y-60664024D01*
X112184024Y-60810342D01*
X112069058Y-60982403D01*
X111989870Y-61173579D01*
X111989868Y-61173587D01*
X111949500Y-61376530D01*
X110000500Y-61376530D01*
X110000500Y-58836530D01*
X111949500Y-58836530D01*
X111949500Y-59043469D01*
X111988342Y-59238740D01*
X111989870Y-59246420D01*
X112069059Y-59437598D01*
X112086860Y-59464239D01*
X112184024Y-59609657D01*
X112330342Y-59755975D01*
X112330345Y-59755977D01*
X112502402Y-59870941D01*
X112693580Y-59950130D01*
X112896530Y-59990499D01*
X112896534Y-59990500D01*
X112896535Y-59990500D01*
X113103466Y-59990500D01*
X113103467Y-59990499D01*
X113306420Y-59950130D01*
X113497598Y-59870941D01*
X113669655Y-59755977D01*
X113815977Y-59609655D01*
X113926675Y-59443982D01*
X119074500Y-59443982D01*
X119074500Y-59556018D01*
X119103497Y-59664237D01*
X119159515Y-59761263D01*
X119238737Y-59840485D01*
X119335763Y-59896503D01*
X119443982Y-59925500D01*
X119443984Y-59925500D01*
X119556016Y-59925500D01*
X119556018Y-59925500D01*
X119664237Y-59896503D01*
X119761263Y-59840485D01*
X119840485Y-59761263D01*
X119850462Y-59743982D01*
X129874500Y-59743982D01*
X129874500Y-59856018D01*
X129903497Y-59964237D01*
X129959515Y-60061263D01*
X130038737Y-60140485D01*
X130135763Y-60196503D01*
X130243982Y-60225500D01*
X130243984Y-60225500D01*
X130356016Y-60225500D01*
X130356018Y-60225500D01*
X130464237Y-60196503D01*
X130561263Y-60140485D01*
X130640485Y-60061263D01*
X130696503Y-59964237D01*
X130725500Y-59856018D01*
X130725500Y-59743982D01*
X130696503Y-59635763D01*
X130640485Y-59538737D01*
X130561263Y-59459515D01*
X130557027Y-59457069D01*
X130464239Y-59403498D01*
X130464238Y-59403497D01*
X130464237Y-59403497D01*
X130356018Y-59374500D01*
X130243982Y-59374500D01*
X130135763Y-59403497D01*
X130135760Y-59403498D01*
X130038740Y-59459513D01*
X130038734Y-59459517D01*
X129959517Y-59538734D01*
X129959513Y-59538740D01*
X129903498Y-59635760D01*
X129903497Y-59635763D01*
X129874500Y-59743982D01*
X119850462Y-59743982D01*
X119896503Y-59664237D01*
X119925500Y-59556018D01*
X119925500Y-59443982D01*
X119896503Y-59335763D01*
X119843513Y-59243982D01*
X124474500Y-59243982D01*
X124474500Y-59356018D01*
X124503497Y-59464237D01*
X124559515Y-59561263D01*
X124638737Y-59640485D01*
X124735763Y-59696503D01*
X124843982Y-59725500D01*
X124843984Y-59725500D01*
X124956016Y-59725500D01*
X124956018Y-59725500D01*
X125064237Y-59696503D01*
X125161263Y-59640485D01*
X125240485Y-59561263D01*
X125296503Y-59464237D01*
X125325500Y-59356018D01*
X125325500Y-59243982D01*
X125296503Y-59135763D01*
X125240485Y-59038737D01*
X125161263Y-58959515D01*
X125064237Y-58903497D01*
X124956018Y-58874500D01*
X124843982Y-58874500D01*
X124735763Y-58903497D01*
X124735760Y-58903498D01*
X124638740Y-58959513D01*
X124638734Y-58959517D01*
X124559517Y-59038734D01*
X124559513Y-59038740D01*
X124503498Y-59135760D01*
X124503497Y-59135763D01*
X124474500Y-59243982D01*
X119843513Y-59243982D01*
X119840485Y-59238737D01*
X119761263Y-59159515D01*
X119664237Y-59103497D01*
X119556018Y-59074500D01*
X119443982Y-59074500D01*
X119335763Y-59103497D01*
X119335760Y-59103498D01*
X119238740Y-59159513D01*
X119238734Y-59159517D01*
X119159517Y-59238734D01*
X119159513Y-59238740D01*
X119103498Y-59335760D01*
X119103497Y-59335763D01*
X119074500Y-59443982D01*
X113926675Y-59443982D01*
X113930941Y-59437598D01*
X114010130Y-59246420D01*
X114050500Y-59043465D01*
X114050500Y-58836535D01*
X114036120Y-58764239D01*
X114035286Y-58760046D01*
X114032091Y-58743982D01*
X125474500Y-58743982D01*
X125474500Y-58856018D01*
X125503497Y-58964237D01*
X125559515Y-59061263D01*
X125638737Y-59140485D01*
X125735763Y-59196503D01*
X125843982Y-59225500D01*
X125843984Y-59225500D01*
X125956016Y-59225500D01*
X125956018Y-59225500D01*
X126064237Y-59196503D01*
X126161263Y-59140485D01*
X126240485Y-59061263D01*
X126296503Y-58964237D01*
X126325500Y-58856018D01*
X126325500Y-58743982D01*
X126296503Y-58635763D01*
X126277720Y-58603230D01*
X126274617Y-58597855D01*
X126267321Y-58585220D01*
X126243513Y-58543982D01*
X128174500Y-58543982D01*
X128174500Y-58656018D01*
X128203497Y-58764237D01*
X128259515Y-58861263D01*
X128338737Y-58940485D01*
X128435763Y-58996503D01*
X128543982Y-59025500D01*
X128543984Y-59025500D01*
X128656016Y-59025500D01*
X128656018Y-59025500D01*
X128764237Y-58996503D01*
X128861263Y-58940485D01*
X128940485Y-58861263D01*
X128996503Y-58764237D01*
X129025500Y-58656018D01*
X129025500Y-58543982D01*
X128996503Y-58435763D01*
X128940485Y-58338737D01*
X128861263Y-58259515D01*
X128764237Y-58203497D01*
X128656018Y-58174500D01*
X128543982Y-58174500D01*
X128435763Y-58203497D01*
X128435760Y-58203498D01*
X128338740Y-58259513D01*
X128338734Y-58259517D01*
X128259517Y-58338734D01*
X128259513Y-58338740D01*
X128203498Y-58435760D01*
X128203497Y-58435763D01*
X128174500Y-58543982D01*
X126243513Y-58543982D01*
X126240485Y-58538737D01*
X126161263Y-58459515D01*
X126064237Y-58403497D01*
X125956018Y-58374500D01*
X125843982Y-58374500D01*
X125735763Y-58403497D01*
X125735760Y-58403498D01*
X125638740Y-58459513D01*
X125638734Y-58459517D01*
X125559517Y-58538734D01*
X125559513Y-58538740D01*
X125503498Y-58635760D01*
X125503497Y-58635763D01*
X125474500Y-58743982D01*
X114032091Y-58743982D01*
X114010564Y-58635763D01*
X114010130Y-58633580D01*
X113930941Y-58442402D01*
X113815977Y-58270345D01*
X113815975Y-58270342D01*
X113669657Y-58124024D01*
X113583626Y-58066541D01*
X113497598Y-58009059D01*
X113306420Y-57929870D01*
X113306412Y-57929868D01*
X113103469Y-57889500D01*
X113103465Y-57889500D01*
X112896535Y-57889500D01*
X112896530Y-57889500D01*
X112693587Y-57929868D01*
X112693579Y-57929870D01*
X112502403Y-58009058D01*
X112330342Y-58124024D01*
X112184024Y-58270342D01*
X112069058Y-58442403D01*
X111989870Y-58633579D01*
X111989868Y-58633587D01*
X111949500Y-58836530D01*
X110000500Y-58836530D01*
X110000500Y-56296530D01*
X111949500Y-56296530D01*
X111949500Y-56503469D01*
X111989868Y-56706412D01*
X111989870Y-56706420D01*
X112069058Y-56897596D01*
X112184024Y-57069657D01*
X112330342Y-57215975D01*
X112330345Y-57215977D01*
X112502402Y-57330941D01*
X112693580Y-57410130D01*
X112896530Y-57450499D01*
X112896534Y-57450500D01*
X112896535Y-57450500D01*
X113103466Y-57450500D01*
X113103467Y-57450499D01*
X113306420Y-57410130D01*
X113497598Y-57330941D01*
X113515496Y-57318982D01*
X135399500Y-57318982D01*
X135399500Y-57431018D01*
X135428497Y-57539237D01*
X135484515Y-57636263D01*
X135563737Y-57715485D01*
X135660763Y-57771503D01*
X135768982Y-57800500D01*
X135768984Y-57800500D01*
X135881016Y-57800500D01*
X135881018Y-57800500D01*
X135989237Y-57771503D01*
X136086263Y-57715485D01*
X136165485Y-57636263D01*
X136221503Y-57539237D01*
X136250500Y-57431018D01*
X136250500Y-57318982D01*
X136221503Y-57210763D01*
X136165485Y-57113737D01*
X136086263Y-57034515D01*
X135989237Y-56978497D01*
X135881018Y-56949500D01*
X135768982Y-56949500D01*
X135660763Y-56978497D01*
X135660760Y-56978498D01*
X135563740Y-57034513D01*
X135563734Y-57034517D01*
X135484517Y-57113734D01*
X135484513Y-57113740D01*
X135428498Y-57210760D01*
X135428497Y-57210763D01*
X135399500Y-57318982D01*
X113515496Y-57318982D01*
X113669655Y-57215977D01*
X113815977Y-57069655D01*
X113930941Y-56897598D01*
X114010130Y-56706420D01*
X114050500Y-56503465D01*
X114050500Y-56343982D01*
X115974500Y-56343982D01*
X115974500Y-56456018D01*
X116003497Y-56564237D01*
X116059515Y-56661263D01*
X116138737Y-56740485D01*
X116235763Y-56796503D01*
X116343982Y-56825500D01*
X116343984Y-56825500D01*
X116456016Y-56825500D01*
X116456018Y-56825500D01*
X116531604Y-56805247D01*
X164974500Y-56805247D01*
X164974500Y-58544752D01*
X164986131Y-58603229D01*
X164986132Y-58603230D01*
X165030447Y-58669552D01*
X165096769Y-58713867D01*
X165096770Y-58713868D01*
X165155247Y-58725499D01*
X165155250Y-58725500D01*
X165155252Y-58725500D01*
X166894750Y-58725500D01*
X166894751Y-58725499D01*
X166909568Y-58722552D01*
X166953229Y-58713868D01*
X166953229Y-58713867D01*
X166953231Y-58713867D01*
X167019552Y-58669552D01*
X167063867Y-58603231D01*
X167063867Y-58603229D01*
X167063868Y-58603229D01*
X167075499Y-58544752D01*
X167075500Y-58544750D01*
X167075500Y-56805249D01*
X167075499Y-56805247D01*
X167063868Y-56746770D01*
X167063867Y-56746769D01*
X167019552Y-56680447D01*
X166953230Y-56636132D01*
X166953229Y-56636131D01*
X166894752Y-56624500D01*
X166894748Y-56624500D01*
X165155252Y-56624500D01*
X165155247Y-56624500D01*
X165096770Y-56636131D01*
X165096769Y-56636132D01*
X165030447Y-56680447D01*
X164986132Y-56746769D01*
X164986131Y-56746770D01*
X164974500Y-56805247D01*
X116531604Y-56805247D01*
X116564237Y-56796503D01*
X116661263Y-56740485D01*
X116740485Y-56661263D01*
X116796503Y-56564237D01*
X116825500Y-56456018D01*
X116825500Y-56343982D01*
X116796503Y-56235763D01*
X116740485Y-56138737D01*
X116661263Y-56059515D01*
X116564237Y-56003497D01*
X116456018Y-55974500D01*
X116343982Y-55974500D01*
X116235763Y-56003497D01*
X116235760Y-56003498D01*
X116138740Y-56059513D01*
X116138734Y-56059517D01*
X116059517Y-56138734D01*
X116059513Y-56138740D01*
X116003498Y-56235760D01*
X116003497Y-56235763D01*
X115974500Y-56343982D01*
X114050500Y-56343982D01*
X114050500Y-56296535D01*
X114010130Y-56093580D01*
X113930941Y-55902402D01*
X113815977Y-55730345D01*
X113815975Y-55730342D01*
X113669657Y-55584024D01*
X113583626Y-55526541D01*
X113497598Y-55469059D01*
X113306420Y-55389870D01*
X113306412Y-55389868D01*
X113103469Y-55349500D01*
X113103465Y-55349500D01*
X112896535Y-55349500D01*
X112896530Y-55349500D01*
X112693587Y-55389868D01*
X112693579Y-55389870D01*
X112502403Y-55469058D01*
X112330342Y-55584024D01*
X112184024Y-55730342D01*
X112069058Y-55902403D01*
X111989870Y-56093579D01*
X111989868Y-56093587D01*
X111949500Y-56296530D01*
X110000500Y-56296530D01*
X110000500Y-54443982D01*
X134094500Y-54443982D01*
X134094500Y-54556018D01*
X134123497Y-54664237D01*
X134179515Y-54761263D01*
X134258737Y-54840485D01*
X134355763Y-54896503D01*
X134355764Y-54896503D01*
X134359025Y-54898386D01*
X134407240Y-54948953D01*
X134420464Y-55017560D01*
X134394496Y-55082425D01*
X134359026Y-55113160D01*
X134278737Y-55159515D01*
X134278734Y-55159517D01*
X134199517Y-55238734D01*
X134199513Y-55238740D01*
X134143498Y-55335760D01*
X134143497Y-55335763D01*
X134114500Y-55443982D01*
X134114500Y-55556018D01*
X134143497Y-55664237D01*
X134199515Y-55761263D01*
X134278737Y-55840485D01*
X134375763Y-55896503D01*
X134483982Y-55925500D01*
X134483984Y-55925500D01*
X134596016Y-55925500D01*
X134596018Y-55925500D01*
X134704237Y-55896503D01*
X134801263Y-55840485D01*
X134880485Y-55761263D01*
X134936503Y-55664237D01*
X134965500Y-55556018D01*
X134965500Y-55443982D01*
X134936503Y-55335763D01*
X134880485Y-55238737D01*
X134801263Y-55159515D01*
X134704237Y-55103497D01*
X134700974Y-55101613D01*
X134652758Y-55051046D01*
X134639535Y-54982439D01*
X134665503Y-54917574D01*
X134700970Y-54886841D01*
X134781263Y-54840485D01*
X134860485Y-54761263D01*
X134916503Y-54664237D01*
X134945500Y-54556018D01*
X134945500Y-54443982D01*
X134918705Y-54343982D01*
X139074500Y-54343982D01*
X139074500Y-54456018D01*
X139103497Y-54564237D01*
X139159515Y-54661263D01*
X139238737Y-54740485D01*
X139335763Y-54796503D01*
X139443982Y-54825500D01*
X139443984Y-54825500D01*
X139556016Y-54825500D01*
X139556018Y-54825500D01*
X139664237Y-54796503D01*
X139761263Y-54740485D01*
X139840485Y-54661263D01*
X139896503Y-54564237D01*
X139925500Y-54456018D01*
X139925500Y-54343982D01*
X139896503Y-54235763D01*
X139840485Y-54138737D01*
X139761263Y-54059515D01*
X139664237Y-54003497D01*
X139556018Y-53974500D01*
X139443982Y-53974500D01*
X139335763Y-54003497D01*
X139335760Y-54003498D01*
X139238740Y-54059513D01*
X139238734Y-54059517D01*
X139159517Y-54138734D01*
X139159513Y-54138740D01*
X139103498Y-54235760D01*
X139103497Y-54235763D01*
X139074500Y-54343982D01*
X134918705Y-54343982D01*
X134916503Y-54335763D01*
X134860485Y-54238737D01*
X134781263Y-54159515D01*
X134684237Y-54103497D01*
X134576018Y-54074500D01*
X134463982Y-54074500D01*
X134355763Y-54103497D01*
X134355760Y-54103498D01*
X134258740Y-54159513D01*
X134258734Y-54159517D01*
X134179517Y-54238734D01*
X134179513Y-54238740D01*
X134123498Y-54335760D01*
X134123497Y-54335763D01*
X134094500Y-54443982D01*
X110000500Y-54443982D01*
X110000500Y-53743982D01*
X140774500Y-53743982D01*
X140774500Y-53856018D01*
X140803497Y-53964237D01*
X140859515Y-54061263D01*
X140938737Y-54140485D01*
X141035763Y-54196503D01*
X141143982Y-54225500D01*
X141143984Y-54225500D01*
X141256016Y-54225500D01*
X141256018Y-54225500D01*
X141364237Y-54196503D01*
X141461263Y-54140485D01*
X141540485Y-54061263D01*
X141580348Y-53992217D01*
X141630912Y-53944005D01*
X141699519Y-53930781D01*
X141749729Y-53946831D01*
X141835763Y-53996503D01*
X141943982Y-54025500D01*
X141943984Y-54025500D01*
X142056016Y-54025500D01*
X142056018Y-54025500D01*
X142164237Y-53996503D01*
X142261263Y-53940485D01*
X142340485Y-53861263D01*
X142396503Y-53764237D01*
X142425500Y-53656018D01*
X142425500Y-53543982D01*
X142396503Y-53435763D01*
X142340485Y-53338737D01*
X142261263Y-53259515D01*
X142164237Y-53203497D01*
X142056018Y-53174500D01*
X141943982Y-53174500D01*
X141835763Y-53203497D01*
X141835760Y-53203498D01*
X141738740Y-53259513D01*
X141738734Y-53259517D01*
X141659517Y-53338734D01*
X141659515Y-53338737D01*
X141619653Y-53407780D01*
X141569085Y-53455995D01*
X141500478Y-53469217D01*
X141450266Y-53453166D01*
X141364239Y-53403498D01*
X141364238Y-53403497D01*
X141364237Y-53403497D01*
X141256018Y-53374500D01*
X141143982Y-53374500D01*
X141035763Y-53403497D01*
X141035760Y-53403498D01*
X140938740Y-53459513D01*
X140938734Y-53459517D01*
X140859517Y-53538734D01*
X140859513Y-53538740D01*
X140803498Y-53635760D01*
X140803497Y-53635763D01*
X140774500Y-53743982D01*
X110000500Y-53743982D01*
X110000500Y-53043982D01*
X139174500Y-53043982D01*
X139174500Y-53156018D01*
X139203497Y-53264237D01*
X139259515Y-53361263D01*
X139338737Y-53440485D01*
X139435763Y-53496503D01*
X139543982Y-53525500D01*
X139543984Y-53525500D01*
X139656016Y-53525500D01*
X139656018Y-53525500D01*
X139764237Y-53496503D01*
X139861263Y-53440485D01*
X139940485Y-53361263D01*
X139996503Y-53264237D01*
X140025500Y-53156018D01*
X140025500Y-53043982D01*
X139996503Y-52935763D01*
X139940485Y-52838737D01*
X139861263Y-52759515D01*
X139764237Y-52703497D01*
X139656018Y-52674500D01*
X139543982Y-52674500D01*
X139435763Y-52703497D01*
X139435760Y-52703498D01*
X139338740Y-52759513D01*
X139338734Y-52759517D01*
X139259517Y-52838734D01*
X139259513Y-52838740D01*
X139203498Y-52935760D01*
X139203497Y-52935763D01*
X139174500Y-53043982D01*
X110000500Y-53043982D01*
X110000500Y-52503982D01*
X116144500Y-52503982D01*
X116144500Y-52616018D01*
X116173497Y-52724237D01*
X116229515Y-52821263D01*
X116308737Y-52900485D01*
X116405763Y-52956503D01*
X116513982Y-52985500D01*
X116513984Y-52985500D01*
X116626016Y-52985500D01*
X116626018Y-52985500D01*
X116734237Y-52956503D01*
X116831263Y-52900485D01*
X116910485Y-52821263D01*
X116966503Y-52724237D01*
X116995500Y-52616018D01*
X116995500Y-52503982D01*
X116979423Y-52443982D01*
X127574500Y-52443982D01*
X127574500Y-52556018D01*
X127603497Y-52664237D01*
X127659515Y-52761263D01*
X127738737Y-52840485D01*
X127835763Y-52896503D01*
X127943982Y-52925500D01*
X127943984Y-52925500D01*
X128056016Y-52925500D01*
X128056018Y-52925500D01*
X128164237Y-52896503D01*
X128261263Y-52840485D01*
X128340485Y-52761263D01*
X128396503Y-52664237D01*
X128425500Y-52556018D01*
X128425500Y-52443982D01*
X128396503Y-52335763D01*
X128340485Y-52238737D01*
X128261263Y-52159515D01*
X128164237Y-52103497D01*
X128056018Y-52074500D01*
X127943982Y-52074500D01*
X127835763Y-52103497D01*
X127738737Y-52159515D01*
X127734976Y-52163275D01*
X127734975Y-52163276D01*
X127659517Y-52238734D01*
X127659513Y-52238740D01*
X127603498Y-52335760D01*
X127603497Y-52335763D01*
X127574500Y-52443982D01*
X116979423Y-52443982D01*
X116966503Y-52395763D01*
X116910485Y-52298737D01*
X116831263Y-52219515D01*
X116734237Y-52163497D01*
X116626018Y-52134500D01*
X116513982Y-52134500D01*
X116405763Y-52163497D01*
X116405760Y-52163498D01*
X116308740Y-52219513D01*
X116308734Y-52219517D01*
X116229517Y-52298734D01*
X116229513Y-52298740D01*
X116173498Y-52395760D01*
X116173497Y-52395763D01*
X116144500Y-52503982D01*
X110000500Y-52503982D01*
X110000500Y-51233982D01*
X115819500Y-51233982D01*
X115819500Y-51346018D01*
X115848497Y-51454237D01*
X115904515Y-51551263D01*
X115983737Y-51630485D01*
X116080763Y-51686503D01*
X116188982Y-51715500D01*
X116188984Y-51715500D01*
X116301016Y-51715500D01*
X116301018Y-51715500D01*
X116409237Y-51686503D01*
X116506263Y-51630485D01*
X116585485Y-51551263D01*
X116641503Y-51454237D01*
X116670500Y-51346018D01*
X116670500Y-51343982D01*
X123774500Y-51343982D01*
X123774500Y-51456018D01*
X123801295Y-51556017D01*
X123803497Y-51564236D01*
X123803498Y-51564239D01*
X123822169Y-51596579D01*
X123859515Y-51661263D01*
X123938737Y-51740485D01*
X124035763Y-51796503D01*
X124143982Y-51825500D01*
X124143984Y-51825500D01*
X124256016Y-51825500D01*
X124256018Y-51825500D01*
X124364237Y-51796503D01*
X124461263Y-51740485D01*
X124540485Y-51661263D01*
X124596503Y-51564237D01*
X124625500Y-51456018D01*
X124625500Y-51443982D01*
X127174500Y-51443982D01*
X127174500Y-51556018D01*
X127203497Y-51664237D01*
X127259515Y-51761263D01*
X127338737Y-51840485D01*
X127435763Y-51896503D01*
X127543982Y-51925500D01*
X127543984Y-51925500D01*
X127653810Y-51925500D01*
X127656018Y-51925500D01*
X127764237Y-51896503D01*
X127861263Y-51840485D01*
X127940485Y-51761263D01*
X127996503Y-51664237D01*
X128001930Y-51643982D01*
X135074500Y-51643982D01*
X135074500Y-51756018D01*
X135103497Y-51864237D01*
X135159515Y-51961263D01*
X135238737Y-52040485D01*
X135335763Y-52096503D01*
X135443982Y-52125500D01*
X135443984Y-52125500D01*
X135556016Y-52125500D01*
X135556018Y-52125500D01*
X135664237Y-52096503D01*
X135742959Y-52051052D01*
X135810854Y-52034581D01*
X135876881Y-52057433D01*
X135920072Y-52112354D01*
X135926714Y-52181907D01*
X135912344Y-52220437D01*
X135903500Y-52235756D01*
X135903497Y-52235763D01*
X135874500Y-52343982D01*
X135874500Y-52456018D01*
X135903497Y-52564237D01*
X135959515Y-52661263D01*
X136038737Y-52740485D01*
X136135763Y-52796503D01*
X136243982Y-52825500D01*
X136243984Y-52825500D01*
X136356016Y-52825500D01*
X136356018Y-52825500D01*
X136464237Y-52796503D01*
X136561263Y-52740485D01*
X136640485Y-52661263D01*
X136696503Y-52564237D01*
X136725500Y-52456018D01*
X136725500Y-52343982D01*
X136696503Y-52235763D01*
X136640485Y-52138737D01*
X136561263Y-52059515D01*
X136464237Y-52003497D01*
X136356018Y-51974500D01*
X136243982Y-51974500D01*
X136135763Y-52003497D01*
X136135760Y-52003498D01*
X136057044Y-52048945D01*
X135989143Y-52065418D01*
X135923117Y-52042565D01*
X135879926Y-51987644D01*
X135873285Y-51918090D01*
X135887656Y-51879558D01*
X135896503Y-51864237D01*
X135925500Y-51756018D01*
X135925500Y-51643982D01*
X135898705Y-51543982D01*
X139874500Y-51543982D01*
X139874500Y-51656018D01*
X139903497Y-51764237D01*
X139959515Y-51861263D01*
X140038737Y-51940485D01*
X140135763Y-51996503D01*
X140243982Y-52025500D01*
X140243984Y-52025500D01*
X140356016Y-52025500D01*
X140356018Y-52025500D01*
X140464237Y-51996503D01*
X140561263Y-51940485D01*
X140640485Y-51861263D01*
X140696503Y-51764237D01*
X140725500Y-51656018D01*
X140725500Y-51543982D01*
X144274500Y-51543982D01*
X144274500Y-51656018D01*
X144303497Y-51764237D01*
X144359515Y-51861263D01*
X144438737Y-51940485D01*
X144535763Y-51996503D01*
X144643982Y-52025500D01*
X144643984Y-52025500D01*
X144756016Y-52025500D01*
X144756018Y-52025500D01*
X144864237Y-51996503D01*
X144961263Y-51940485D01*
X145040485Y-51861263D01*
X145096503Y-51764237D01*
X145125500Y-51656018D01*
X145125500Y-51543982D01*
X145096503Y-51435763D01*
X145040485Y-51338737D01*
X144961263Y-51259515D01*
X144864237Y-51203497D01*
X144756018Y-51174500D01*
X144643982Y-51174500D01*
X144535763Y-51203497D01*
X144535760Y-51203498D01*
X144438740Y-51259513D01*
X144438734Y-51259517D01*
X144359517Y-51338734D01*
X144359513Y-51338740D01*
X144303498Y-51435760D01*
X144303497Y-51435763D01*
X144274500Y-51543982D01*
X140725500Y-51543982D01*
X140696503Y-51435763D01*
X140640485Y-51338737D01*
X140561263Y-51259515D01*
X140464237Y-51203497D01*
X140356018Y-51174500D01*
X140243982Y-51174500D01*
X140135763Y-51203497D01*
X140135760Y-51203498D01*
X140038740Y-51259513D01*
X140038734Y-51259517D01*
X139959517Y-51338734D01*
X139959513Y-51338740D01*
X139903498Y-51435760D01*
X139903497Y-51435763D01*
X139874500Y-51543982D01*
X135898705Y-51543982D01*
X135896503Y-51535763D01*
X135840485Y-51438737D01*
X135761263Y-51359515D01*
X135664237Y-51303497D01*
X135556018Y-51274500D01*
X135443982Y-51274500D01*
X135335763Y-51303497D01*
X135335760Y-51303498D01*
X135238740Y-51359513D01*
X135238734Y-51359517D01*
X135159517Y-51438734D01*
X135159513Y-51438740D01*
X135103498Y-51535760D01*
X135103497Y-51535763D01*
X135074500Y-51643982D01*
X128001930Y-51643982D01*
X128025500Y-51556018D01*
X128025500Y-51443982D01*
X127996503Y-51335763D01*
X127940485Y-51238737D01*
X127861263Y-51159515D01*
X127764237Y-51103497D01*
X127656018Y-51074500D01*
X127543982Y-51074500D01*
X127435763Y-51103497D01*
X127435760Y-51103498D01*
X127338740Y-51159513D01*
X127338734Y-51159517D01*
X127259517Y-51238734D01*
X127259513Y-51238740D01*
X127203498Y-51335760D01*
X127203497Y-51335763D01*
X127174500Y-51443982D01*
X124625500Y-51443982D01*
X124625500Y-51343982D01*
X124596503Y-51235763D01*
X124540485Y-51138737D01*
X124461263Y-51059515D01*
X124364237Y-51003497D01*
X124256018Y-50974500D01*
X124143982Y-50974500D01*
X124035763Y-51003497D01*
X124035760Y-51003498D01*
X123938740Y-51059513D01*
X123938734Y-51059517D01*
X123859517Y-51138734D01*
X123859513Y-51138740D01*
X123803498Y-51235760D01*
X123803497Y-51235763D01*
X123774500Y-51343982D01*
X116670500Y-51343982D01*
X116670500Y-51233982D01*
X116641503Y-51125763D01*
X116585485Y-51028737D01*
X116506263Y-50949515D01*
X116409237Y-50893497D01*
X116301018Y-50864500D01*
X116188982Y-50864500D01*
X116080763Y-50893497D01*
X116080760Y-50893498D01*
X115983740Y-50949513D01*
X115983734Y-50949517D01*
X115904517Y-51028734D01*
X115904513Y-51028740D01*
X115848498Y-51125760D01*
X115848497Y-51125763D01*
X115819500Y-51233982D01*
X110000500Y-51233982D01*
X110000500Y-50643982D01*
X122074500Y-50643982D01*
X122074500Y-50756018D01*
X122103497Y-50864237D01*
X122159515Y-50961263D01*
X122238737Y-51040485D01*
X122335763Y-51096503D01*
X122443982Y-51125500D01*
X122443984Y-51125500D01*
X122556016Y-51125500D01*
X122556018Y-51125500D01*
X122664237Y-51096503D01*
X122761263Y-51040485D01*
X122840485Y-50961263D01*
X122896503Y-50864237D01*
X122925500Y-50756018D01*
X122925500Y-50643982D01*
X122896503Y-50535763D01*
X122840485Y-50438737D01*
X122761263Y-50359515D01*
X122664237Y-50303497D01*
X122556018Y-50274500D01*
X122443982Y-50274500D01*
X122335763Y-50303497D01*
X122335760Y-50303498D01*
X122238740Y-50359513D01*
X122238734Y-50359517D01*
X122159517Y-50438734D01*
X122159513Y-50438740D01*
X122103498Y-50535760D01*
X122103497Y-50535763D01*
X122074500Y-50643982D01*
X110000500Y-50643982D01*
X110000500Y-47775205D01*
X111750000Y-47775205D01*
X111750000Y-48520000D01*
X112422555Y-48520000D01*
X112400000Y-48604174D01*
X112400000Y-48735826D01*
X112422555Y-48820000D01*
X111750001Y-48820000D01*
X111750001Y-49564785D01*
X111750002Y-49564808D01*
X111752908Y-49589869D01*
X111752909Y-49589873D01*
X111798211Y-49692474D01*
X111798214Y-49692479D01*
X111877520Y-49771785D01*
X111877525Y-49771788D01*
X111980123Y-49817089D01*
X112005206Y-49819999D01*
X112749999Y-49819999D01*
X112750000Y-49819998D01*
X112750000Y-49147445D01*
X112834174Y-49170000D01*
X112965826Y-49170000D01*
X113050000Y-49147445D01*
X113050000Y-49819999D01*
X113794786Y-49819999D01*
X113794808Y-49819997D01*
X113819869Y-49817091D01*
X113819873Y-49817090D01*
X113922474Y-49771788D01*
X113922479Y-49771785D01*
X114001785Y-49692479D01*
X114001788Y-49692474D01*
X114047089Y-49589877D01*
X114047089Y-49589875D01*
X114049999Y-49564794D01*
X114050000Y-49564791D01*
X114050000Y-48820000D01*
X113377445Y-48820000D01*
X113400000Y-48735826D01*
X113400000Y-48604174D01*
X113389913Y-48566530D01*
X114389500Y-48566530D01*
X114389500Y-48773469D01*
X114429868Y-48976412D01*
X114429870Y-48976420D01*
X114509058Y-49167596D01*
X114624024Y-49339657D01*
X114770342Y-49485975D01*
X114770345Y-49485977D01*
X114942402Y-49600941D01*
X115133580Y-49680130D01*
X115336530Y-49720499D01*
X115336534Y-49720500D01*
X115336535Y-49720500D01*
X115543466Y-49720500D01*
X115543467Y-49720499D01*
X115746420Y-49680130D01*
X115937598Y-49600941D01*
X116109655Y-49485977D01*
X116255977Y-49339655D01*
X116370941Y-49167598D01*
X116450130Y-48976420D01*
X116476473Y-48843982D01*
X138874500Y-48843982D01*
X138874500Y-48956018D01*
X138903497Y-49064237D01*
X138959515Y-49161263D01*
X139038737Y-49240485D01*
X139135763Y-49296503D01*
X139243982Y-49325500D01*
X139243984Y-49325500D01*
X139356016Y-49325500D01*
X139356018Y-49325500D01*
X139464237Y-49296503D01*
X139561263Y-49240485D01*
X139640485Y-49161263D01*
X139696503Y-49064237D01*
X139725500Y-48956018D01*
X139725500Y-48843982D01*
X139696503Y-48735763D01*
X139640485Y-48638737D01*
X139561263Y-48559515D01*
X139464237Y-48503497D01*
X139356018Y-48474500D01*
X139243982Y-48474500D01*
X139135763Y-48503497D01*
X139135760Y-48503498D01*
X139038740Y-48559513D01*
X139038734Y-48559517D01*
X138959517Y-48638734D01*
X138959513Y-48638740D01*
X138903498Y-48735760D01*
X138903497Y-48735763D01*
X138874500Y-48843982D01*
X116476473Y-48843982D01*
X116490500Y-48773465D01*
X116490500Y-48566535D01*
X116450130Y-48363580D01*
X116370941Y-48172402D01*
X116359992Y-48156016D01*
X116325736Y-48104747D01*
X116325734Y-48104745D01*
X116285134Y-48043982D01*
X132074500Y-48043982D01*
X132074500Y-48156018D01*
X132103497Y-48264237D01*
X132159515Y-48361263D01*
X132238737Y-48440485D01*
X132335763Y-48496503D01*
X132443982Y-48525500D01*
X132443984Y-48525500D01*
X132556016Y-48525500D01*
X132556018Y-48525500D01*
X132664237Y-48496503D01*
X132761263Y-48440485D01*
X132840485Y-48361263D01*
X132896503Y-48264237D01*
X132925500Y-48156018D01*
X132925500Y-48043982D01*
X132896503Y-47935763D01*
X132840485Y-47838737D01*
X132761263Y-47759515D01*
X132682839Y-47714237D01*
X132664239Y-47703498D01*
X132664238Y-47703497D01*
X132664237Y-47703497D01*
X132556018Y-47674500D01*
X132443982Y-47674500D01*
X132335763Y-47703497D01*
X132335760Y-47703498D01*
X132238740Y-47759513D01*
X132238734Y-47759517D01*
X132159517Y-47838734D01*
X132159513Y-47838740D01*
X132103498Y-47935760D01*
X132103497Y-47935763D01*
X132074500Y-48043982D01*
X116285134Y-48043982D01*
X116255975Y-48000342D01*
X116109657Y-47854024D01*
X115991674Y-47775191D01*
X115937598Y-47739059D01*
X115877670Y-47714236D01*
X115746420Y-47659870D01*
X115746412Y-47659868D01*
X115543469Y-47619500D01*
X115543465Y-47619500D01*
X115336535Y-47619500D01*
X115336530Y-47619500D01*
X115133587Y-47659868D01*
X115133579Y-47659870D01*
X114942403Y-47739058D01*
X114770342Y-47854024D01*
X114624024Y-48000342D01*
X114509058Y-48172403D01*
X114429870Y-48363579D01*
X114429868Y-48363587D01*
X114389500Y-48566530D01*
X113389913Y-48566530D01*
X113377445Y-48520000D01*
X114049999Y-48520000D01*
X114049999Y-47775214D01*
X114049997Y-47775191D01*
X114047091Y-47750130D01*
X114047090Y-47750126D01*
X114001788Y-47647525D01*
X114001785Y-47647520D01*
X113938247Y-47583982D01*
X141864500Y-47583982D01*
X141864500Y-47696018D01*
X141885721Y-47775214D01*
X141893497Y-47804236D01*
X141893498Y-47804239D01*
X141912169Y-47836579D01*
X141949515Y-47901263D01*
X142028737Y-47980485D01*
X142125763Y-48036503D01*
X142233982Y-48065500D01*
X142233984Y-48065500D01*
X142346016Y-48065500D01*
X142346018Y-48065500D01*
X142454237Y-48036503D01*
X142551263Y-47980485D01*
X142630485Y-47901263D01*
X142686503Y-47804237D01*
X142715500Y-47696018D01*
X142715500Y-47583982D01*
X142691385Y-47493982D01*
X165674500Y-47493982D01*
X165674500Y-47606018D01*
X165703497Y-47714237D01*
X165759515Y-47811263D01*
X165838737Y-47890485D01*
X165935763Y-47946503D01*
X166043982Y-47975500D01*
X166043984Y-47975500D01*
X166156016Y-47975500D01*
X166156018Y-47975500D01*
X166264237Y-47946503D01*
X166361263Y-47890485D01*
X166440485Y-47811263D01*
X166496503Y-47714237D01*
X166525500Y-47606018D01*
X166525500Y-47493982D01*
X166496503Y-47385763D01*
X166440485Y-47288737D01*
X166361263Y-47209515D01*
X166264237Y-47153497D01*
X166156018Y-47124500D01*
X166043982Y-47124500D01*
X165935763Y-47153497D01*
X165935760Y-47153498D01*
X165838740Y-47209513D01*
X165838734Y-47209517D01*
X165759517Y-47288734D01*
X165759513Y-47288740D01*
X165703498Y-47385760D01*
X165703497Y-47385763D01*
X165674500Y-47493982D01*
X142691385Y-47493982D01*
X142686503Y-47475763D01*
X142630485Y-47378737D01*
X142551263Y-47299515D01*
X142454237Y-47243497D01*
X142346018Y-47214500D01*
X142233982Y-47214500D01*
X142125763Y-47243497D01*
X142125760Y-47243498D01*
X142028740Y-47299513D01*
X142028734Y-47299517D01*
X141949517Y-47378734D01*
X141949513Y-47378740D01*
X141893498Y-47475760D01*
X141893497Y-47475763D01*
X141864500Y-47583982D01*
X113938247Y-47583982D01*
X113922479Y-47568214D01*
X113922474Y-47568211D01*
X113819876Y-47522910D01*
X113794794Y-47520000D01*
X113050000Y-47520000D01*
X113050000Y-48192554D01*
X112965826Y-48170000D01*
X112834174Y-48170000D01*
X112750000Y-48192554D01*
X112750000Y-47520000D01*
X112005214Y-47520000D01*
X112005191Y-47520002D01*
X111980130Y-47522908D01*
X111980126Y-47522909D01*
X111877525Y-47568211D01*
X111877520Y-47568214D01*
X111798214Y-47647520D01*
X111798211Y-47647525D01*
X111752910Y-47750122D01*
X111752910Y-47750124D01*
X111750000Y-47775205D01*
X110000500Y-47775205D01*
X110000500Y-46026530D01*
X111849500Y-46026530D01*
X111849500Y-46233469D01*
X111889868Y-46436412D01*
X111889870Y-46436420D01*
X111969058Y-46627596D01*
X112084024Y-46799657D01*
X112230342Y-46945975D01*
X112230345Y-46945977D01*
X112402402Y-47060941D01*
X112593580Y-47140130D01*
X112796530Y-47180499D01*
X112796534Y-47180500D01*
X112796535Y-47180500D01*
X113003466Y-47180500D01*
X113003467Y-47180499D01*
X113206420Y-47140130D01*
X113397598Y-47060941D01*
X113569655Y-46945977D01*
X113715977Y-46799655D01*
X113830941Y-46627598D01*
X113910130Y-46436420D01*
X113950500Y-46233465D01*
X113950500Y-46026535D01*
X113950499Y-46026530D01*
X114389500Y-46026530D01*
X114389500Y-46233469D01*
X114429868Y-46436412D01*
X114429870Y-46436420D01*
X114509058Y-46627596D01*
X114624024Y-46799657D01*
X114770342Y-46945975D01*
X114770345Y-46945977D01*
X114942402Y-47060941D01*
X115133580Y-47140130D01*
X115336530Y-47180499D01*
X115336534Y-47180500D01*
X115336535Y-47180500D01*
X115543466Y-47180500D01*
X115543467Y-47180499D01*
X115746420Y-47140130D01*
X115937598Y-47060941D01*
X116109655Y-46945977D01*
X116255977Y-46799655D01*
X116370941Y-46627598D01*
X116450130Y-46436420D01*
X116490500Y-46233465D01*
X116490500Y-46026535D01*
X116450130Y-45823580D01*
X116450128Y-45823575D01*
X116433449Y-45783307D01*
X116417160Y-45743982D01*
X133074500Y-45743982D01*
X133074500Y-45856018D01*
X133103497Y-45964237D01*
X133159515Y-46061263D01*
X133238737Y-46140485D01*
X133335763Y-46196503D01*
X133443982Y-46225500D01*
X133443984Y-46225500D01*
X133556016Y-46225500D01*
X133556018Y-46225500D01*
X133664237Y-46196503D01*
X133761263Y-46140485D01*
X133840485Y-46061263D01*
X133896503Y-45964237D01*
X133925500Y-45856018D01*
X133925500Y-45743982D01*
X133896503Y-45635763D01*
X133840485Y-45538737D01*
X133761263Y-45459515D01*
X133761260Y-45459513D01*
X133761256Y-45459510D01*
X133742011Y-45448399D01*
X133693796Y-45397832D01*
X133680574Y-45329224D01*
X133706542Y-45264360D01*
X133763457Y-45223832D01*
X133771891Y-45221246D01*
X133864237Y-45196503D01*
X133961263Y-45140485D01*
X134040485Y-45061263D01*
X134096503Y-44964237D01*
X134125500Y-44856018D01*
X134125500Y-44743982D01*
X134109034Y-44682531D01*
X134105129Y-44667955D01*
X134105127Y-44667950D01*
X134098705Y-44643982D01*
X139574500Y-44643982D01*
X139574500Y-44756018D01*
X139603497Y-44864237D01*
X139659515Y-44961263D01*
X139738737Y-45040485D01*
X139835763Y-45096503D01*
X139943982Y-45125500D01*
X139943984Y-45125500D01*
X139971442Y-45125500D01*
X140038481Y-45145185D01*
X140084236Y-45197989D01*
X140094180Y-45267147D01*
X140091217Y-45281592D01*
X140074500Y-45343982D01*
X140074500Y-45456018D01*
X140103497Y-45564237D01*
X140159515Y-45661263D01*
X140238737Y-45740485D01*
X140335763Y-45796503D01*
X140443982Y-45825500D01*
X140443984Y-45825500D01*
X140556016Y-45825500D01*
X140556018Y-45825500D01*
X140664237Y-45796503D01*
X140761263Y-45740485D01*
X140840485Y-45661263D01*
X140896503Y-45564237D01*
X140925500Y-45456018D01*
X140925500Y-45343982D01*
X140896503Y-45235763D01*
X140840485Y-45138737D01*
X140761263Y-45059515D01*
X140664237Y-45003497D01*
X140556018Y-44974500D01*
X140528558Y-44974500D01*
X140461519Y-44954815D01*
X140415764Y-44902011D01*
X140405820Y-44832853D01*
X140408783Y-44818407D01*
X140425500Y-44756018D01*
X140425500Y-44643982D01*
X140396503Y-44535763D01*
X140340485Y-44438737D01*
X140261263Y-44359515D01*
X140164237Y-44303497D01*
X140056018Y-44274500D01*
X139943982Y-44274500D01*
X139835763Y-44303497D01*
X139835760Y-44303498D01*
X139738740Y-44359513D01*
X139738734Y-44359517D01*
X139659517Y-44438734D01*
X139659513Y-44438740D01*
X139603498Y-44535760D01*
X139603497Y-44535763D01*
X139574500Y-44643982D01*
X134098705Y-44643982D01*
X134096503Y-44635763D01*
X134040485Y-44538737D01*
X133961263Y-44459515D01*
X133896579Y-44422169D01*
X133864239Y-44403498D01*
X133864238Y-44403497D01*
X133864237Y-44403497D01*
X133756018Y-44374500D01*
X133643982Y-44374500D01*
X133535763Y-44403497D01*
X133535760Y-44403498D01*
X133438740Y-44459513D01*
X133438734Y-44459517D01*
X133359517Y-44538734D01*
X133359513Y-44538740D01*
X133303498Y-44635760D01*
X133303497Y-44635763D01*
X133274500Y-44743982D01*
X133274500Y-44856018D01*
X133303497Y-44964237D01*
X133359515Y-45061263D01*
X133438737Y-45140485D01*
X133446878Y-45145185D01*
X133457987Y-45151599D01*
X133506203Y-45202166D01*
X133519426Y-45270773D01*
X133493457Y-45335638D01*
X133436543Y-45376166D01*
X133428090Y-45378758D01*
X133390474Y-45388837D01*
X133335761Y-45403497D01*
X133335760Y-45403498D01*
X133238740Y-45459513D01*
X133238734Y-45459517D01*
X133159517Y-45538734D01*
X133159513Y-45538740D01*
X133103498Y-45635760D01*
X133103497Y-45635763D01*
X133074500Y-45743982D01*
X116417160Y-45743982D01*
X116370942Y-45632403D01*
X116255975Y-45460342D01*
X116109657Y-45314024D01*
X115977170Y-45225500D01*
X115937598Y-45199059D01*
X115931427Y-45196503D01*
X115820164Y-45150416D01*
X115746420Y-45119870D01*
X115746412Y-45119868D01*
X115543469Y-45079500D01*
X115543465Y-45079500D01*
X115336535Y-45079500D01*
X115336530Y-45079500D01*
X115133587Y-45119868D01*
X115133579Y-45119870D01*
X114942403Y-45199058D01*
X114770342Y-45314024D01*
X114624024Y-45460342D01*
X114509058Y-45632403D01*
X114429870Y-45823579D01*
X114429868Y-45823587D01*
X114389500Y-46026530D01*
X113950499Y-46026530D01*
X113910130Y-45823580D01*
X113830941Y-45632402D01*
X113715977Y-45460345D01*
X113715975Y-45460342D01*
X113569657Y-45314024D01*
X113437170Y-45225500D01*
X113397598Y-45199059D01*
X113391427Y-45196503D01*
X113206420Y-45119870D01*
X113206412Y-45119868D01*
X113003469Y-45079500D01*
X113003465Y-45079500D01*
X112796535Y-45079500D01*
X112796530Y-45079500D01*
X112593587Y-45119868D01*
X112593579Y-45119870D01*
X112402403Y-45199058D01*
X112230342Y-45314024D01*
X112084024Y-45460342D01*
X111969058Y-45632403D01*
X111889870Y-45823579D01*
X111889868Y-45823587D01*
X111849500Y-46026530D01*
X110000500Y-46026530D01*
X110000500Y-45043982D01*
X122574500Y-45043982D01*
X122574500Y-45156018D01*
X122595868Y-45235763D01*
X122603497Y-45264236D01*
X122603498Y-45264239D01*
X122613517Y-45281593D01*
X122659515Y-45361263D01*
X122738737Y-45440485D01*
X122835763Y-45496503D01*
X122943982Y-45525500D01*
X122943984Y-45525500D01*
X123056016Y-45525500D01*
X123056018Y-45525500D01*
X123164237Y-45496503D01*
X123261263Y-45440485D01*
X123340485Y-45361263D01*
X123396503Y-45264237D01*
X123425500Y-45156018D01*
X123425500Y-45043982D01*
X123396503Y-44935763D01*
X123340485Y-44838737D01*
X123261263Y-44759515D01*
X123164237Y-44703497D01*
X123056018Y-44674500D01*
X122943982Y-44674500D01*
X122835763Y-44703497D01*
X122835760Y-44703498D01*
X122738740Y-44759513D01*
X122738734Y-44759517D01*
X122659517Y-44838734D01*
X122659513Y-44838740D01*
X122603498Y-44935760D01*
X122603497Y-44935763D01*
X122574500Y-45043982D01*
X110000500Y-45043982D01*
X110000500Y-43486530D01*
X111849500Y-43486530D01*
X111849500Y-43693469D01*
X111889868Y-43896412D01*
X111889870Y-43896420D01*
X111969058Y-44087596D01*
X112084024Y-44259657D01*
X112230342Y-44405975D01*
X112230345Y-44405977D01*
X112402402Y-44520941D01*
X112593580Y-44600130D01*
X112796530Y-44640499D01*
X112796534Y-44640500D01*
X112796535Y-44640500D01*
X113003466Y-44640500D01*
X113003467Y-44640499D01*
X113206420Y-44600130D01*
X113397598Y-44520941D01*
X113569655Y-44405977D01*
X113715977Y-44259655D01*
X113830941Y-44087598D01*
X113910130Y-43896420D01*
X113950500Y-43693465D01*
X113950500Y-43486535D01*
X113950499Y-43486530D01*
X114389500Y-43486530D01*
X114389500Y-43693469D01*
X114429868Y-43896412D01*
X114429870Y-43896420D01*
X114509058Y-44087596D01*
X114624024Y-44259657D01*
X114770342Y-44405975D01*
X114770345Y-44405977D01*
X114942402Y-44520941D01*
X115133580Y-44600130D01*
X115336530Y-44640499D01*
X115336534Y-44640500D01*
X115336535Y-44640500D01*
X115543466Y-44640500D01*
X115543467Y-44640499D01*
X115746420Y-44600130D01*
X115937598Y-44520941D01*
X116109655Y-44405977D01*
X116255977Y-44259655D01*
X116370941Y-44087598D01*
X116450130Y-43896420D01*
X116490500Y-43693465D01*
X116490500Y-43543982D01*
X123474500Y-43543982D01*
X123474500Y-43656018D01*
X123503497Y-43764237D01*
X123559515Y-43861263D01*
X123638737Y-43940485D01*
X123735763Y-43996503D01*
X123843982Y-44025500D01*
X123843984Y-44025500D01*
X123956016Y-44025500D01*
X123956018Y-44025500D01*
X124064237Y-43996503D01*
X124161263Y-43940485D01*
X124240485Y-43861263D01*
X124296503Y-43764237D01*
X124325500Y-43656018D01*
X124325500Y-43543982D01*
X124296503Y-43435763D01*
X124240485Y-43338737D01*
X124161263Y-43259515D01*
X124064237Y-43203497D01*
X123956018Y-43174500D01*
X123843982Y-43174500D01*
X123735763Y-43203497D01*
X123735760Y-43203498D01*
X123638740Y-43259513D01*
X123638734Y-43259517D01*
X123559517Y-43338734D01*
X123559513Y-43338740D01*
X123503498Y-43435760D01*
X123503497Y-43435763D01*
X123474500Y-43543982D01*
X116490500Y-43543982D01*
X116490500Y-43486535D01*
X116450130Y-43283580D01*
X116370941Y-43092402D01*
X116255977Y-42920345D01*
X116255975Y-42920342D01*
X116109657Y-42774024D01*
X116023626Y-42716541D01*
X115937598Y-42659059D01*
X115856577Y-42625499D01*
X115746420Y-42579870D01*
X115746412Y-42579868D01*
X115543469Y-42539500D01*
X115543465Y-42539500D01*
X115336535Y-42539500D01*
X115336530Y-42539500D01*
X115133587Y-42579868D01*
X115133579Y-42579870D01*
X114942403Y-42659058D01*
X114770342Y-42774024D01*
X114624024Y-42920342D01*
X114509058Y-43092403D01*
X114429870Y-43283579D01*
X114429868Y-43283587D01*
X114389500Y-43486530D01*
X113950499Y-43486530D01*
X113910130Y-43283580D01*
X113830941Y-43092402D01*
X113715977Y-42920345D01*
X113715975Y-42920342D01*
X113569657Y-42774024D01*
X113483626Y-42716541D01*
X113397598Y-42659059D01*
X113316577Y-42625499D01*
X113206420Y-42579870D01*
X113206412Y-42579868D01*
X113003469Y-42539500D01*
X113003465Y-42539500D01*
X112796535Y-42539500D01*
X112796530Y-42539500D01*
X112593587Y-42579868D01*
X112593579Y-42579870D01*
X112402403Y-42659058D01*
X112230342Y-42774024D01*
X112084024Y-42920342D01*
X111969058Y-43092403D01*
X111889870Y-43283579D01*
X111889868Y-43283587D01*
X111849500Y-43486530D01*
X110000500Y-43486530D01*
X110000500Y-42143982D01*
X122374500Y-42143982D01*
X122374500Y-42256018D01*
X122403497Y-42364237D01*
X122459515Y-42461263D01*
X122538737Y-42540485D01*
X122635763Y-42596503D01*
X122743982Y-42625500D01*
X122743984Y-42625500D01*
X122856016Y-42625500D01*
X122856018Y-42625500D01*
X122964237Y-42596503D01*
X123061263Y-42540485D01*
X123140485Y-42461263D01*
X123196503Y-42364237D01*
X123201930Y-42343982D01*
X138074500Y-42343982D01*
X138074500Y-42456018D01*
X138075906Y-42461263D01*
X138103497Y-42564236D01*
X138103498Y-42564239D01*
X138112523Y-42579870D01*
X138159515Y-42661263D01*
X138238737Y-42740485D01*
X138335763Y-42796503D01*
X138443982Y-42825500D01*
X138443984Y-42825500D01*
X138556016Y-42825500D01*
X138556018Y-42825500D01*
X138664237Y-42796503D01*
X138761263Y-42740485D01*
X138840485Y-42661263D01*
X138896503Y-42564237D01*
X138925500Y-42456018D01*
X138925500Y-42343982D01*
X138896503Y-42235763D01*
X138840485Y-42138737D01*
X138761263Y-42059515D01*
X138664237Y-42003497D01*
X138556018Y-41974500D01*
X138443982Y-41974500D01*
X138335763Y-42003497D01*
X138335760Y-42003498D01*
X138238740Y-42059513D01*
X138238734Y-42059517D01*
X138159517Y-42138734D01*
X138159513Y-42138740D01*
X138103498Y-42235760D01*
X138103497Y-42235763D01*
X138074500Y-42343982D01*
X123201930Y-42343982D01*
X123225500Y-42256018D01*
X123225500Y-42143982D01*
X123196503Y-42035763D01*
X123140485Y-41938737D01*
X123061263Y-41859515D01*
X122964237Y-41803497D01*
X122856018Y-41774500D01*
X122743982Y-41774500D01*
X122635763Y-41803497D01*
X122635760Y-41803498D01*
X122538740Y-41859513D01*
X122538734Y-41859517D01*
X122459517Y-41938734D01*
X122459513Y-41938740D01*
X122403498Y-42035760D01*
X122403497Y-42035763D01*
X122374500Y-42143982D01*
X110000500Y-42143982D01*
X110000500Y-40946530D01*
X111849500Y-40946530D01*
X111849500Y-41153469D01*
X111889868Y-41356412D01*
X111889870Y-41356420D01*
X111969058Y-41547596D01*
X112084024Y-41719657D01*
X112230342Y-41865975D01*
X112230345Y-41865977D01*
X112402402Y-41980941D01*
X112593580Y-42060130D01*
X112796530Y-42100499D01*
X112796534Y-42100500D01*
X112796535Y-42100500D01*
X113003466Y-42100500D01*
X113003467Y-42100499D01*
X113206420Y-42060130D01*
X113397598Y-41980941D01*
X113569655Y-41865977D01*
X113715977Y-41719655D01*
X113830941Y-41547598D01*
X113910130Y-41356420D01*
X113950500Y-41153465D01*
X113950500Y-40946535D01*
X113950499Y-40946530D01*
X114389500Y-40946530D01*
X114389500Y-41153469D01*
X114429868Y-41356412D01*
X114429870Y-41356420D01*
X114509058Y-41547596D01*
X114624024Y-41719657D01*
X114770342Y-41865975D01*
X114770345Y-41865977D01*
X114942402Y-41980941D01*
X115133580Y-42060130D01*
X115336530Y-42100499D01*
X115336534Y-42100500D01*
X115336535Y-42100500D01*
X115543466Y-42100500D01*
X115543467Y-42100499D01*
X115746420Y-42060130D01*
X115883141Y-42003498D01*
X115937596Y-41980942D01*
X115937596Y-41980941D01*
X115937598Y-41980941D01*
X116109655Y-41865977D01*
X116255977Y-41719655D01*
X116370941Y-41547598D01*
X116450130Y-41356420D01*
X116490500Y-41153465D01*
X116490500Y-40946535D01*
X116488357Y-40935760D01*
X116453406Y-40760046D01*
X116450210Y-40743982D01*
X123074500Y-40743982D01*
X123074500Y-40856018D01*
X123103497Y-40964237D01*
X123159515Y-41061263D01*
X123238737Y-41140485D01*
X123335763Y-41196503D01*
X123443982Y-41225500D01*
X123443984Y-41225500D01*
X123556016Y-41225500D01*
X123556018Y-41225500D01*
X123664237Y-41196503D01*
X123761263Y-41140485D01*
X123840485Y-41061263D01*
X123850462Y-41043982D01*
X132074500Y-41043982D01*
X132074500Y-41156018D01*
X132103497Y-41264237D01*
X132159515Y-41361263D01*
X132238737Y-41440485D01*
X132335763Y-41496503D01*
X132443982Y-41525500D01*
X132443984Y-41525500D01*
X132556016Y-41525500D01*
X132556018Y-41525500D01*
X132664237Y-41496503D01*
X132761263Y-41440485D01*
X132840485Y-41361263D01*
X132896503Y-41264237D01*
X132901930Y-41243982D01*
X158174500Y-41243982D01*
X158174500Y-41356018D01*
X158203497Y-41464237D01*
X158259515Y-41561263D01*
X158338737Y-41640485D01*
X158435763Y-41696503D01*
X158543982Y-41725500D01*
X158543984Y-41725500D01*
X158656016Y-41725500D01*
X158656018Y-41725500D01*
X158764237Y-41696503D01*
X158861263Y-41640485D01*
X158940485Y-41561263D01*
X158996503Y-41464237D01*
X159025500Y-41356018D01*
X159025500Y-41243982D01*
X158996503Y-41135763D01*
X158940485Y-41038737D01*
X158861263Y-40959515D01*
X158764237Y-40903497D01*
X158656018Y-40874500D01*
X158543982Y-40874500D01*
X158435763Y-40903497D01*
X158435760Y-40903498D01*
X158338740Y-40959513D01*
X158338734Y-40959517D01*
X158259517Y-41038734D01*
X158259513Y-41038740D01*
X158203498Y-41135760D01*
X158203497Y-41135763D01*
X158174500Y-41243982D01*
X132901930Y-41243982D01*
X132925500Y-41156018D01*
X132925500Y-41043982D01*
X132896503Y-40935763D01*
X132840485Y-40838737D01*
X132761263Y-40759515D01*
X132664237Y-40703497D01*
X132556018Y-40674500D01*
X132443982Y-40674500D01*
X132335763Y-40703497D01*
X132335760Y-40703498D01*
X132238740Y-40759513D01*
X132238734Y-40759517D01*
X132159517Y-40838734D01*
X132159513Y-40838740D01*
X132103498Y-40935760D01*
X132103497Y-40935763D01*
X132074500Y-41043982D01*
X123850462Y-41043982D01*
X123896503Y-40964237D01*
X123925500Y-40856018D01*
X123925500Y-40743982D01*
X123896503Y-40635763D01*
X123840485Y-40538737D01*
X123761263Y-40459515D01*
X123664237Y-40403497D01*
X123556018Y-40374500D01*
X123443982Y-40374500D01*
X123335763Y-40403497D01*
X123335760Y-40403498D01*
X123238740Y-40459513D01*
X123238734Y-40459517D01*
X123159517Y-40538734D01*
X123159513Y-40538740D01*
X123103498Y-40635760D01*
X123103497Y-40635763D01*
X123074500Y-40743982D01*
X116450210Y-40743982D01*
X116450131Y-40743585D01*
X116450130Y-40743584D01*
X116450130Y-40743580D01*
X116370941Y-40552402D01*
X116255977Y-40380345D01*
X116255975Y-40380342D01*
X116109658Y-40234025D01*
X116109650Y-40234019D01*
X115967453Y-40139006D01*
X115967379Y-40138958D01*
X115937598Y-40119059D01*
X115756347Y-40043982D01*
X141074500Y-40043982D01*
X141074500Y-40156018D01*
X141103497Y-40264237D01*
X141159515Y-40361263D01*
X141238737Y-40440485D01*
X141335763Y-40496503D01*
X141443982Y-40525500D01*
X141443984Y-40525500D01*
X141556016Y-40525500D01*
X141556018Y-40525500D01*
X141664237Y-40496503D01*
X141761263Y-40440485D01*
X141840485Y-40361263D01*
X141896503Y-40264237D01*
X141925500Y-40156018D01*
X141925500Y-40043982D01*
X141896503Y-39935763D01*
X141840485Y-39838737D01*
X141761263Y-39759515D01*
X141664237Y-39703497D01*
X141556018Y-39674500D01*
X141443982Y-39674500D01*
X141335763Y-39703497D01*
X141335760Y-39703498D01*
X141238740Y-39759513D01*
X141238734Y-39759517D01*
X141159517Y-39838734D01*
X141159513Y-39838740D01*
X141103498Y-39935760D01*
X141103497Y-39935763D01*
X141074500Y-40043982D01*
X115756347Y-40043982D01*
X115746420Y-40039870D01*
X115746412Y-40039868D01*
X115543469Y-39999500D01*
X115543465Y-39999500D01*
X115336535Y-39999500D01*
X115336530Y-39999500D01*
X115133587Y-40039868D01*
X115133579Y-40039870D01*
X114942403Y-40119058D01*
X114770342Y-40234024D01*
X114624024Y-40380342D01*
X114509058Y-40552403D01*
X114429870Y-40743579D01*
X114429868Y-40743587D01*
X114389500Y-40946530D01*
X113950499Y-40946530D01*
X113910130Y-40743580D01*
X113830941Y-40552402D01*
X113715977Y-40380345D01*
X113715975Y-40380342D01*
X113569657Y-40234024D01*
X113427379Y-40138958D01*
X113397598Y-40119059D01*
X113206420Y-40039870D01*
X113206412Y-40039868D01*
X113003469Y-39999500D01*
X113003465Y-39999500D01*
X112796535Y-39999500D01*
X112796530Y-39999500D01*
X112593587Y-40039868D01*
X112593579Y-40039870D01*
X112402403Y-40119058D01*
X112230342Y-40234024D01*
X112084024Y-40380342D01*
X111969058Y-40552403D01*
X111889870Y-40743579D01*
X111889868Y-40743587D01*
X111849500Y-40946530D01*
X110000500Y-40946530D01*
X110000500Y-35002561D01*
X110000606Y-34997437D01*
X110005708Y-34874077D01*
X110007701Y-34825901D01*
X111900000Y-34825901D01*
X111900000Y-35174098D01*
X111938981Y-35520073D01*
X111938984Y-35520091D01*
X112016461Y-35859541D01*
X112016465Y-35859553D01*
X112131461Y-36188191D01*
X112282530Y-36501889D01*
X112467776Y-36796706D01*
X112684866Y-37068928D01*
X112701903Y-37085965D01*
X113765259Y-36022608D01*
X113779588Y-36042330D01*
X113957670Y-36220412D01*
X113977391Y-36234740D01*
X112914035Y-37298097D01*
X112931071Y-37315133D01*
X113203293Y-37532223D01*
X113498110Y-37717469D01*
X113811808Y-37868538D01*
X114140446Y-37983534D01*
X114140458Y-37983538D01*
X114479908Y-38061015D01*
X114479926Y-38061018D01*
X114825901Y-38099999D01*
X114825905Y-38100000D01*
X115174095Y-38100000D01*
X115174098Y-38099999D01*
X115520073Y-38061018D01*
X115520091Y-38061015D01*
X115859541Y-37983538D01*
X115859553Y-37983534D01*
X116188191Y-37868538D01*
X116501889Y-37717469D01*
X116796706Y-37532223D01*
X117068928Y-37315133D01*
X117085965Y-37298097D01*
X116022608Y-36234740D01*
X116042330Y-36220412D01*
X116220412Y-36042330D01*
X116234740Y-36022608D01*
X117298097Y-37085965D01*
X117315133Y-37068928D01*
X117532223Y-36796706D01*
X117717469Y-36501889D01*
X117868538Y-36188191D01*
X117983534Y-35859553D01*
X117983538Y-35859541D01*
X118061015Y-35520091D01*
X118061018Y-35520073D01*
X118099999Y-35174098D01*
X118100000Y-35174094D01*
X118100000Y-34825905D01*
X118099999Y-34825901D01*
X161900000Y-34825901D01*
X161900000Y-35174098D01*
X161938981Y-35520073D01*
X161938984Y-35520091D01*
X162016461Y-35859541D01*
X162016465Y-35859553D01*
X162131461Y-36188191D01*
X162282530Y-36501889D01*
X162467776Y-36796706D01*
X162684866Y-37068928D01*
X162701903Y-37085965D01*
X163765259Y-36022608D01*
X163779588Y-36042330D01*
X163957670Y-36220412D01*
X163977391Y-36234740D01*
X162914035Y-37298097D01*
X162931071Y-37315133D01*
X163203293Y-37532223D01*
X163498110Y-37717469D01*
X163811808Y-37868538D01*
X164140446Y-37983534D01*
X164140458Y-37983538D01*
X164479908Y-38061015D01*
X164479926Y-38061018D01*
X164825901Y-38099999D01*
X164825905Y-38100000D01*
X165174095Y-38100000D01*
X165174098Y-38099999D01*
X165520073Y-38061018D01*
X165520091Y-38061015D01*
X165859541Y-37983538D01*
X165859553Y-37983534D01*
X166188191Y-37868538D01*
X166501889Y-37717469D01*
X166796706Y-37532223D01*
X167068928Y-37315133D01*
X167085965Y-37298097D01*
X166022608Y-36234740D01*
X166042330Y-36220412D01*
X166220412Y-36042330D01*
X166234740Y-36022608D01*
X167298097Y-37085965D01*
X167315133Y-37068928D01*
X167532223Y-36796706D01*
X167717469Y-36501889D01*
X167868538Y-36188191D01*
X167983534Y-35859553D01*
X167983538Y-35859541D01*
X168061015Y-35520091D01*
X168061018Y-35520073D01*
X168099999Y-35174098D01*
X168100000Y-35174094D01*
X168100000Y-34825905D01*
X168099999Y-34825901D01*
X168061018Y-34479926D01*
X168061015Y-34479908D01*
X167983538Y-34140458D01*
X167983534Y-34140446D01*
X167868538Y-33811808D01*
X167717469Y-33498110D01*
X167532223Y-33203293D01*
X167315133Y-32931071D01*
X167298097Y-32914035D01*
X166234740Y-33977391D01*
X166220412Y-33957670D01*
X166042330Y-33779588D01*
X166022608Y-33765259D01*
X167085965Y-32701903D01*
X167068928Y-32684866D01*
X166796706Y-32467776D01*
X166501889Y-32282530D01*
X166188191Y-32131461D01*
X165859553Y-32016465D01*
X165859541Y-32016461D01*
X165520091Y-31938984D01*
X165520073Y-31938981D01*
X165174098Y-31900000D01*
X164825901Y-31900000D01*
X164479926Y-31938981D01*
X164479908Y-31938984D01*
X164140458Y-32016461D01*
X164140446Y-32016465D01*
X163811808Y-32131461D01*
X163498110Y-32282530D01*
X163203293Y-32467776D01*
X162931071Y-32684866D01*
X162914035Y-32701903D01*
X163977391Y-33765259D01*
X163957670Y-33779588D01*
X163779588Y-33957670D01*
X163765259Y-33977391D01*
X162701903Y-32914035D01*
X162684866Y-32931071D01*
X162467776Y-33203293D01*
X162282530Y-33498110D01*
X162131461Y-33811808D01*
X162016465Y-34140446D01*
X162016461Y-34140458D01*
X161938984Y-34479908D01*
X161938981Y-34479926D01*
X161900000Y-34825901D01*
X118099999Y-34825901D01*
X118061018Y-34479926D01*
X118061015Y-34479908D01*
X117983538Y-34140458D01*
X117983534Y-34140446D01*
X117868538Y-33811808D01*
X117717469Y-33498110D01*
X117628436Y-33356415D01*
X117590808Y-33296530D01*
X132949500Y-33296530D01*
X132949500Y-33503469D01*
X132989868Y-33706412D01*
X132989870Y-33706420D01*
X133069058Y-33897596D01*
X133184024Y-34069657D01*
X133330342Y-34215975D01*
X133330345Y-34215977D01*
X133502402Y-34330941D01*
X133693580Y-34410130D01*
X133838052Y-34438867D01*
X133896530Y-34450499D01*
X133896534Y-34450500D01*
X133896535Y-34450500D01*
X134103466Y-34450500D01*
X134103467Y-34450499D01*
X134306420Y-34410130D01*
X134497598Y-34330941D01*
X134669655Y-34215977D01*
X134815977Y-34069655D01*
X134930941Y-33897598D01*
X135010130Y-33706420D01*
X135050500Y-33503465D01*
X135050500Y-33296535D01*
X135050499Y-33296530D01*
X135489500Y-33296530D01*
X135489500Y-33503469D01*
X135529868Y-33706412D01*
X135529870Y-33706420D01*
X135609058Y-33897596D01*
X135724024Y-34069657D01*
X135870342Y-34215975D01*
X135870345Y-34215977D01*
X136042402Y-34330941D01*
X136233580Y-34410130D01*
X136378052Y-34438867D01*
X136436530Y-34450499D01*
X136436534Y-34450500D01*
X136436535Y-34450500D01*
X136643466Y-34450500D01*
X136643467Y-34450499D01*
X136846420Y-34410130D01*
X137037598Y-34330941D01*
X137209655Y-34215977D01*
X137355977Y-34069655D01*
X137470941Y-33897598D01*
X137550130Y-33706420D01*
X137590500Y-33503465D01*
X137590500Y-33296535D01*
X137590499Y-33296530D01*
X138029500Y-33296530D01*
X138029500Y-33503469D01*
X138069868Y-33706412D01*
X138069870Y-33706420D01*
X138149058Y-33897596D01*
X138264024Y-34069657D01*
X138410342Y-34215975D01*
X138410345Y-34215977D01*
X138582402Y-34330941D01*
X138773580Y-34410130D01*
X138918052Y-34438867D01*
X138976530Y-34450499D01*
X138976534Y-34450500D01*
X138976535Y-34450500D01*
X139183466Y-34450500D01*
X139183467Y-34450499D01*
X139386420Y-34410130D01*
X139577598Y-34330941D01*
X139749655Y-34215977D01*
X139895977Y-34069655D01*
X140010941Y-33897598D01*
X140090130Y-33706420D01*
X140130500Y-33503465D01*
X140130500Y-33296535D01*
X140130499Y-33296530D01*
X140569500Y-33296530D01*
X140569500Y-33503469D01*
X140609868Y-33706412D01*
X140609870Y-33706420D01*
X140689058Y-33897596D01*
X140804024Y-34069657D01*
X140950342Y-34215975D01*
X140950345Y-34215977D01*
X141122402Y-34330941D01*
X141313580Y-34410130D01*
X141458052Y-34438867D01*
X141516530Y-34450499D01*
X141516534Y-34450500D01*
X141516535Y-34450500D01*
X141723466Y-34450500D01*
X141723467Y-34450499D01*
X141926420Y-34410130D01*
X142117598Y-34330941D01*
X142289655Y-34215977D01*
X142298825Y-34206807D01*
X142327999Y-34177634D01*
X142435974Y-34069658D01*
X142435975Y-34069657D01*
X142435977Y-34069655D01*
X142550941Y-33897598D01*
X142630130Y-33706420D01*
X142670500Y-33503465D01*
X142670500Y-33309493D01*
X143010000Y-33309493D01*
X143010000Y-33490506D01*
X143038317Y-33669293D01*
X143094251Y-33841444D01*
X143094252Y-33841447D01*
X143176432Y-34002731D01*
X143247424Y-34100442D01*
X143247425Y-34100443D01*
X143716329Y-33631538D01*
X143759901Y-33707007D01*
X143852993Y-33800099D01*
X143928460Y-33843670D01*
X143459555Y-34312574D01*
X143557268Y-34383567D01*
X143718552Y-34465747D01*
X143718555Y-34465748D01*
X143890706Y-34521682D01*
X144069494Y-34550000D01*
X144250506Y-34550000D01*
X144429293Y-34521682D01*
X144601444Y-34465748D01*
X144601447Y-34465747D01*
X144762730Y-34383568D01*
X144860442Y-34312574D01*
X144860443Y-34312574D01*
X144391539Y-33843670D01*
X144467007Y-33800099D01*
X144560099Y-33707007D01*
X144603670Y-33631539D01*
X145072574Y-34100443D01*
X145072574Y-34100442D01*
X145143568Y-34002730D01*
X145225747Y-33841447D01*
X145225748Y-33841444D01*
X145281682Y-33669293D01*
X145310000Y-33490506D01*
X145310000Y-33309493D01*
X145281682Y-33130706D01*
X145225748Y-32958555D01*
X145225747Y-32958552D01*
X145143567Y-32797268D01*
X145072574Y-32699556D01*
X145072574Y-32699555D01*
X144603670Y-33168460D01*
X144560099Y-33092993D01*
X144467007Y-32999901D01*
X144391538Y-32956329D01*
X144817620Y-32530247D01*
X145649500Y-32530247D01*
X145649500Y-34269752D01*
X145661131Y-34328229D01*
X145661132Y-34328230D01*
X145705447Y-34394552D01*
X145771769Y-34438867D01*
X145771770Y-34438868D01*
X145830247Y-34450499D01*
X145830250Y-34450500D01*
X145830252Y-34450500D01*
X147569750Y-34450500D01*
X147569751Y-34450499D01*
X147584568Y-34447552D01*
X147628229Y-34438868D01*
X147628229Y-34438867D01*
X147628231Y-34438867D01*
X147694552Y-34394552D01*
X147738867Y-34328231D01*
X147738867Y-34328229D01*
X147738868Y-34328229D01*
X147750499Y-34269752D01*
X147750500Y-34269750D01*
X147750500Y-32530249D01*
X147750499Y-32530247D01*
X147738868Y-32471770D01*
X147738867Y-32471769D01*
X147694552Y-32405447D01*
X147628230Y-32361132D01*
X147628229Y-32361131D01*
X147569752Y-32349500D01*
X147569748Y-32349500D01*
X145830252Y-32349500D01*
X145830247Y-32349500D01*
X145771770Y-32361131D01*
X145771769Y-32361132D01*
X145705447Y-32405447D01*
X145661132Y-32471769D01*
X145661131Y-32471770D01*
X145649500Y-32530247D01*
X144817620Y-32530247D01*
X144860443Y-32487424D01*
X144762731Y-32416432D01*
X144601447Y-32334252D01*
X144601444Y-32334251D01*
X144429293Y-32278317D01*
X144250506Y-32250000D01*
X144069494Y-32250000D01*
X143890706Y-32278317D01*
X143718555Y-32334251D01*
X143718552Y-32334252D01*
X143557265Y-32416434D01*
X143459556Y-32487423D01*
X143459556Y-32487425D01*
X143928461Y-32956329D01*
X143852993Y-32999901D01*
X143759901Y-33092993D01*
X143716329Y-33168460D01*
X143247425Y-32699556D01*
X143247423Y-32699556D01*
X143176434Y-32797265D01*
X143094252Y-32958552D01*
X143094251Y-32958555D01*
X143038317Y-33130706D01*
X143010000Y-33309493D01*
X142670500Y-33309493D01*
X142670500Y-33296535D01*
X142630130Y-33093580D01*
X142550941Y-32902402D01*
X142435977Y-32730345D01*
X142435975Y-32730342D01*
X142289657Y-32584024D01*
X142121655Y-32471770D01*
X142117598Y-32469059D01*
X141926420Y-32389870D01*
X141926412Y-32389868D01*
X141723469Y-32349500D01*
X141723465Y-32349500D01*
X141516535Y-32349500D01*
X141516530Y-32349500D01*
X141313587Y-32389868D01*
X141313579Y-32389870D01*
X141122403Y-32469058D01*
X140950342Y-32584024D01*
X140804024Y-32730342D01*
X140689058Y-32902403D01*
X140609870Y-33093579D01*
X140609868Y-33093587D01*
X140569500Y-33296530D01*
X140130499Y-33296530D01*
X140090130Y-33093580D01*
X140010941Y-32902402D01*
X139895977Y-32730345D01*
X139895975Y-32730342D01*
X139749657Y-32584024D01*
X139581655Y-32471770D01*
X139577598Y-32469059D01*
X139386420Y-32389870D01*
X139386412Y-32389868D01*
X139183469Y-32349500D01*
X139183465Y-32349500D01*
X138976535Y-32349500D01*
X138976530Y-32349500D01*
X138773587Y-32389868D01*
X138773579Y-32389870D01*
X138582403Y-32469058D01*
X138410342Y-32584024D01*
X138264024Y-32730342D01*
X138149058Y-32902403D01*
X138069870Y-33093579D01*
X138069868Y-33093587D01*
X138029500Y-33296530D01*
X137590499Y-33296530D01*
X137550130Y-33093580D01*
X137470941Y-32902402D01*
X137355977Y-32730345D01*
X137355975Y-32730342D01*
X137209657Y-32584024D01*
X137041655Y-32471770D01*
X137037598Y-32469059D01*
X136846420Y-32389870D01*
X136846412Y-32389868D01*
X136643469Y-32349500D01*
X136643465Y-32349500D01*
X136436535Y-32349500D01*
X136436530Y-32349500D01*
X136233587Y-32389868D01*
X136233579Y-32389870D01*
X136042403Y-32469058D01*
X135870342Y-32584024D01*
X135724024Y-32730342D01*
X135609058Y-32902403D01*
X135529870Y-33093579D01*
X135529868Y-33093587D01*
X135489500Y-33296530D01*
X135050499Y-33296530D01*
X135010130Y-33093580D01*
X134930941Y-32902402D01*
X134815977Y-32730345D01*
X134815975Y-32730342D01*
X134669657Y-32584024D01*
X134501655Y-32471770D01*
X134497598Y-32469059D01*
X134306420Y-32389870D01*
X134306412Y-32389868D01*
X134103469Y-32349500D01*
X134103465Y-32349500D01*
X133896535Y-32349500D01*
X133896530Y-32349500D01*
X133693587Y-32389868D01*
X133693579Y-32389870D01*
X133502403Y-32469058D01*
X133330342Y-32584024D01*
X133184024Y-32730342D01*
X133069058Y-32902403D01*
X132989870Y-33093579D01*
X132989868Y-33093587D01*
X132949500Y-33296530D01*
X117590808Y-33296530D01*
X117532223Y-33203293D01*
X117315133Y-32931071D01*
X117298097Y-32914035D01*
X116234740Y-33977391D01*
X116220412Y-33957670D01*
X116042330Y-33779588D01*
X116022608Y-33765259D01*
X117085965Y-32701903D01*
X117068928Y-32684866D01*
X116796706Y-32467776D01*
X116501889Y-32282530D01*
X116188191Y-32131461D01*
X115859553Y-32016465D01*
X115859541Y-32016461D01*
X115520091Y-31938984D01*
X115520073Y-31938981D01*
X115174098Y-31900000D01*
X114825901Y-31900000D01*
X114479926Y-31938981D01*
X114479908Y-31938984D01*
X114140458Y-32016461D01*
X114140446Y-32016465D01*
X113811808Y-32131461D01*
X113498110Y-32282530D01*
X113203293Y-32467776D01*
X112931071Y-32684866D01*
X112914035Y-32701903D01*
X113977391Y-33765259D01*
X113957670Y-33779588D01*
X113779588Y-33957670D01*
X113765259Y-33977391D01*
X112701903Y-32914035D01*
X112684866Y-32931071D01*
X112467776Y-33203293D01*
X112282530Y-33498110D01*
X112131461Y-33811808D01*
X112016465Y-34140446D01*
X112016461Y-34140458D01*
X111938984Y-34479908D01*
X111938981Y-34479926D01*
X111900000Y-34825901D01*
X110007701Y-34825901D01*
X110015815Y-34629716D01*
X110016177Y-34624098D01*
X110023531Y-34540031D01*
X110024003Y-34535582D01*
X110064218Y-34212959D01*
X110065138Y-34206842D01*
X110079003Y-34128210D01*
X110079732Y-34124428D01*
X110147553Y-33800974D01*
X110149123Y-33794394D01*
X110167614Y-33725385D01*
X110168500Y-33722251D01*
X110265389Y-33396810D01*
X110267685Y-33389862D01*
X110287331Y-33335886D01*
X110288276Y-33333380D01*
X110416976Y-33003551D01*
X110420079Y-32996292D01*
X110434634Y-32965080D01*
X110435415Y-32963445D01*
X110600823Y-32625097D01*
X110605693Y-32616100D01*
X110622994Y-32587066D01*
X110656848Y-32530252D01*
X110811972Y-32269919D01*
X110817565Y-32261359D01*
X111051723Y-31933400D01*
X111057992Y-31925346D01*
X111318443Y-31617832D01*
X111325362Y-31610316D01*
X111610316Y-31325362D01*
X111617832Y-31318443D01*
X111925346Y-31057992D01*
X111933400Y-31051723D01*
X112261359Y-30817565D01*
X112269919Y-30811972D01*
X112616116Y-30605683D01*
X112625097Y-30600823D01*
X112963445Y-30435415D01*
X112965080Y-30434634D01*
X112996292Y-30420079D01*
X113003551Y-30416976D01*
X113333380Y-30288276D01*
X113335886Y-30287331D01*
X113389862Y-30267685D01*
X113396810Y-30265389D01*
X113722251Y-30168500D01*
X113725385Y-30167614D01*
X113794394Y-30149123D01*
X113800974Y-30147553D01*
X114124428Y-30079732D01*
X114128210Y-30079003D01*
X114206842Y-30065138D01*
X114212959Y-30064218D01*
X114535582Y-30024003D01*
X114540031Y-30023531D01*
X114624098Y-30016177D01*
X114629716Y-30015815D01*
X114997437Y-30000605D01*
X115002561Y-30000500D01*
X164997439Y-30000500D01*
X165002562Y-30000605D01*
G37*
%TD.AperFunction*%
%TD*%
M02*
