%TF.GenerationSoftware,KiCad,Pcbnew,10.0.0*%
%TF.CreationDate,2026-04-02T08:48:31+02:00*%
%TF.ProjectId,projet electronique PCBot,70726f6a-6574-4206-956c-656374726f6e,rev?*%
%TF.SameCoordinates,Original*%
%TF.FileFunction,Legend,Bot*%
%TF.FilePolarity,Positive*%
%FSLAX46Y46*%
G04 Gerber Fmt 4.6, Leading zero omitted, Abs format (unit mm)*
G04 Created by KiCad (PCBNEW 10.0.0) date 2026-04-02 08:48:31*
%MOMM*%
%LPD*%
G01*
G04 APERTURE LIST*
%ADD10C,0.150000*%
%ADD11C,0.120000*%
G04 APERTURE END LIST*
D10*
X119654819Y-75966666D02*
X120369104Y-75966666D01*
X120369104Y-75966666D02*
X120511961Y-75919047D01*
X120511961Y-75919047D02*
X120607200Y-75823809D01*
X120607200Y-75823809D02*
X120654819Y-75680952D01*
X120654819Y-75680952D02*
X120654819Y-75585714D01*
X120654819Y-76442857D02*
X119654819Y-76442857D01*
X119654819Y-76442857D02*
X119654819Y-76823809D01*
X119654819Y-76823809D02*
X119702438Y-76919047D01*
X119702438Y-76919047D02*
X119750057Y-76966666D01*
X119750057Y-76966666D02*
X119845295Y-77014285D01*
X119845295Y-77014285D02*
X119988152Y-77014285D01*
X119988152Y-77014285D02*
X120083390Y-76966666D01*
X120083390Y-76966666D02*
X120131009Y-76919047D01*
X120131009Y-76919047D02*
X120178628Y-76823809D01*
X120178628Y-76823809D02*
X120178628Y-76442857D01*
X119750057Y-77395238D02*
X119702438Y-77442857D01*
X119702438Y-77442857D02*
X119654819Y-77538095D01*
X119654819Y-77538095D02*
X119654819Y-77776190D01*
X119654819Y-77776190D02*
X119702438Y-77871428D01*
X119702438Y-77871428D02*
X119750057Y-77919047D01*
X119750057Y-77919047D02*
X119845295Y-77966666D01*
X119845295Y-77966666D02*
X119940533Y-77966666D01*
X119940533Y-77966666D02*
X120083390Y-77919047D01*
X120083390Y-77919047D02*
X120654819Y-77347619D01*
X120654819Y-77347619D02*
X120654819Y-77966666D01*
X137854819Y-88966666D02*
X138569104Y-88966666D01*
X138569104Y-88966666D02*
X138711961Y-88919047D01*
X138711961Y-88919047D02*
X138807200Y-88823809D01*
X138807200Y-88823809D02*
X138854819Y-88680952D01*
X138854819Y-88680952D02*
X138854819Y-88585714D01*
X138854819Y-89442857D02*
X137854819Y-89442857D01*
X137854819Y-89442857D02*
X137854819Y-89823809D01*
X137854819Y-89823809D02*
X137902438Y-89919047D01*
X137902438Y-89919047D02*
X137950057Y-89966666D01*
X137950057Y-89966666D02*
X138045295Y-90014285D01*
X138045295Y-90014285D02*
X138188152Y-90014285D01*
X138188152Y-90014285D02*
X138283390Y-89966666D01*
X138283390Y-89966666D02*
X138331009Y-89919047D01*
X138331009Y-89919047D02*
X138378628Y-89823809D01*
X138378628Y-89823809D02*
X138378628Y-89442857D01*
X138854819Y-90966666D02*
X138854819Y-90395238D01*
X138854819Y-90680952D02*
X137854819Y-90680952D01*
X137854819Y-90680952D02*
X137997676Y-90585714D01*
X137997676Y-90585714D02*
X138092914Y-90490476D01*
X138092914Y-90490476D02*
X138140533Y-90395238D01*
%TO.C,JP2*%
D11*
X121000000Y-75400000D02*
X121000000Y-78200000D01*
X121000000Y-78200000D02*
X123000000Y-78200000D01*
X123000000Y-75400000D02*
X121000000Y-75400000D01*
X123000000Y-78200000D02*
X123000000Y-75400000D01*
%TO.C,JP1*%
X135300000Y-85300000D02*
X135300000Y-88100000D01*
X135300000Y-88100000D02*
X137300000Y-88100000D01*
X137300000Y-85300000D02*
X135300000Y-85300000D01*
X137300000Y-88100000D02*
X137300000Y-85300000D01*
%TD*%
M02*
